<svg width="1080" height="1080" viewBox="0 0 1080 1080" fill="none" xmlns="http://www.w3.org/2000/svg">
<path d="M468.34 248.09C485.807 245.412 511.206 265.693 521.352 278.963C575.817 249.452 633.356 275.713 671.743 317.322C678.291 324.42 682.567 332.336 686.349 341.087C717.718 356.753 747.447 368.6 737.324 409.732C735.799 415.93 733.211 419.84 729.567 424.941C734.096 434.184 737.948 448.235 740.914 458.156C753.448 500.035 760.042 543.564 773.185 585.265C775.989 594.171 780.434 603.303 781.42 612.626C783.176 629.31 769.472 640.772 755.004 645.497C741.962 649.806 728.403 650.988 714.899 652.66C695.232 655.149 675.518 657.26 655.766 658.992C644.341 660.441 627.339 661.236 615.584 661.925C576.672 664.042 537.684 664.369 498.743 662.902C480.98 662.148 463.508 660.573 445.784 659.467C425.535 658.432 407.775 659.125 387.506 656.058C368.562 653.192 342.79 643.086 341.765 620.139C341.447 613.029 346.485 602.98 347.396 595.063C351.129 562.578 355.505 530.105 361.621 497.974C366.382 472.125 373.893 447.335 378.17 421.647C361.339 404.524 372.831 382.996 386.009 367.306C390.129 362.4 395.717 358.839 401.038 355.308C401.723 332.994 443.533 316.059 462.176 313.178C460.213 302.378 458.275 291.277 456.844 280.39C455.06 266.813 454.832 255.29 468.34 248.09Z" fill="#3E0D2C"/>
<path d="M397.955 425.496C427.074 418.57 425.817 431.281 437.574 452.544C443.58 463.404 457.598 472.08 470.08 470.707C491.332 468.506 503.482 445.942 524.134 441.461C545.658 436.789 574.153 441.15 593.636 451.637C614.867 465.165 624.25 502.426 657.191 496.147C670.226 493.422 681.92 481.456 688.637 470.219C697.412 455.22 698.506 450.049 713.505 439.581C728.997 486.601 737.232 529.959 749.442 577.587C739.135 575.528 728.665 571.258 719.583 566.014C693.229 553.068 674.971 558.75 647.669 565.143C631.322 568.908 625.498 569.688 608.473 569.346C599.121 569.211 589.222 568.316 579.839 567.627L542.006 564.808C517.048 564.328 505.648 564.831 481.325 570.571C470.505 573.301 460.693 575.186 449.761 577.247C438.3 578.687 429.586 578.703 418.005 578.602C401.553 578.054 387.781 573.145 372.152 568.53C368.662 562.152 388.083 471.361 391.274 458.783C393.736 448.512 396.913 436.001 397.955 425.496Z" fill="#FCBC6C"/>
<path d="M481.324 570.571C481.088 570.063 480.798 569.479 480.724 568.916C480.362 566.199 484.236 553.256 484.951 549.303C488.754 528.254 494.79 471.851 506.194 455.978C511.386 448.751 520.014 443.919 528.787 442.664C534.711 441.816 540.334 443.258 545.041 446.983C557.398 456.755 560.872 476.913 562.506 491.624C564.801 512.298 564.963 530.764 556.312 550.105C554.363 554.461 551.936 559.441 548.701 562.987C546.775 565.1 544.625 564.687 542.006 564.808C517.048 564.329 505.648 564.831 481.324 570.571Z" fill="#FFF7E6"/>
<path d="M542.191 462.476C553.092 466.637 552.56 505.535 550.681 516.335C549.171 524.965 543.185 529.563 536.514 533.955C533.247 534.508 532.361 534.306 530.027 531.902C527.577 523.651 535.258 514.215 538.447 505.973C543.94 491.808 535.682 475.044 542.191 462.476Z" fill="white"/>
<path d="M518.92 459.532C522.182 459.962 523.194 460.785 524.519 463.678C523.695 468.202 520.723 468.281 517.875 472.41C514.064 477.934 516.157 482.843 510.813 486.698C506.54 484.597 503.407 483.531 504.554 477.96C506.018 470.85 513.171 463.436 518.92 459.532Z" fill="#FCBC6C"/>
<path d="M526.198 476.274C529.295 477.616 530.243 478.425 530.882 481.781C529.888 485.43 530.597 484.052 527.747 486.99C524.519 485.972 523.772 485.561 522.886 482.228C523.44 479.229 524.18 478.741 526.198 476.274Z" fill="#FCBC6C"/>
<path d="M529.981 541.254C532.862 542.153 533.432 542.581 534.379 545.327C533.894 547.984 532.6 549.064 530.797 551.18C527.616 550.297 526.83 549.93 526.283 546.56C527.261 543.521 527.508 543.45 529.981 541.254Z" fill="white"/>
<path d="M647.669 565.143C646.059 564.582 645.543 564.821 645.173 563.551C643.07 554.892 640.05 534.953 644.388 526.933C653.316 510.42 671.974 490.064 688.314 481.35C701.025 474.57 709.815 486.999 712.827 497.578C716.201 509.416 723.188 556.116 719.583 566.014C693.229 553.068 674.971 558.751 647.669 565.143Z" fill="#FFF7E6"/>
<path d="M654.718 518.349C656.066 518.76 656.783 519.076 658.092 519.609C660.504 523.664 655.057 537.649 654.487 542.828C654.117 546.211 653.678 550.05 653.023 553.365C645.081 551.562 651.221 523.265 654.718 518.349Z" fill="white"/>
<path d="M685.926 491.163C696.287 492.88 693.39 501.445 685.718 505.904C682.559 505.232 680.872 504.346 679.108 501.813C678.13 495.906 680.834 493.86 685.926 491.163Z" fill="#FCBC6C"/>
<path d="M676.65 515.913C681.034 516.348 683.006 516.626 684.223 520.938C683.591 524.238 682.667 525.084 680.702 527.782C674.1 525.961 671.974 521.343 676.65 515.913Z" fill="white"/>
<path d="M667.213 531.178C668.677 530.403 670.48 530.851 671.412 532.217C672.344 533.583 672.105 535.432 670.85 536.509C669.902 537.321 668.577 537.52 667.437 537.022C666.289 536.522 665.534 535.414 665.488 534.169C665.442 532.924 666.112 531.762 667.213 531.178Z" fill="white"/>
<path d="M579.838 567.627C575.263 547.147 574.585 527.47 574.739 506.409C574.793 499.873 573.845 458.656 584.815 459.12C602.472 459.865 608.365 489.415 607.78 502.96C607.934 526.764 603.573 546.815 608.473 569.346C599.121 569.211 589.222 568.316 579.838 567.627Z" fill="#FFF7E6"/>
<path d="M583.652 516.211C585.74 516.657 585.732 516.519 587.396 517.79C588.282 520.896 588.505 553.41 587.565 555.927C580.786 549.489 582.026 524.878 583.652 516.211Z" fill="white"/>
<path d="M583.667 478.632C590.732 480.815 589.684 486.205 587.311 491.906C586.318 492.129 585.37 492.134 584.338 492.206L583.128 491.022C581.703 487.22 582.273 482.362 583.667 478.632Z" fill="#FCBC6C"/>
<path d="M418.005 578.603C418.129 575.597 427.462 560.931 428.809 555.157C439.769 508.195 423.347 502.341 476.19 491.983C472.759 508.512 473.434 523.291 467.326 540.523C461.746 556.263 450.484 561.687 449.761 577.248C438.3 578.687 429.586 578.703 418.005 578.603Z" fill="#FFF7E6"/>
<path d="M466.196 503.365C474.857 508.12 460.51 539.098 456.92 544.991L455.696 544.789L455.262 543.464C457.047 536.829 463.96 506.861 466.196 503.365Z" fill="white"/>
<path d="M450.699 509.492C453.698 511.088 453.745 511.851 453.655 514.948C452.199 517.937 451.769 518.028 448.947 520.03C442.832 517.548 447.981 512.282 450.699 509.492Z" fill="#FCBC6C"/>
<path d="M391.274 458.783C424.241 489.829 387.077 535.734 374.72 567.368C374.392 568.207 372.95 568.326 372.152 568.531C368.662 562.153 388.083 471.362 391.274 458.783Z" fill="#FFF7E6"/>
<path d="M392.399 478.642C394.537 478.855 396.931 478.848 397.338 481.536C399.051 492.873 394.188 505.708 389.217 515.61L387.529 516.27L386.847 514.751C387.335 507.743 389.172 483.603 392.399 478.642Z" fill="white"/>
<path d="M686.881 571.259C700.293 571.339 703.783 573.033 715.924 578.74C728.581 585.784 739.058 588.903 753.194 591.574C759.172 608.915 770.697 620.661 744.173 626.798C721.84 631.964 698.175 632.901 675.487 635.998C669.371 636.716 649.688 638.811 644.303 638.603C622.463 641.032 590.316 642.45 568.43 642.429C540.296 643.04 512.15 642.577 484.052 641.041C467.551 640.141 451.11 638.34 434.526 637.771C430.131 638.097 422.965 637.92 418.568 637.601C400.744 636.308 372.382 637.264 361.856 620.279C365.248 609.487 369.51 595.265 368.673 583.696L369.971 582.166C374.487 582.143 392.74 588.125 398.629 589.639C417.236 594.42 457.869 591.829 475.832 585.134C490.141 581.869 503.167 578.836 517.857 578.065C552.737 576.237 588.544 583.855 623.249 582.352C644.11 581.447 664.987 572.807 686.881 571.259Z" fill="#C55B2B"/>
<path d="M368.673 583.696C371.226 589.767 375.051 588.738 379.984 593.151C384.101 596.834 391.203 609.712 396.369 611.083C410.375 614.797 432.43 615.401 446.553 611.576C453.965 609.569 445.029 598.079 450.665 595.432C464.045 590.196 477.02 602.859 486.908 609.06C500.835 617.793 514.632 623.601 530.559 626.993C546.066 630.576 562.09 613.585 573.899 629.206C576.341 632.435 570.271 639.852 568.43 642.429C540.296 643.04 512.15 642.577 484.052 641.042C467.551 640.142 451.11 638.341 434.526 637.772C430.131 638.098 422.965 637.921 418.568 637.602C400.744 636.309 372.382 637.264 361.856 620.28C365.248 609.488 369.51 595.265 368.673 583.696Z" fill="#9B2F30"/>
<path d="M434.525 637.772C436.499 633.393 442.821 632.152 446.424 629.823C455.744 623.798 481.268 629.685 484.051 641.042C467.551 640.142 451.11 638.341 434.525 637.772Z" fill="#C55B2B"/>
<path d="M475.832 585.134C490.141 581.869 503.167 578.836 517.857 578.065C552.737 576.237 588.544 583.855 623.249 582.352C644.11 581.447 664.987 572.807 686.881 571.259C682.636 584.922 664.671 588.703 654.965 595.149L650.435 596.726C630.09 592.701 607.163 620.652 584.946 616.96C571.603 614.741 570.055 599.47 559.493 594.788C543.524 587.706 521.518 588.061 504.139 588.632C496.21 588.892 488.236 590.065 480.327 589.092C477.879 588.801 477.285 587.115 475.832 585.134Z" fill="#9B2F30"/>
<path d="M715.924 578.74C728.581 585.784 739.058 588.903 753.194 591.575C759.172 608.915 770.697 620.662 744.173 626.798C721.84 631.965 698.174 632.902 675.487 635.999C669.37 636.716 649.688 638.811 644.303 638.603C654.988 614.285 704.776 620.884 715.384 610.654C724.066 602.279 710.962 593.721 711.771 584.716C712.033 581.808 713.79 580.505 715.924 578.74Z" fill="#9B2F30"/>
<path d="M654.965 595.149C657.838 596.472 658.038 596.488 660.072 598.812C661.852 606.262 648.332 611.053 642.593 608.606C639.619 603.93 645.212 599.632 648.979 597.509C649.457 597.24 649.95 596.978 650.435 596.726L654.965 595.149Z" fill="white"/>
<path d="M509.203 591.28C516.81 591.035 525.505 598.562 520.991 607.005C512.477 607.283 503.293 600.3 509.203 591.28Z" fill="white"/>
<path d="M594.376 620.758C597.904 620.534 600.569 620.864 602.634 623.979C603.759 629.279 600.677 631.371 596.432 633.72C593.243 633.904 591.61 633.349 589.245 631.403C587.173 626.019 590.4 623.825 594.376 620.758Z" fill="white"/>
<path d="M416.105 593.376C418.738 593.912 419.887 595.145 420.913 597.483C420.743 603.113 416.426 604.571 411.774 605.565C407.894 604.415 405.738 603.134 406.127 598.838C409.203 594.361 410.862 594.425 416.105 593.376Z" fill="white"/>
<path d="M692.404 582.945C695.193 582.988 696.341 582.897 697.196 585.765C696.349 588.96 695.609 589.404 693.298 591.96C690.186 591.773 688.922 591.716 688.059 588.551C689.038 585.413 689.747 585.171 692.404 582.945Z" fill="white"/>
<path d="M686.526 364.354C691.503 366.965 696.002 369.186 700.616 372.45C714.945 381.07 722.41 385.235 717.125 403.904C713.805 413.828 707.426 417.858 699.461 424.105C694.345 428.114 689.215 431.812 684.893 436.728C674.755 448.272 671.412 466.772 656.328 473.564C638.995 483.848 623.426 446.249 610.353 437.721C596.455 428.654 588.104 426.202 572.427 421.162C548.847 419.443 543.816 417.309 518.729 420.793C508.19 424.073 500.519 426.552 491.941 434.076C483.504 441.259 477.433 447.478 466.606 450.474C465.406 449.794 462.121 447.816 460.973 447.453C450.651 441.034 448.662 421.894 436.222 411.14C421.149 398.11 409.505 403.177 391.387 404.108L390.626 402.644C390.554 396.335 395.167 388.811 398.941 383.959C403.882 378.56 406.787 376.327 413.151 372.832C421.76 376.236 430.881 378.949 439.766 381.532C456.482 386.265 468.134 388.487 485.44 385.188C507.899 397.768 546.127 391.166 571.68 391.486C603.281 391.881 639.596 397.684 668.6 382.86C676.727 378.706 681.588 371.749 686.526 364.354Z" fill="#F03946"/>
<path d="M686.526 364.354C691.503 366.965 696.002 369.186 700.616 372.45C682.728 389.554 676.851 398.379 647.715 398.497C641.553 398.522 630.706 397.34 624.951 397.628C591.987 399.273 559.224 398.706 526.237 399.159C517.74 399.276 503.286 396.358 494.028 395.783C483.125 395.105 470.778 395.802 460.357 393.897C454.718 392.867 444.928 387.862 439.028 385.699L439.766 381.532C456.482 386.265 468.134 388.487 485.44 385.188C507.899 397.768 546.127 391.166 571.68 391.486C603.281 391.881 639.596 397.684 668.6 382.86C676.727 378.706 681.588 371.749 686.526 364.354Z" fill="#9B2F30"/>
<path d="M661.189 462.266C646.568 472.799 631.183 457.404 636.491 449.191C642.354 445.742 648.979 454.176 653.786 452.223C661.405 449.124 664.394 432.496 669.417 425.964C677.944 414.877 691.418 412.77 698.282 400.951C701.456 395.478 698.613 389.49 696.703 384.275L697.558 383.725C702.188 385.163 705.115 391.629 704.329 396.28C702.835 405.198 696.98 411.004 690.324 416.437C696.888 415.727 711.324 407.689 717.125 403.905C713.805 413.829 707.426 417.859 699.461 424.106C694.346 428.115 689.215 431.812 684.893 436.728C674.755 448.273 671.412 466.772 656.328 473.565C657.021 468.229 659.972 467.97 661.189 462.266Z" fill="url(#paint0_linear_490_692)"/>
<path d="M690.324 416.437C696.888 415.727 711.324 407.689 717.125 403.905C713.805 413.829 707.426 417.859 699.461 424.106C694.346 428.115 689.215 431.812 684.893 436.728C674.755 448.272 671.412 466.772 656.328 473.564C657.022 468.228 659.972 467.97 661.189 462.266C676.45 445.318 663.392 433.939 690.324 416.437Z" fill="#9B2F30"/>
<path d="M521.458 414.161C536.536 405.453 551.243 406.766 565.394 415.763C568.06 417.459 570.109 419.673 572.428 421.162C548.847 419.443 543.816 417.309 518.729 420.793C519.28 418.796 520.568 416.08 521.458 414.161Z" fill="#9B2F30"/>
<path d="M413.151 372.832C421.76 376.237 430.882 378.949 439.766 381.533L439.028 385.699C419.983 381.835 415.031 385.394 398.942 383.96C403.882 378.561 406.787 376.328 413.151 372.832Z" fill="#9B2F30"/>
<path d="M484.356 435.67C487.395 435.838 489.059 435.035 491.941 434.076C483.504 441.259 477.433 447.478 466.606 450.474C465.406 449.794 462.121 447.816 460.974 447.453C470.572 443.717 475.433 440.687 484.356 435.67Z" fill="#9B2F30"/>
<path d="M484.356 435.67C490.999 428.683 511.119 420.13 518.958 415.599L521.458 414.161C520.568 416.08 519.28 418.796 518.729 420.792C508.19 424.073 500.519 426.551 491.942 434.076C489.059 435.034 487.395 435.838 484.356 435.67Z" fill="#D1272F"/>
<path d="M416.501 387.536C443.449 385.246 451.502 411.78 470.73 418.307C478.002 420.775 497.975 403.081 509.243 405.771C512.805 406.622 518.215 407.606 520.371 410.661C516.936 414.158 512.583 411.541 508.234 412.498C506.42 412.897 503.61 414.522 501.933 415.461C492.868 420.972 480.723 432.729 469.964 431.133C444.207 427.312 443.212 383.405 411.099 393.031C408.302 393.87 404.776 395.634 401.847 395.371L401.642 394.092C404.84 390.686 412.042 388.836 416.501 387.536Z" fill="url(#paint1_linear_490_692)"/>
<path d="M570.04 410.809C584.784 409.024 611.285 421.808 617.063 435.406C609.159 435.254 593.551 419.904 584.63 417.423C582.165 416.735 571.388 412.614 570.04 410.809Z" fill="white"/>
<path d="M495.444 348.203C502.572 326.126 512.63 306.55 534.233 295.746C568.329 278.695 607.934 289.809 636.137 312.972C648.162 322.852 665.334 335.839 667.344 352.258C661.859 379.855 596.124 369.528 576.041 369.429C569.284 369.396 557.028 370.125 550.988 369.475L540.427 369.747C530.181 371.771 514.945 371.698 504.599 370.384C491.062 368.665 493.562 358.344 495.444 348.203Z" fill="#F03946"/>
<path d="M550.989 369.474C552.876 368.439 564.639 368.114 567.698 367.809C578.098 366.774 591.856 363.726 602.056 363.62C622.686 363.406 640.566 369.693 659.479 357.155C662.352 355.251 664.186 354.888 667.344 352.257C661.859 379.854 596.124 369.528 576.041 369.428C569.285 369.395 557.028 370.124 550.989 369.474Z" fill="#9B2F30"/>
<path d="M495.444 348.202C503.671 360.557 526.044 370.107 540.427 369.746C530.181 371.771 514.945 371.697 504.599 370.384C491.062 368.664 493.562 358.343 495.444 348.202Z" fill="#9B2F30"/>
<path d="M507.446 341.744L506.25 341.162C505.817 339.473 505.545 339.769 506.633 338.155C512.704 329.153 530.751 339.972 522.516 348.62C521.342 351.536 519.05 354.062 516.485 355.846C508.927 356.864 508.41 346.615 507.446 341.744Z" fill="#9B2F30"/>
<path d="M507.446 341.744L506.25 341.162C505.817 339.473 505.545 339.769 506.633 338.155C512.704 329.153 530.751 339.972 522.516 348.62C519.765 344.855 519.514 341.934 514.714 339.927C511.235 339.747 510.747 340.226 507.446 341.744Z" fill="white"/>
<path d="M557.067 303.987C555.387 301.933 555.842 302.884 555.772 299.85C559.871 290.631 573.067 294.55 574.693 304.219L573.907 305.487L572.135 305.359C565.78 315.225 561.851 313.378 557.067 303.987Z" fill="#9B2F30"/>
<path d="M557.067 303.987C555.387 301.933 555.842 302.884 555.772 299.85C559.871 290.631 573.067 294.55 574.693 304.219L573.907 305.487L572.135 305.359C568.769 301.738 567.143 300.594 563.114 297.661C561.15 299.535 558.962 301.982 557.067 303.987Z" fill="white"/>
<path d="M538.901 324.057L536.845 323.148C537.076 317.273 548.485 316.786 553.122 320.867C554.024 322.566 554.301 325.877 553.13 327.485C550.341 331.53 547.337 337.767 541.813 336.026C537.592 331.446 539.048 329.897 538.901 324.057Z" fill="#9B2F30"/>
<path d="M538.901 324.057L536.845 323.148C537.076 317.273 548.485 316.786 553.122 320.867C554.024 322.566 554.301 325.877 553.13 327.485C547.845 323.368 545.326 320.209 538.901 324.057Z" fill="white"/>
<path d="M610.114 350.912C607.14 350.189 607.903 350.842 606.462 348.772C613.057 336.602 629.897 341.427 623.742 352.812L624.751 353.464C624.265 355.63 623.441 356.507 621.585 357.857C616.485 361.572 612.071 353.635 610.114 350.912Z" fill="#9B2F30"/>
<path d="M610.114 350.912C607.14 350.189 607.903 350.842 606.462 348.772C613.057 336.602 629.897 341.427 623.742 352.812C620.529 350.077 619.143 347.083 615.26 346.534C612.448 347.422 612.048 348.447 610.114 350.912Z" fill="white"/>
<path d="M570.04 346.081L569.4 344.592C573.275 339.356 581.803 340.739 585.308 346.27L585.185 347.586L583.036 348.338C582.25 353.392 581.949 356.254 576.973 358.512C568.946 358.371 569.423 352.118 570.04 346.081Z" fill="#9B2F30"/>
<path d="M570.04 346.081L569.4 344.592C573.275 339.356 581.803 340.739 585.308 346.27L585.185 347.586L583.036 348.338C577.381 345.832 575.91 345.438 570.04 346.081Z" fill="white"/>
<path d="M590.955 314.502L589.63 312.978C591.248 306.438 600.623 306.717 604.768 311.375C605.345 313.565 605.569 316.1 603.928 317.906C597.472 326.689 593.282 323.372 590.955 314.502Z" fill="#9B2F30"/>
<path d="M590.955 314.502L589.63 312.978C591.248 306.438 600.623 306.717 604.768 311.375C605.345 313.565 605.569 316.1 603.928 317.906C601.571 315.212 600.377 312.95 597.056 311.876C594.044 311.932 593.559 312.639 590.955 314.502Z" fill="white"/>
<path d="M634.042 337.486L632.917 336.794C635.39 329.718 647.608 332.333 643.864 341.002C644.372 341.427 644.048 341.082 644.195 342.379L642.77 344.078C639.827 345.156 641.075 345.011 637.862 344.238C635.413 342.455 635.097 340.425 634.042 337.486Z" fill="white"/>
<path d="M634.042 337.485C639.103 337.989 639.588 338.818 643.864 341.002C644.372 341.427 644.049 341.082 644.195 342.378L642.77 344.077C639.827 345.155 641.075 345.011 637.863 344.238C635.413 342.455 635.097 340.424 634.042 337.485Z" fill="#9B2F30"/>
<path d="M430.597 348.132C431.641 347.451 432.707 346.803 433.791 346.188C451.152 336.349 458.282 331.79 477.431 337.015C476.309 340.499 475.493 343.978 474.614 347.528C473.895 353.593 472.877 360.332 473.046 366.379C465.252 365.83 429.074 358.397 424.238 354.07C424.965 351.631 428.394 349.426 430.597 348.132Z" fill="#03673B"/>
<path d="M430.597 348.132C431.641 347.451 432.707 346.803 433.792 346.188C451.152 336.349 458.282 331.79 477.431 337.015C476.309 340.499 475.493 343.978 474.614 347.528C468.21 348.519 434.842 349.794 430.597 348.132Z" fill="#138542"/>
<path d="M484.79 318.618C482.514 312.348 476.25 277.548 476.54 271.251L477.64 270.376C480.377 270.653 481.52 271.867 483.796 273.547C491.414 278.72 498.318 284.855 505.114 291.049C500.727 295.273 498.689 297.709 494.881 302.516C491.62 307.358 487.932 313.591 484.79 318.618Z" fill="#03673B"/>
<path d="M483.797 273.548C491.415 278.72 498.319 284.855 505.114 291.05C500.728 295.273 498.689 297.709 494.881 302.517C492.795 299.253 483.074 276.487 483.797 273.548Z" fill="#138542"/>
<path d="M527.777 161.272C581.734 159.093 636.491 169.884 682.952 198.141C739.404 232.362 780.033 287.53 795.972 351.605C810.108 410.072 800.417 467.509 769.279 518.652C762.839 487.596 754.449 456.975 744.165 426.969C744.781 425.752 745.382 424.527 745.968 423.293C753.155 408.025 754.211 389.285 748.633 374.134C740.36 351.642 717.202 344.189 698.852 332.48C694.245 329.538 687.936 316.024 683.414 311.101C640.42 264.313 586.803 239.554 523.818 263.044C516.87 256.449 511.446 251.875 503.758 246.282C486.929 234.711 462.52 227.095 449.219 248.021C439.371 263.515 443.98 285.233 447.797 302.144C434.23 308.369 421.999 313.445 409.46 321.856C394.62 331.812 390.22 347.193 376.493 358.945C365.338 368.494 355.527 390.465 356.688 405.062C357.303 412.788 360.051 419.347 364.572 425.985C361.697 441.067 357.182 456.606 354.022 471.745C348.021 500.492 341.794 531.677 338.592 560.804C328.673 548.99 319.014 539.416 310.31 526.172C290.089 495.404 281.001 451.065 279.591 414.825C277.001 348.336 297.39 283.398 342.526 233.913C390.384 181.443 458.519 163.561 527.777 161.272Z" fill="#FFF7E6"/>
<path fill-rule="evenodd" clip-rule="evenodd" d="M489.274 704.319C489.567 704.271 489.865 704.273 490.163 704.275C490.287 704.275 490.412 704.276 490.536 704.273C516.793 703.659 546.628 720.856 547.19 749.929C547.406 761.039 538.892 770.657 530.455 780.187C523.497 788.046 516.592 795.846 514.678 804.376C512.561 813.809 528.092 821.666 537.753 821.937C540.721 822.02 541.052 818.313 541.388 814.558C541.566 812.573 541.745 810.575 542.314 809.115C546.344 798.776 552.291 788.681 562.968 784.11C568.453 781.762 578.1 780.569 583.59 782.977C586.32 784.175 588.404 786.474 589.345 789.311C591.156 794.773 586.335 804.229 581.463 813.783C576.02 824.457 570.515 835.255 574.13 840.738C578.748 847.741 584.082 852.424 588.464 856.27C597.988 864.631 603.007 869.036 586.356 884.729C575.59 894.875 566.948 891.589 556.498 887.615C550.619 885.38 544.167 882.927 536.444 882.525C525.81 881.972 517.962 886.695 509.88 891.558C502.572 895.955 495.073 900.467 485.154 901.296C463.354 903.118 438.667 894.022 438.192 868.594C437.947 855.468 447.046 843.164 456.009 831.046C462.478 822.298 468.876 813.647 471.636 804.853C473.784 798.013 468.362 790.505 463.111 783.235C460.207 779.214 457.356 775.266 455.865 771.542C443.025 739.464 452.168 710.508 489.274 704.319ZM511.657 860.876C511.767 860.82 511.794 860.679 511.718 860.581L493.613 837.303C493.534 837.201 493.382 837.198 493.303 837.3C491.755 839.292 479.244 855.868 485.569 863.398C491.776 870.787 509.539 861.966 511.657 860.876ZM498.717 787.142C493.139 789.001 485.569 763.476 485.569 752.958C485.569 744.245 495.719 737.891 498.717 737.181C501.714 736.471 504.389 736.577 506.605 737.181C511.151 738.421 512.506 742.185 514.066 746.521C514.206 746.91 514.348 747.303 514.493 747.699C516.264 752.519 514.494 763.476 514.494 763.476C513.116 774.498 506.605 784.513 498.717 787.142Z" fill="#3E0D2C"/>
<path d="M332.848 708.164C354.193 706.7 355.341 725.478 354.757 741.167C354.197 753.912 354.28 768.483 351.988 781.074C347.01 808.436 351.146 830.297 355.151 857.412C365.729 849.799 378.804 840.584 391.933 842.256C415.937 845.322 413.159 870.504 401.176 884.759C394.258 892.997 389.949 897.173 381.753 903.569C342.275 933.096 310.316 918.841 304.202 870.265C300.205 838.511 292.658 719.491 332.848 708.164Z" fill="#3E0D2C"/>
<path d="M745.914 703.457C778.046 702.178 775.596 740.358 774.564 761.687C771.359 827.716 742.94 931.787 654.68 885.8C638.656 876.099 626.792 853.56 636.545 835.999C651.752 808.645 684.516 853.09 705.408 844.845C723.573 836.963 721.563 816.697 722.98 800.107C725.384 771.99 723.165 739.989 733.673 713.397C735.992 707.533 740.444 705.221 745.914 703.457Z" fill="#3E0D2C"/>
<path d="M292.568 636.567C324.116 635.163 306.042 664.869 279.555 667.717C268.466 667.516 255.718 661.587 265.477 648.816C271.645 640.744 282.952 638.012 292.568 636.567Z" fill="#3E0D2C"/>
<path d="M757.492 655.085C763.717 654.744 789.501 653.316 781.689 668.958C779.163 674.013 766.814 677.149 760.959 678.07C724.166 678.863 720.777 658.428 757.492 655.085Z" fill="#3E0D2C"/>
<path d="M323.586 648.787C340.048 648.121 374.524 657.504 342.576 670.907C315.406 679.381 300.998 654.609 323.586 648.787Z" fill="#3E0D2C"/>
<path d="M793.538 633.342C794.123 633.307 794.701 633.283 795.287 633.267C802.389 633.098 818.328 636.136 818.359 644.987C816.179 649.041 812.874 649.652 808.568 651.155C787.221 655.847 773.262 640.015 793.538 633.342Z" fill="#3E0D2C"/>
<path d="M316.059 616.73C326.502 616.462 326.238 626.787 320.247 633.432C310.055 633.166 309.981 623.237 316.059 616.73Z" fill="#3E0D2C"/>
<path d="M570.664 675.095C572.921 674.277 575.44 674.765 577.235 676.366C579.022 677.966 579.792 680.424 579.23 682.758C578.668 685.093 576.873 686.935 574.554 687.544C571.18 688.437 567.698 686.519 566.658 683.182C565.61 679.846 567.374 676.286 570.664 675.095Z" fill="#3E0D2C"/>
<path d="M796.689 659.153C800.063 658.278 803.514 660.287 804.416 663.654C805.317 667.021 803.337 670.485 799.978 671.415C796.581 672.356 793.068 670.347 792.159 666.941C791.242 663.535 793.284 660.037 796.689 659.153Z" fill="#3E0D2C"/>
<path d="M587.912 677.547C588.967 676.688 590.408 676.49 591.648 677.033C592.896 677.577 593.728 678.77 593.813 680.123C593.898 681.48 593.22 682.766 592.049 683.46C590.423 684.431 588.32 683.976 587.234 682.427C586.156 680.871 586.448 678.744 587.912 677.547Z" fill="#3E0D2C"/>
<defs>
<linearGradient id="paint0_linear_490_692" x1="673.369" y1="383.174" x2="664.918" y2="465.435" gradientUnits="userSpaceOnUse">
<stop stop-color="#FFEBF3"/>
<stop offset="1" stop-color="white"/>
</linearGradient>
<linearGradient id="paint1_linear_490_692" x1="454.812" y1="380.645" x2="465.342" y2="430.935" gradientUnits="userSpaceOnUse">
<stop stop-color="#FFE7F3"/>
<stop offset="1" stop-color="white"/>
</linearGradient>
</defs>
</svg>
