<svg width="200" height="200" viewBox="0 0 200 200" fill="none" xmlns="http://www.w3.org/2000/svg">
<path d="M81.4384 24.4463C85.9596 23.753 92.5338 29.0025 95.1599 32.4375C109.258 24.7987 124.151 31.5962 134.087 42.3663C135.782 44.2034 136.889 46.2523 137.868 48.5177C145.987 52.5725 153.682 55.639 151.062 66.2856C150.667 67.8898 149.997 68.902 149.054 70.2221C150.227 72.6147 151.224 76.2517 151.991 78.8196C155.236 89.6595 156.942 100.927 160.344 111.72C161.07 114.026 162.221 116.389 162.476 118.803C162.93 123.121 159.383 126.088 155.638 127.311C152.262 128.426 148.753 128.732 145.258 129.165C140.167 129.809 135.064 130.356 129.952 130.804C126.994 131.179 122.594 131.385 119.551 131.563C109.479 132.111 99.3874 132.196 89.3079 131.816C84.7101 131.621 80.1877 131.213 75.5999 130.927C70.3589 130.659 65.7619 130.838 60.5155 130.044C55.6118 129.303 48.9411 126.687 48.6759 120.747C48.5935 118.907 49.8976 116.306 50.1333 114.256C51.0996 105.848 52.2321 97.4428 53.8152 89.126C55.0477 82.4352 56.9918 76.0187 58.0989 69.3697C53.7422 64.9375 56.7169 59.3651 60.128 55.3039C61.1944 54.0342 62.6407 53.1124 64.0179 52.1985C64.1954 46.4226 75.0175 42.0393 79.843 41.2936C79.3347 38.4981 78.8332 35.6247 78.4629 32.8068C78.0011 29.2925 77.9419 26.31 81.4384 24.4463Z" fill="#3E0D2C"/>
<path d="M63.2199 70.366C70.7571 68.5733 70.4317 71.8634 73.4749 77.3671C75.0294 80.1781 78.6579 82.4239 81.8888 82.0685C87.3897 81.4986 90.5346 75.6582 95.88 74.4984C101.451 73.2891 108.827 74.418 113.87 77.1325C119.365 80.634 121.794 90.2786 130.32 88.6533C133.694 87.948 136.721 84.8508 138.46 81.942C140.731 78.0597 141.014 76.7212 144.897 74.0117C148.907 86.1825 151.038 97.4051 154.199 109.733C151.531 109.2 148.821 108.095 146.47 106.738C139.648 103.387 134.923 104.858 127.856 106.512C123.625 107.487 122.117 107.689 117.71 107.6C115.29 107.565 112.727 107.333 110.299 107.155L100.506 106.425C94.0459 106.301 91.0952 106.431 84.7993 107.917C81.9987 108.624 79.4591 109.112 76.6294 109.645C73.663 110.018 71.4073 110.022 68.4098 109.996C64.1514 109.854 60.5865 108.583 56.541 107.389C55.6378 105.738 60.6646 82.2378 61.4907 78.982C62.1278 76.3235 62.9504 73.0853 63.2199 70.366Z" fill="#FCBC6C"/>
<path d="M84.7993 107.917C84.7381 107.786 84.6631 107.634 84.6437 107.489C84.55 106.785 85.553 103.435 85.7378 102.412C86.7223 96.964 88.2848 82.3646 91.2365 78.256C92.5805 76.3854 94.8138 75.1346 97.0843 74.8097C98.6177 74.5903 100.073 74.9635 101.292 75.9276C104.49 78.457 105.389 83.6748 105.812 87.4825C106.406 92.8338 106.448 97.6136 104.209 102.62C103.704 103.747 103.076 105.036 102.239 105.954C101.74 106.501 101.184 106.394 100.506 106.425C94.0459 106.301 91.0951 106.431 84.7993 107.917Z" fill="#FFF7E6"/>
<path d="M100.554 79.9377C103.375 81.0148 103.238 91.0832 102.751 93.8787C102.361 96.1125 100.811 97.3026 99.0844 98.4395C98.2389 98.5827 98.0096 98.5302 97.4054 97.9081C96.7713 95.7722 98.7594 93.33 99.5849 91.1967C101.007 87.5302 98.869 83.191 100.554 79.9377Z" fill="white"/>
<path d="M94.5304 79.1758C95.3749 79.2873 95.6367 79.5003 95.9797 80.249C95.7663 81.42 94.9972 81.4405 94.2601 82.5092C93.2736 83.939 93.8154 85.2097 92.4322 86.2074C91.3261 85.6637 90.5151 85.3878 90.812 83.9456C91.1909 82.1053 93.0423 80.1864 94.5304 79.1758Z" fill="#FCBC6C"/>
<path d="M96.4143 83.5093C97.2159 83.8567 97.4612 84.0659 97.6267 84.9347C97.3695 85.8791 97.5529 85.5225 96.8152 86.283C95.9797 86.0196 95.7862 85.9131 95.5569 85.0504C95.7005 84.274 95.8919 84.1477 96.4143 83.5093Z" fill="#FCBC6C"/>
<path d="M97.3934 100.329C98.1392 100.561 98.2867 100.672 98.532 101.383C98.4064 102.071 98.0714 102.35 97.6048 102.898C96.7812 102.669 96.5779 102.574 96.4363 101.702C96.6895 100.916 96.7533 100.897 97.3934 100.329Z" fill="white"/>
<path d="M127.856 106.512C127.439 106.367 127.306 106.429 127.21 106.1C126.665 103.859 125.884 98.6978 127.006 96.6219C129.317 92.3477 134.147 87.0787 138.376 84.8233C141.666 83.0681 143.942 86.2855 144.721 89.0237C145.595 92.0878 147.403 104.176 146.47 106.738C139.648 103.387 134.923 104.858 127.856 106.512Z" fill="#FFF7E6"/>
<path d="M129.68 94.3999C130.029 94.5062 130.215 94.588 130.554 94.726C131.178 95.7757 129.768 99.3955 129.621 100.736C129.525 101.612 129.411 102.605 129.242 103.463C127.186 102.997 128.775 95.6724 129.68 94.3999Z" fill="white"/>
<path d="M137.758 87.3633C140.44 87.8077 139.69 90.0247 137.704 91.1788C136.887 91.005 136.45 90.7757 135.993 90.1201C135.74 88.5911 136.44 88.0614 137.758 87.3633Z" fill="#FCBC6C"/>
<path d="M135.357 93.7695C136.492 93.882 137.002 93.954 137.317 95.0702C137.154 95.9242 136.915 96.1432 136.406 96.8417C134.697 96.3703 134.147 95.1748 135.357 93.7695Z" fill="white"/>
<path d="M132.915 97.7205C133.293 97.52 133.76 97.6359 134.001 97.9895C134.243 98.3432 134.181 98.8216 133.856 99.1005C133.611 99.3105 133.268 99.3621 132.972 99.2331C132.675 99.1039 132.48 98.8171 132.468 98.4948C132.456 98.1724 132.629 97.8717 132.915 97.7205Z" fill="white"/>
<path d="M110.299 107.155C109.114 101.854 108.939 96.7609 108.979 91.3095C108.992 89.6176 108.747 78.9492 111.587 79.0691C116.157 79.2622 117.682 86.9109 117.531 90.4168C117.571 96.5782 116.442 101.768 117.71 107.6C115.29 107.565 112.727 107.333 110.299 107.155Z" fill="#FFF7E6"/>
<path d="M111.286 93.8467C111.826 93.9622 111.824 93.9265 112.255 94.2553C112.484 95.0593 112.542 103.475 112.299 104.127C110.544 102.46 110.865 96.0899 111.286 93.8467Z" fill="white"/>
<path d="M111.29 84.1196C113.118 84.6847 112.847 86.08 112.233 87.5555C111.976 87.6134 111.73 87.6146 111.463 87.6333L111.15 87.3268C110.781 86.3427 110.929 85.0852 111.29 84.1196Z" fill="#FCBC6C"/>
<path d="M68.4097 109.996C68.4418 109.218 70.8575 105.422 71.2063 103.927C74.0431 91.7716 69.7925 90.2564 83.4702 87.5754C82.5823 91.8538 82.757 95.6791 81.1759 100.139C79.7316 104.214 76.8164 105.618 76.6294 109.645C73.6629 110.018 71.4073 110.022 68.4097 109.996Z" fill="#FFF7E6"/>
<path d="M80.8834 90.5217C83.1253 91.7523 79.4116 99.7708 78.4824 101.296L78.1656 101.244L78.0533 100.901C78.5154 99.1834 80.3046 91.4266 80.8834 90.5217Z" fill="white"/>
<path d="M76.8723 92.1074C77.6486 92.5205 77.6607 92.7179 77.6374 93.5197C77.2605 94.2932 77.1493 94.3169 76.4188 94.8351C74.8358 94.1927 76.1688 92.8296 76.8723 92.1074Z" fill="#FCBC6C"/>
<path d="M61.4907 78.9819C70.0239 87.0178 60.4044 98.8999 57.2058 107.088C57.1209 107.305 56.7476 107.336 56.541 107.389C55.6378 105.738 60.6646 82.2377 61.4907 78.9819Z" fill="#FFF7E6"/>
<path d="M61.7819 84.1223C62.3352 84.1774 62.9549 84.1756 63.0602 84.8714C63.5037 87.8059 62.2449 91.128 60.9583 93.6911L60.5213 93.862L60.3448 93.4689C60.471 91.6549 60.9466 85.4066 61.7819 84.1223Z" fill="white"/>
<path d="M138.005 108.095C141.477 108.116 142.38 108.555 145.523 110.032C148.799 111.855 151.511 112.662 155.17 113.354C156.717 117.842 159.7 120.883 152.835 122.471C147.054 123.808 140.929 124.051 135.056 124.852C133.473 125.038 128.378 125.58 126.984 125.526C121.331 126.155 113.01 126.522 107.345 126.517C100.063 126.675 92.7781 126.555 85.5052 126.158C81.2342 125.925 76.9786 125.458 72.6859 125.311C71.5483 125.396 69.6935 125.35 68.5553 125.267C63.9418 124.933 56.6006 125.18 53.876 120.784C54.754 117.99 55.8573 114.309 55.6405 111.314L55.9765 110.918C57.1456 110.912 61.87 112.461 63.3944 112.853C68.2108 114.09 78.728 113.42 83.3776 111.687C87.0815 110.841 90.4529 110.056 94.2553 109.857C103.284 109.384 112.552 111.356 121.535 110.966C126.935 110.732 132.338 108.496 138.005 108.095Z" fill="#C55B2B"/>
<path d="M55.6405 111.314C56.3015 112.886 57.2916 112.619 58.5683 113.762C59.6339 114.715 61.4724 118.048 62.8096 118.403C66.4347 119.364 72.1435 119.521 75.7991 118.531C77.7176 118.011 75.4045 115.037 76.8633 114.352C80.3267 112.997 83.685 116.275 86.2445 117.88C89.8493 120.14 93.4206 121.643 97.543 122.521C101.557 123.449 105.704 119.051 108.761 123.094C109.393 123.93 107.822 125.85 107.346 126.517C100.063 126.675 92.7781 126.555 85.5052 126.158C81.2342 125.925 76.9786 125.459 72.6859 125.311C71.5483 125.396 69.6935 125.35 68.5553 125.267C63.9418 124.933 56.6006 125.18 53.876 120.784C54.754 117.99 55.8573 114.309 55.6405 111.314Z" fill="#9B2F30"/>
<path d="M72.6859 125.311C73.1967 124.178 74.8332 123.857 75.7656 123.254C78.1779 121.694 84.7847 123.218 85.5051 126.158C81.2342 125.925 76.9785 125.459 72.6859 125.311Z" fill="#C55B2B"/>
<path d="M83.3775 111.687C87.0814 110.841 90.4529 110.056 94.2552 109.857C103.284 109.384 112.552 111.356 121.535 110.966C126.935 110.732 132.338 108.496 138.005 108.095C136.907 111.632 132.257 112.611 129.744 114.279L128.572 114.687C123.305 113.645 117.371 120.88 111.621 119.924C108.167 119.35 107.766 115.397 105.032 114.186C100.899 112.352 95.2029 112.444 90.7047 112.592C88.6522 112.659 86.5883 112.963 84.541 112.711C83.9075 112.636 83.7536 112.199 83.3775 111.687Z" fill="#9B2F30"/>
<path d="M145.523 110.032C148.799 111.855 151.511 112.662 155.17 113.354C156.717 117.842 159.7 120.883 152.835 122.471C147.054 123.808 140.929 124.051 135.056 124.852C133.473 125.038 128.378 125.58 126.984 125.527C129.75 119.232 142.637 120.94 145.383 118.292C147.63 116.124 144.239 113.909 144.448 111.578C144.516 110.826 144.97 110.488 145.523 110.032Z" fill="#9B2F30"/>
<path d="M129.744 114.279C130.488 114.622 130.54 114.626 131.066 115.227C131.527 117.156 128.027 118.396 126.542 117.762C125.772 116.552 127.22 115.439 128.195 114.89C128.318 114.82 128.446 114.753 128.572 114.687L129.744 114.279Z" fill="white"/>
<path d="M92.0153 113.277C93.9844 113.214 96.2349 115.162 95.0664 117.348C92.8628 117.42 90.4855 115.612 92.0153 113.277Z" fill="white"/>
<path d="M114.061 120.907C114.975 120.85 115.665 120.935 116.199 121.741C116.49 123.113 115.692 123.655 114.594 124.263C113.768 124.31 113.345 124.167 112.733 123.663C112.197 122.269 113.032 121.702 114.061 120.907Z" fill="white"/>
<path d="M67.918 113.82C68.5996 113.959 68.8969 114.278 69.1625 114.883C69.1184 116.34 68.001 116.717 66.797 116.975C65.7926 116.677 65.2345 116.346 65.3352 115.234C66.1314 114.075 66.5609 114.091 67.918 113.82Z" fill="white"/>
<path d="M139.435 111.12C140.157 111.131 140.454 111.108 140.675 111.85C140.456 112.677 140.265 112.792 139.666 113.453C138.861 113.405 138.534 113.39 138.31 112.571C138.564 111.759 138.747 111.696 139.435 111.12Z" fill="white"/>
<path d="M137.914 54.54C139.202 55.2158 140.366 55.7908 141.561 56.6355C145.269 58.8667 147.202 59.9449 145.834 64.7772C144.974 67.3459 143.323 68.389 141.262 70.0059C139.937 71.0437 138.609 72.0006 137.491 73.2731C134.867 76.2613 134.001 81.0496 130.097 82.8078C125.611 85.4698 121.581 75.7377 118.197 73.5302C114.6 71.1833 112.438 70.5486 108.38 69.244C102.277 68.7993 100.975 68.2468 94.4811 69.1485C91.7531 69.9976 89.7675 70.6392 87.5474 72.5868C85.3635 74.4461 83.792 76.0558 80.9895 76.8311C80.679 76.6552 79.8286 76.1432 79.5316 76.0493C76.8597 74.3877 76.345 69.4335 73.1251 66.65C69.2234 63.2773 66.2095 64.5889 61.52 64.8298L61.323 64.4509C61.3044 62.818 62.4982 60.8704 63.4753 59.6146C64.754 58.2171 65.506 57.6391 67.1532 56.7344C69.3815 57.6156 71.7426 58.3176 74.0423 58.9864C78.3691 60.2114 81.3851 60.7866 85.8646 59.9326C91.6777 63.1888 101.573 61.4801 108.187 61.5629C116.366 61.665 125.766 63.167 133.273 59.33C135.377 58.2548 136.635 56.4542 137.914 54.54Z" fill="#F03946"/>
<path d="M137.914 54.54C139.202 55.2158 140.366 55.7908 141.561 56.6355C136.931 61.0628 135.409 63.3469 127.868 63.3776C126.273 63.384 123.465 63.0781 121.975 63.1525C113.443 63.5783 104.963 63.4315 96.4243 63.549C94.2251 63.5791 90.4837 62.8238 88.0875 62.675C85.2654 62.4997 82.0694 62.68 79.3721 62.1869C77.9125 61.9203 75.3783 60.6247 73.8513 60.0648L74.0423 58.9864C78.3691 60.2114 81.3851 60.7866 85.8646 59.9326C91.6777 63.1888 101.573 61.4801 108.187 61.5629C116.366 61.665 125.766 63.167 133.274 59.33C135.377 58.2548 136.635 56.4542 137.914 54.54Z" fill="#9B2F30"/>
<path d="M131.355 79.8834C127.571 82.6099 123.589 78.6249 124.963 76.4992C126.48 75.6064 128.195 77.7894 129.439 77.2838C131.411 76.4818 132.185 72.1777 133.485 70.487C135.692 67.6173 139.18 67.072 140.956 64.0126C141.778 62.5962 141.042 61.0462 140.548 59.6962L140.769 59.554C141.967 59.9261 142.725 61.5997 142.522 62.8038C142.135 65.112 140.619 66.6149 138.897 68.0212C140.596 67.8373 144.332 65.7568 145.834 64.7773C144.974 67.346 143.323 68.3892 141.262 70.0061C139.937 71.0438 138.609 72.0008 137.491 73.2733C134.867 76.2614 134.001 81.0498 130.097 82.808C130.277 81.4268 131.04 81.3599 131.355 79.8834Z" fill="url(#paint0_linear_460_1328)"/>
<path d="M138.897 68.0212C140.596 67.8373 144.332 65.7568 145.834 64.7773C144.974 67.346 143.323 68.3892 141.262 70.0061C139.937 71.0438 138.609 72.0008 137.491 73.2733C134.867 76.2614 134.001 81.0498 130.097 82.808C130.277 81.4268 131.04 81.36 131.355 79.8835C135.305 75.4968 131.926 72.5513 138.897 68.0212Z" fill="#9B2F30"/>
<path d="M95.1874 67.4322C99.0903 65.1783 102.897 65.5181 106.56 67.8467C107.25 68.2857 107.78 68.8589 108.38 69.2442C102.277 68.7995 100.975 68.247 94.4811 69.1487C94.6237 68.632 94.9569 67.9289 95.1874 67.4322Z" fill="#9B2F30"/>
<path d="M67.1533 56.7346C69.3816 57.6158 71.7427 58.3179 74.0424 58.9866L73.8514 60.065C68.9216 59.065 67.6398 59.9861 63.4753 59.6149C64.7541 58.2173 65.506 57.6393 67.1533 56.7346Z" fill="#9B2F30"/>
<path d="M85.5839 72.9996C86.3705 73.043 86.8012 72.835 87.5474 72.5869C85.3635 74.4462 83.7921 76.0559 80.9895 76.8312C80.679 76.6553 79.8286 76.1433 79.5317 76.0494C82.016 75.0822 83.2744 74.298 85.5839 72.9996Z" fill="#9B2F30"/>
<path d="M85.5839 72.9996C87.3035 71.191 92.5112 68.9771 94.5403 67.8043L95.1874 67.4321C94.9569 67.9288 94.6237 68.6318 94.4811 69.1486C91.7531 69.9976 89.7675 70.6393 87.5474 72.5869C86.8012 72.835 86.3705 73.043 85.5839 72.9996Z" fill="#D1272F"/>
<path d="M68.0203 60.5403C74.9955 59.9477 77.0801 66.8158 82.0569 68.5051C83.9392 69.1439 89.1091 64.5642 92.0257 65.2604C92.9476 65.4806 94.348 65.7353 94.9061 66.526C94.017 67.4313 92.8901 66.7537 91.7645 67.0014C91.2949 67.1048 90.5677 67.5254 90.1336 67.7685C87.7873 69.195 84.6435 72.2382 81.8587 71.8249C75.1917 70.8359 74.9343 59.471 66.6223 61.9628C65.8983 62.1798 64.9854 62.6365 64.2273 62.5683L64.1743 62.2374C65.0022 61.3558 66.8664 60.8768 68.0203 60.5403Z" fill="url(#paint1_linear_460_1328)"/>
<path d="M107.762 66.5643C111.579 66.1022 118.438 69.4113 119.934 72.9309C117.888 72.8917 113.848 68.9184 111.539 68.2762C110.901 68.0983 108.111 67.0316 107.762 66.5643Z" fill="white"/>
<path d="M88.454 50.3595C90.2989 44.6451 92.9025 39.5781 98.4941 36.7814C107.32 32.368 117.571 35.2449 124.871 41.2403C127.983 43.7976 132.428 47.1592 132.948 51.409C131.529 58.5523 114.514 55.8793 109.316 55.8535C107.567 55.845 104.394 56.0336 102.831 55.8655L100.097 55.9359C97.4452 56.4599 93.5015 56.4409 90.8235 56.1009C87.3198 55.6559 87.9669 52.9843 88.454 50.3595Z" fill="#F03946"/>
<path d="M102.831 55.8654C103.32 55.5976 106.364 55.5134 107.156 55.4344C109.848 55.1664 113.409 54.3775 116.049 54.3502C121.389 54.2948 126.017 55.9221 130.913 52.6766C131.656 52.184 132.131 52.0899 132.949 51.4089C131.529 58.5522 114.514 55.8792 109.316 55.8535C107.567 55.8449 104.394 56.0336 102.831 55.8654Z" fill="#9B2F30"/>
<path d="M88.454 50.3594C90.5834 53.5573 96.3744 56.0291 100.097 55.9358C97.4452 56.4597 93.5015 56.4408 90.8235 56.1007C87.3198 55.6557 87.9669 52.9841 88.454 50.3594Z" fill="#9B2F30"/>
<path d="M91.5605 48.6876L91.2511 48.537C91.139 48.0998 91.0684 48.1764 91.3502 47.7586C92.9216 45.4286 97.5928 48.2289 95.4612 50.4675C95.1573 51.2222 94.5641 51.876 93.9001 52.3377C91.9438 52.6014 91.81 49.9483 91.5605 48.6876Z" fill="#9B2F30"/>
<path d="M91.5605 48.6876L91.2511 48.537C91.139 48.0998 91.0684 48.1764 91.3502 47.7586C92.9216 45.4286 97.5928 48.2289 95.4612 50.4675C94.7491 49.493 94.6841 48.7369 93.4417 48.2173C92.5412 48.1708 92.415 48.2947 91.5605 48.6876Z" fill="white"/>
<path d="M104.404 38.9146C103.97 38.3831 104.087 38.6292 104.069 37.8438C105.13 35.4576 108.546 36.4719 108.967 38.9746L108.763 39.3029L108.305 39.2698C106.66 41.8234 105.643 41.3455 104.404 38.9146Z" fill="#9B2F30"/>
<path d="M104.404 38.9146C103.97 38.3831 104.087 38.6292 104.069 37.8438C105.13 35.4576 108.546 36.4719 108.967 38.9746L108.763 39.3029L108.305 39.2698C107.433 38.3324 107.012 38.0364 105.97 37.2771C105.461 37.7624 104.895 38.3956 104.404 38.9146Z" fill="white"/>
<path d="M99.7024 44.1094L99.17 43.8743C99.2299 42.3537 102.183 42.2276 103.383 43.2839C103.617 43.7237 103.688 44.5805 103.385 44.9969C102.664 46.0438 101.886 47.6582 100.456 47.2076C99.3634 46.0221 99.7403 45.6212 99.7024 44.1094Z" fill="#9B2F30"/>
<path d="M99.7024 44.1094L99.17 43.8743C99.2299 42.3537 102.183 42.2276 103.383 43.2839C103.617 43.7237 103.688 44.5805 103.385 44.9969C102.017 43.9311 101.365 43.1135 99.7024 44.1094Z" fill="white"/>
<path d="M118.135 51.0609C117.365 50.8736 117.563 51.0427 117.19 50.5068C118.897 47.3569 123.256 48.6057 121.662 51.5525L121.924 51.7213C121.798 52.2821 121.585 52.5089 121.104 52.8583C119.784 53.8201 118.642 51.7657 118.135 51.0609Z" fill="#9B2F30"/>
<path d="M118.135 51.0609C117.365 50.8736 117.563 51.0427 117.19 50.5068C118.897 47.3569 123.256 48.6057 121.662 51.5525C120.831 50.8447 120.472 50.0698 119.467 49.9276C118.739 50.1576 118.636 50.4228 118.135 51.0609Z" fill="white"/>
<path d="M107.762 49.8104L107.597 49.4249C108.6 48.0698 110.807 48.4276 111.714 49.8593L111.682 50.1999L111.126 50.3946C110.923 51.7028 110.845 52.4435 109.557 53.0279C107.479 52.9914 107.603 51.3731 107.762 49.8104Z" fill="#9B2F30"/>
<path d="M107.762 49.8104L107.597 49.4249C108.6 48.0698 110.807 48.4276 111.714 49.8593L111.682 50.1999L111.126 50.3946C109.663 49.746 109.282 49.6439 107.762 49.8104Z" fill="white"/>
<path d="M113.176 41.6364L112.833 41.2418C113.252 39.5489 115.678 39.6213 116.751 40.8268C116.901 41.3938 116.959 42.05 116.534 42.5175C114.863 44.7908 113.778 43.9322 113.176 41.6364Z" fill="#9B2F30"/>
<path d="M113.176 41.6364L112.833 41.2418C113.252 39.5489 115.678 39.6213 116.751 40.8268C116.901 41.3938 116.959 42.05 116.534 42.5175C115.924 41.82 115.615 41.2345 114.755 40.9566C113.976 40.9712 113.85 41.1541 113.176 41.6364Z" fill="white"/>
<path d="M124.328 47.5854L124.037 47.4063C124.677 45.5748 127.84 46.2517 126.871 48.4957C127.002 48.6056 126.919 48.5162 126.957 48.8519L126.588 49.2917C125.826 49.5707 126.149 49.5332 125.317 49.3332C124.683 48.8716 124.602 48.3461 124.328 47.5854Z" fill="white"/>
<path d="M124.328 47.5854C125.638 47.7159 125.764 47.9303 126.871 48.4957C127.002 48.6056 126.919 48.5163 126.957 48.852L126.588 49.2917C125.826 49.5708 126.149 49.5333 125.317 49.3332C124.683 48.8717 124.602 48.3462 124.328 47.5854Z" fill="#9B2F30"/>
<path d="M71.6689 50.341C71.9393 50.1649 72.2151 49.9972 72.4958 49.838C76.9895 47.2913 78.835 46.1113 83.7915 47.4636C83.501 48.3653 83.2898 49.266 83.0623 50.1849C82.8763 51.7547 82.6126 53.4989 82.6565 55.0642C80.639 54.922 71.2747 52.9981 70.0231 51.8782C70.2113 51.247 71.0987 50.6761 71.6689 50.341Z" fill="#03673B"/>
<path d="M71.6689 50.341C71.9393 50.1649 72.2151 49.9972 72.4959 49.838C76.9895 47.2913 78.835 46.1113 83.7915 47.4636C83.501 48.3653 83.2898 49.266 83.0623 50.1849C81.4047 50.4414 72.7678 50.7713 71.6689 50.341Z" fill="#138542"/>
<path d="M85.6963 42.7018C85.1071 41.0787 83.4858 32.0711 83.5609 30.4412L83.8455 30.2148C84.554 30.2864 84.8499 30.6006 85.4391 31.0356C87.411 32.3745 89.198 33.9625 90.9569 35.5659C89.8215 36.6591 89.2939 37.2895 88.3083 38.5339C87.4642 39.7872 86.5097 41.4006 85.6963 42.7018Z" fill="#03673B"/>
<path d="M85.4392 31.0359C87.411 32.3748 89.1981 33.9628 90.957 35.5662C89.8216 36.6594 89.294 37.2898 88.3083 38.5342C87.7682 37.6895 85.2521 31.7968 85.4392 31.0359Z" fill="#138542"/>
<path d="M96.8231 1.97445C110.789 1.41041 124.963 4.2035 136.988 11.5175C151.6 20.3754 162.117 34.655 166.242 51.24C169.901 66.3736 167.393 81.2406 159.333 94.4785C157.666 86.4398 155.495 78.5139 152.833 70.7474C152.992 70.4322 153.148 70.1151 153.299 69.7958C155.16 65.8439 155.433 60.9933 153.989 57.0715C151.848 51.2496 145.854 49.3205 141.104 46.2899C139.912 45.5284 138.279 42.0302 137.108 40.7562C125.979 28.6456 112.101 22.2369 95.7982 28.3171C93.9998 26.61 92.596 25.4261 90.606 23.9783C86.2501 20.9834 79.9319 19.012 76.489 24.4285C73.9401 28.439 75.1331 34.0605 76.1211 38.4376C72.6093 40.0489 69.4436 41.3627 66.198 43.5399C62.3567 46.1168 61.2179 50.0982 57.6648 53.14C54.7773 55.6118 52.2379 61.2987 52.5384 65.0768C52.6975 67.0767 53.409 68.7744 54.5791 70.4925C53.8349 74.3963 52.6663 78.4184 51.8483 82.3372C50.2952 89.778 48.6832 97.8499 47.8545 105.389C45.287 102.331 42.7869 99.853 40.5339 96.4249C35.3001 88.4609 32.9477 76.9841 32.5826 67.6038C31.9124 50.394 37.1898 33.5856 48.8726 20.7767C61.2602 7.19544 78.8964 2.56701 96.8231 1.97445Z" fill="#FFF7E6"/>
<path fill-rule="evenodd" clip-rule="evenodd" d="M86.857 142.537C86.9327 142.524 87.0099 142.524 87.0869 142.525C87.1191 142.525 87.1514 142.525 87.1834 142.525C93.98 142.366 101.702 146.817 101.848 154.342C101.904 157.218 99.6999 159.707 97.5161 162.174C95.7153 164.208 93.928 166.227 93.4325 168.435C92.8844 170.877 96.9046 172.911 99.4053 172.981C100.173 173.002 100.259 172.043 100.346 171.071C100.392 170.557 100.438 170.04 100.586 169.662C101.629 166.986 103.168 164.373 105.932 163.19C107.352 162.582 109.849 162.273 111.27 162.896C111.976 163.206 112.516 163.801 112.759 164.536C113.228 165.949 111.98 168.397 110.719 170.87C109.31 173.633 107.885 176.428 108.821 177.847C110.016 179.66 111.397 180.872 112.531 181.867C114.996 184.031 116.296 185.172 111.985 189.234C109.199 191.86 106.962 191.009 104.257 189.981C102.735 189.402 101.065 188.767 99.0663 188.663C96.314 188.52 94.2824 189.743 92.1905 191.001C90.2989 192.139 88.358 193.307 85.7904 193.522C80.1477 193.993 73.7579 191.639 73.635 185.057C73.5715 181.66 75.9268 178.475 78.2466 175.338C79.921 173.074 81.577 170.835 82.2916 168.559C82.8474 166.788 81.4441 164.845 80.0849 162.963C79.3333 161.922 78.5952 160.9 78.2094 159.937C74.8858 151.633 77.2523 144.138 86.857 142.537ZM92.4934 183.139C92.6047 183.084 92.6344 182.942 92.5582 182.844L88.0954 177.106C88.016 177.004 87.8634 177.003 87.7858 177.106C87.0936 178.028 84.3685 181.892 85.8979 183.712C87.3996 185.5 91.515 183.622 92.4934 183.139ZM89.3011 163.974C87.8573 164.456 85.898 157.849 85.898 155.126C85.898 152.871 88.5252 151.226 89.3011 151.043C90.077 150.859 90.7694 150.886 91.3428 151.043C92.5196 151.363 92.8702 152.338 93.2742 153.46C93.3104 153.561 93.347 153.662 93.3847 153.765C93.843 155.013 93.3848 157.849 93.3848 157.849C93.0283 160.702 91.3428 163.294 89.3011 163.974Z" fill="#3E0D2C"/>
<path d="M46.3677 143.532C51.8927 143.153 52.1898 148.013 52.0387 152.074C51.8937 155.373 51.9151 159.144 51.3219 162.403C50.0333 169.486 51.1039 175.144 52.1406 182.163C54.8786 180.192 58.263 177.807 61.6612 178.24C67.8743 179.034 67.1552 185.552 64.0538 189.241C62.2632 191.373 61.1477 192.455 59.0263 194.11C48.8078 201.753 40.5357 198.063 38.953 185.49C37.9185 177.27 35.965 146.463 46.3677 143.532Z" fill="#3E0D2C"/>
<path d="M153.285 142.313C161.602 141.982 160.968 151.865 160.701 157.385C159.872 174.476 152.516 201.414 129.67 189.511C125.523 187 122.452 181.166 124.976 176.62C128.913 169.54 137.393 181.044 142.801 178.91C147.503 176.87 146.982 171.624 147.349 167.33C147.971 160.052 147.397 151.769 150.117 144.886C150.717 143.368 151.87 142.77 153.285 142.313Z" fill="#3E0D2C"/>
<path d="M35.9417 125C44.1076 124.636 39.4292 132.325 32.5735 133.062C29.7031 133.01 26.4034 131.476 28.9294 128.17C30.526 126.081 33.4528 125.373 35.9417 125Z" fill="#3E0D2C"/>
<path d="M156.282 129.793C157.893 129.704 164.567 129.335 162.545 133.383C161.891 134.692 158.695 135.504 157.18 135.742C147.656 135.947 146.779 130.658 156.282 129.793Z" fill="#3E0D2C"/>
<path d="M43.9704 128.162C48.2314 127.99 57.1551 130.419 48.8856 133.888C41.8529 136.081 38.1237 129.669 43.9704 128.162Z" fill="#3E0D2C"/>
<path d="M165.612 124.165C165.764 124.156 165.913 124.149 166.065 124.145C167.903 124.102 172.029 124.888 172.037 127.179C171.473 128.228 170.617 128.386 169.503 128.775C163.977 129.99 160.364 125.892 165.612 124.165Z" fill="#3E0D2C"/>
<path d="M42.022 119.865C44.7251 119.796 44.6569 122.468 43.1062 124.188C40.4679 124.119 40.4488 121.549 42.022 119.865Z" fill="#3E0D2C"/>
<path d="M107.924 134.972C108.508 134.76 109.16 134.887 109.625 135.301C110.087 135.715 110.287 136.351 110.141 136.956C109.996 137.56 109.531 138.037 108.931 138.194C108.057 138.426 107.156 137.929 106.887 137.065C106.616 136.202 107.072 135.28 107.924 134.972Z" fill="#3E0D2C"/>
<path d="M166.428 130.846C167.301 130.619 168.195 131.139 168.428 132.011C168.661 132.882 168.149 133.779 167.279 134.02C166.4 134.263 165.491 133.743 165.255 132.862C165.018 131.98 165.547 131.075 166.428 130.846Z" fill="#3E0D2C"/>
<path d="M112.388 135.607C112.661 135.385 113.034 135.333 113.355 135.474C113.678 135.614 113.894 135.923 113.916 136.274C113.938 136.625 113.762 136.958 113.459 137.137C113.038 137.389 112.494 137.271 112.213 136.87C111.934 136.467 112.009 135.917 112.388 135.607Z" fill="#3E0D2C"/>
<defs>
<linearGradient id="paint0_linear_460_1328" x1="134.508" y1="59.4113" x2="132.32" y2="80.7038" gradientUnits="userSpaceOnUse">
<stop stop-color="#FFEBF3"/>
<stop offset="1" stop-color="white"/>
</linearGradient>
<linearGradient id="paint1_linear_460_1328" x1="77.9367" y1="58.7568" x2="80.6625" y2="71.7739" gradientUnits="userSpaceOnUse">
<stop stop-color="#FFE7F3"/>
<stop offset="1" stop-color="white"/>
</linearGradient>
</defs>
</svg>
