<svg width="300" height="300" viewBox="0 0 300 300" fill="none" xmlns="http://www.w3.org/2000/svg">
<path d="M122.157 36.6696C128.939 35.6297 138.801 43.5039 142.74 48.6563C163.887 37.1982 186.226 47.3944 201.131 63.5495C203.673 66.3052 205.333 69.3786 206.802 72.7766C218.981 78.8588 230.523 83.4586 226.593 99.4285C226.001 101.835 224.996 103.353 223.581 105.333C225.34 108.922 226.835 114.378 227.987 118.23C232.853 134.489 235.414 151.39 240.516 167.581C241.605 171.039 243.331 174.584 243.714 178.204C244.396 184.681 239.075 189.132 233.457 190.966C228.394 192.639 223.129 193.098 217.886 193.747C210.25 194.714 202.596 195.533 194.927 196.206C190.492 196.768 183.89 197.077 179.326 197.345C164.219 198.167 149.081 198.294 133.962 197.724C127.065 197.431 120.282 196.82 113.4 196.39C105.538 195.988 98.6428 196.257 90.7731 195.067C83.4177 193.954 73.4115 190.03 73.0137 181.121C72.8902 178.36 74.8463 174.459 75.1998 171.385C76.6493 158.772 78.3482 146.164 80.7227 133.689C82.5715 123.653 85.4877 114.028 87.1483 104.055C80.6133 97.4064 85.0752 89.0478 90.192 82.956C91.7916 81.0515 93.9609 79.6687 96.0268 78.2979C96.293 69.6341 112.526 63.0591 119.764 61.9405C119.002 57.7473 118.25 53.4371 117.694 49.2104C117.002 43.9389 116.913 39.4651 122.157 36.6696Z" fill="#3E0D2C"/>
<path d="M94.8299 105.549C106.136 102.86 105.647 107.795 110.212 116.05C112.544 120.267 117.987 123.636 122.833 123.103C131.084 122.248 135.802 113.487 143.82 111.747C152.177 109.934 163.24 111.627 170.805 115.699C179.048 120.951 182.691 135.418 195.481 132.98C200.541 131.922 205.082 127.276 207.69 122.913C211.097 117.089 211.521 115.082 217.345 111.017C223.36 129.274 226.557 146.108 231.298 164.6C227.296 163.8 223.231 162.142 219.705 160.106C209.473 155.08 202.384 157.286 191.784 159.768C185.437 161.23 183.176 161.533 176.565 161.4C172.934 161.347 169.091 161 165.448 160.733L150.759 159.638C141.069 159.452 136.643 159.647 127.199 161.875C122.998 162.935 119.189 163.668 114.944 164.468C110.494 165.027 107.111 165.033 102.615 164.994C96.227 164.781 90.8796 162.875 84.8115 161.083C83.4566 158.607 90.9969 123.357 92.2361 118.473C93.1917 114.485 94.4255 109.628 94.8299 105.549Z" fill="#FCBC6C"/>
<path d="M127.199 161.876C127.107 161.678 126.995 161.452 126.966 161.233C126.825 160.178 128.329 155.153 128.607 153.618C130.083 145.446 132.427 123.547 136.855 117.384C138.871 114.578 142.221 112.702 145.626 112.214C147.927 111.885 150.11 112.445 151.938 113.891C156.735 117.685 158.084 125.512 158.718 131.224C159.609 139.251 159.672 146.42 156.313 153.929C155.557 155.621 154.614 157.554 153.358 158.931C152.61 159.751 151.776 159.591 150.759 159.638C141.069 159.452 136.643 159.647 127.199 161.876Z" fill="#FFF7E6"/>
<path d="M150.831 119.906C155.063 121.522 154.857 136.625 154.127 140.818C153.541 144.169 151.217 145.954 148.627 147.659C147.358 147.874 147.014 147.795 146.108 146.862C145.157 143.658 148.139 139.995 149.377 136.795C151.51 131.295 148.303 124.786 150.831 119.906Z" fill="white"/>
<path d="M141.796 118.764C143.062 118.931 143.455 119.25 143.969 120.374C143.649 122.13 142.496 122.161 141.39 123.764C139.91 125.909 140.723 127.815 138.648 129.311C136.989 128.496 135.773 128.082 136.218 125.918C136.786 123.158 139.563 120.28 141.796 118.764Z" fill="#FCBC6C"/>
<path d="M144.621 125.264C145.824 125.785 146.192 126.099 146.44 127.402C146.054 128.819 146.329 128.284 145.223 129.425C143.969 129.029 143.679 128.87 143.335 127.576C143.551 126.411 143.838 126.222 144.621 125.264Z" fill="#FCBC6C"/>
<path d="M146.09 150.493C147.209 150.842 147.43 151.008 147.798 152.074C147.609 153.106 147.107 153.525 146.407 154.347C145.172 154.004 144.867 153.862 144.654 152.553C145.034 151.373 145.13 151.346 146.09 150.493Z" fill="white"/>
<path d="M191.784 159.768C191.159 159.55 190.958 159.643 190.815 159.15C189.998 155.788 188.826 148.047 190.51 144.933C193.976 138.522 201.22 130.618 207.564 127.235C212.499 124.602 215.912 129.428 217.082 133.536C218.392 138.132 221.105 156.263 219.705 160.106C209.473 155.08 202.384 157.286 191.784 159.768Z" fill="#FFF7E6"/>
<path d="M194.521 141.6C195.044 141.759 195.322 141.882 195.831 142.089C196.767 143.664 194.652 149.093 194.431 151.104C194.287 152.417 194.117 153.908 193.862 155.195C190.779 154.495 193.163 143.509 194.521 141.6Z" fill="white"/>
<path d="M206.637 131.045C210.66 131.711 209.535 135.037 206.556 136.768C205.33 136.507 204.675 136.163 203.99 135.18C203.61 132.886 204.66 132.092 206.637 131.045Z" fill="#FCBC6C"/>
<path d="M203.036 140.654C204.738 140.823 205.503 140.931 205.976 142.605C205.731 143.886 205.372 144.215 204.609 145.262C202.046 144.556 201.22 142.762 203.036 140.654Z" fill="white"/>
<path d="M199.372 146.581C199.94 146.28 200.64 146.454 201.002 146.984C201.364 147.515 201.271 148.232 200.784 148.651C200.416 148.966 199.901 149.043 199.459 148.85C199.013 148.656 198.72 148.226 198.702 147.742C198.684 147.259 198.944 146.807 199.372 146.581Z" fill="white"/>
<path d="M165.448 160.733C163.671 152.781 163.408 145.141 163.468 136.964C163.489 134.426 163.121 118.424 167.38 118.604C174.235 118.893 176.524 130.366 176.296 135.625C176.356 144.867 174.663 152.652 176.565 161.4C172.934 161.347 169.091 161 165.448 160.733Z" fill="#FFF7E6"/>
<path d="M166.928 140.77C167.739 140.943 167.736 140.889 168.382 141.383C168.726 142.589 168.813 155.212 168.448 156.19C165.816 153.69 166.297 144.135 166.928 140.77Z" fill="white"/>
<path d="M166.934 126.179C169.677 127.027 169.27 129.12 168.349 131.333C167.963 131.42 167.595 131.422 167.195 131.45L166.725 130.99C166.172 129.514 166.393 127.627 166.934 126.179Z" fill="#FCBC6C"/>
<path d="M102.615 164.994C102.663 163.827 106.286 158.133 106.809 155.891C111.065 137.657 104.689 135.385 125.205 131.363C123.873 137.781 124.135 143.518 121.764 150.209C119.597 156.32 115.225 158.426 114.944 164.468C110.494 165.027 107.111 165.033 102.615 164.994Z" fill="#FFF7E6"/>
<path d="M121.325 135.782C124.688 137.628 119.117 149.656 117.724 151.944L117.248 151.865L117.08 151.351C117.773 148.775 120.457 137.14 121.325 135.782Z" fill="white"/>
<path d="M115.308 138.161C116.473 138.781 116.491 139.077 116.456 140.28C115.891 141.44 115.724 141.475 114.628 142.253C112.254 141.289 114.253 139.244 115.308 138.161Z" fill="#FCBC6C"/>
<path d="M92.2361 118.473C105.036 130.527 90.6066 148.35 85.8087 160.632C85.6813 160.958 85.1214 161.004 84.8115 161.083C83.4566 158.607 90.9969 123.357 92.2361 118.473Z" fill="#FFF7E6"/>
<path d="M92.6727 126.183C93.5027 126.266 94.4324 126.263 94.5903 127.307C95.2555 131.709 93.3673 136.692 91.4374 140.537L90.7818 140.793L90.5171 140.203C90.7064 137.482 91.4198 128.11 92.6727 126.183Z" fill="white"/>
<path d="M207.008 162.143C212.215 162.174 213.57 162.832 218.284 165.047C223.198 167.782 227.266 168.993 232.755 170.03C235.076 176.763 239.55 181.324 229.252 183.706C220.581 185.712 211.393 186.076 202.584 187.278C200.209 187.557 192.567 188.37 190.477 188.289C181.997 189.232 169.516 189.783 161.018 189.775C150.095 190.012 139.167 189.832 128.258 189.236C121.851 188.887 115.468 188.187 109.029 187.967C107.322 188.093 104.54 188.024 102.833 187.901C95.9126 187.399 84.9009 187.77 80.814 181.175C82.131 176.985 83.7859 171.463 83.4608 166.971L83.9648 166.377C85.7184 166.368 92.805 168.691 95.0916 169.279C102.316 171.135 118.092 170.129 125.066 167.53C130.622 166.262 135.679 165.084 141.383 164.785C154.926 164.075 168.828 167.033 182.302 166.449C190.402 166.098 198.508 162.744 207.008 162.143Z" fill="#C55B2B"/>
<path d="M83.4608 166.972C84.4523 169.329 85.9373 168.929 87.8524 170.643C89.4508 172.073 92.2086 177.073 94.2143 177.605C99.652 179.047 108.215 179.281 113.699 177.796C116.576 177.017 113.107 172.556 115.295 171.528C120.49 169.495 125.528 174.412 129.367 176.819C134.774 180.21 140.131 182.465 146.314 183.782C152.335 185.173 158.557 178.576 163.142 184.641C164.09 185.895 161.733 188.775 161.018 189.775C150.095 190.013 139.167 189.833 128.258 189.237C121.851 188.887 115.468 188.188 109.029 187.967C107.322 188.094 104.54 188.025 102.833 187.901C95.9126 187.399 84.9009 187.77 80.814 181.176C82.131 176.985 83.7859 171.463 83.4608 166.972Z" fill="#9B2F30"/>
<path d="M109.029 187.967C109.795 186.267 112.25 185.785 113.648 184.881C117.267 182.541 127.177 184.827 128.258 189.236C121.851 188.887 115.468 188.188 109.029 187.967Z" fill="#C55B2B"/>
<path d="M125.066 167.53C130.622 166.262 135.679 165.084 141.383 164.785C154.926 164.075 168.828 167.033 182.302 166.449C190.402 166.098 198.507 162.744 207.008 162.143C205.36 167.448 198.385 168.916 194.616 171.418L192.857 172.031C184.958 170.468 176.057 181.32 167.431 179.886C162.25 179.025 161.649 173.096 157.549 171.278C151.348 168.528 142.804 168.666 136.057 168.888C132.978 168.989 129.882 169.444 126.812 169.066C125.861 168.954 125.63 168.299 125.066 167.53Z" fill="#9B2F30"/>
<path d="M218.284 165.047C223.198 167.782 227.266 168.993 232.755 170.03C235.076 176.763 239.55 181.324 229.252 183.706C220.581 185.712 211.393 186.076 202.584 187.278C200.209 187.557 192.567 188.37 190.477 188.29C194.625 178.848 213.956 181.41 218.075 177.438C221.446 174.186 216.358 170.864 216.672 167.367C216.774 166.238 217.456 165.732 218.284 165.047Z" fill="#9B2F30"/>
<path d="M194.616 171.418C195.732 171.932 195.81 171.938 196.599 172.84C197.29 175.733 192.041 177.593 189.813 176.643C188.658 174.828 190.83 173.159 192.292 172.335C192.478 172.23 192.669 172.129 192.858 172.031L194.616 171.418Z" fill="white"/>
<path d="M138.023 169.916C140.977 169.821 144.352 172.744 142.6 176.021C139.294 176.129 135.728 173.418 138.023 169.916Z" fill="white"/>
<path d="M171.092 181.361C172.462 181.274 173.497 181.402 174.298 182.612C174.735 184.669 173.539 185.482 171.891 186.394C170.652 186.465 170.018 186.25 169.1 185.494C168.295 183.404 169.549 182.552 171.092 181.361Z" fill="white"/>
<path d="M101.877 170.73C102.899 170.938 103.345 171.417 103.744 172.324C103.678 174.51 102.001 175.076 100.195 175.462C98.6889 175.016 97.8517 174.518 98.0027 172.851C99.1971 171.112 99.8413 171.137 101.877 170.73Z" fill="white"/>
<path d="M209.153 166.68C210.235 166.697 210.681 166.661 211.013 167.775C210.684 169.015 210.397 169.188 209.499 170.18C208.291 170.107 207.801 170.085 207.466 168.856C207.845 167.638 208.121 167.544 209.153 166.68Z" fill="white"/>
<path d="M206.87 81.8101C208.802 82.8237 210.549 83.6862 212.341 84.9532C217.904 88.3 220.802 89.9174 218.751 97.1658C217.461 101.019 214.985 102.583 211.892 105.009C209.906 106.565 207.914 108.001 206.236 109.91C202.3 114.392 201.002 121.574 195.146 124.212C188.416 128.205 182.371 113.607 177.295 110.295C171.899 106.775 168.657 105.823 162.57 103.866C153.415 103.199 151.462 102.37 141.722 103.723C137.63 104.996 134.651 105.959 131.321 108.88C128.045 111.669 125.688 114.084 121.484 115.247C121.018 114.983 119.743 114.215 119.297 114.074C115.289 111.581 114.517 104.15 109.688 99.975C103.835 94.916 99.3142 96.8834 92.2799 97.2448L91.9844 96.6763C91.9566 94.227 93.7473 91.3056 95.2129 89.422C97.131 87.3256 98.2589 86.4586 100.73 85.1016C104.072 86.4233 107.614 87.4764 111.063 88.4796C117.554 90.3171 122.078 91.1799 128.797 89.8988C137.517 94.7832 152.359 92.2201 162.28 92.3443C174.549 92.4975 188.649 94.7506 199.91 88.9951C203.066 87.3822 204.953 84.6812 206.87 81.8101Z" fill="#F03946"/>
<path d="M206.87 81.8101C208.803 82.8237 210.549 83.6862 212.341 84.9532C205.396 91.5942 203.114 95.0204 191.802 95.0665C189.409 95.076 185.197 94.6171 182.963 94.7287C170.165 95.3674 157.444 95.1472 144.636 95.3235C141.338 95.3686 135.726 94.2356 132.131 94.0125C127.898 93.7495 123.104 94.02 119.058 93.2804C116.869 92.8804 113.067 90.937 110.777 90.0972L111.064 88.4796C117.554 90.3171 122.078 91.1799 128.797 89.8989C137.517 94.7832 152.359 92.2202 162.28 92.3443C174.55 92.4975 188.649 94.7506 199.91 88.9951C203.066 87.3822 204.953 84.6812 206.87 81.8101Z" fill="#9B2F30"/>
<path d="M197.033 119.825C191.356 123.915 185.383 117.937 187.444 114.749C189.72 113.41 192.292 116.684 194.158 115.926C197.117 114.723 198.277 108.267 200.227 105.731C203.538 101.426 208.77 100.608 211.435 96.0191C212.667 93.8944 211.563 91.5695 210.821 89.5444L211.153 89.3311C212.951 89.8893 214.088 92.3997 213.783 94.2058C213.202 97.6681 210.929 99.9224 208.345 102.032C210.893 101.756 216.498 98.6354 218.751 97.1661C217.461 101.019 214.985 102.584 211.892 105.009C209.906 106.566 207.914 108.001 206.236 109.91C202.3 114.392 201.002 121.575 195.146 124.212C195.415 122.14 196.56 122.04 197.033 119.825Z" fill="url(#paint0_linear_460_1405)"/>
<path d="M208.345 102.032C210.893 101.756 216.498 98.6353 218.751 97.166C217.462 101.019 214.985 102.584 211.892 105.009C209.906 106.566 207.914 108.001 206.236 109.91C202.3 114.392 201.002 121.575 195.146 124.212C195.415 122.14 196.56 122.04 197.033 119.825C202.958 113.245 197.888 108.827 208.345 102.032Z" fill="#9B2F30"/>
<path d="M142.781 101.148C148.635 97.767 154.345 98.2768 159.84 101.77C160.875 102.428 161.67 103.288 162.571 103.866C153.415 103.199 151.462 102.37 141.722 103.723C141.936 102.948 142.435 101.893 142.781 101.148Z" fill="#9B2F30"/>
<path d="M100.73 85.1018C104.072 86.4236 107.614 87.4767 111.064 88.4798L110.777 90.0974C103.382 88.5974 101.46 89.979 95.213 89.4222C97.1311 87.3259 98.259 86.4589 100.73 85.1018Z" fill="#9B2F30"/>
<path d="M128.376 109.499C129.556 109.564 130.202 109.252 131.321 108.88C128.045 111.669 125.688 114.084 121.484 115.247C121.018 114.983 119.743 114.215 119.297 114.074C123.024 112.623 124.912 111.447 128.376 109.499Z" fill="#9B2F30"/>
<path d="M128.376 109.499C130.955 106.786 138.767 103.465 141.811 101.706L142.781 101.148C142.435 101.893 141.936 102.947 141.722 103.723C137.63 104.996 134.651 105.959 131.321 108.88C130.202 109.252 129.556 109.564 128.376 109.499Z" fill="#D1272F"/>
<path d="M102.03 90.8105C112.493 89.9217 115.62 100.224 123.085 102.758C125.909 103.716 133.664 96.8464 138.039 97.8908C139.421 98.2211 141.522 98.6031 142.359 99.7891C141.025 101.147 139.335 100.131 137.647 100.502C136.942 100.657 135.852 101.288 135.2 101.653C131.681 103.793 126.965 108.357 122.788 107.738C112.788 106.254 112.401 89.2067 99.9334 92.9443C98.8474 93.2698 97.4781 93.9549 96.3409 93.8526L96.2614 93.3562C97.5032 92.0339 100.3 91.3153 102.03 90.8105Z" fill="url(#paint1_linear_460_1405)"/>
<path d="M161.643 99.8465C167.368 99.1533 177.657 104.117 179.9 109.396C176.832 109.337 170.772 103.378 167.308 102.414C166.351 102.147 162.167 100.547 161.643 99.8465Z" fill="white"/>
<path d="M132.681 75.5393C135.448 66.9677 139.354 59.3672 147.741 55.1721C160.979 48.552 176.356 52.8673 187.306 61.8605C191.975 65.6965 198.642 70.7387 199.423 77.1135C197.293 87.8285 171.771 83.8189 163.973 83.7803C161.35 83.7675 156.591 84.0505 154.246 83.7983L150.146 83.9039C146.168 84.6898 140.252 84.6614 136.235 84.1513C130.98 83.4838 131.95 79.4764 132.681 75.5393Z" fill="#F03946"/>
<path d="M154.247 83.798C154.979 83.3962 159.547 83.27 160.734 83.1515C164.772 82.7494 170.114 81.5662 174.074 81.5252C182.084 81.442 189.026 83.883 196.369 79.0148C197.485 78.2759 198.196 78.1347 199.423 77.1133C197.293 87.8282 171.771 83.8187 163.973 83.7801C161.35 83.7672 156.592 84.0502 154.247 83.798Z" fill="#9B2F30"/>
<path d="M132.681 75.5391C135.875 80.336 144.562 84.0437 150.146 83.9037C146.168 84.6896 140.252 84.6612 136.235 84.1511C130.98 83.4836 131.95 79.4762 132.681 75.5391Z" fill="#9B2F30"/>
<path d="M137.341 73.0313L136.877 72.8054C136.708 72.1496 136.603 72.2645 137.025 71.6377C139.382 68.1428 146.389 72.3432 143.192 75.7011C142.736 76.8332 141.846 77.8139 140.85 78.5065C137.916 78.902 137.715 74.9224 137.341 73.0313Z" fill="#9B2F30"/>
<path d="M137.341 73.0313L136.877 72.8054C136.708 72.1496 136.603 72.2645 137.025 71.6377C139.382 68.1428 146.389 72.3432 143.192 75.7011C142.124 74.2393 142.026 73.1052 140.162 72.3258C138.812 72.2561 138.622 72.4419 137.341 73.0313Z" fill="white"/>
<path d="M156.606 58.3718C155.954 57.5745 156.131 57.9437 156.104 56.7655C157.695 53.1862 162.819 54.7078 163.45 58.4618L163.145 58.9543L162.457 58.9046C159.989 62.735 158.464 62.0181 156.606 58.3718Z" fill="#9B2F30"/>
<path d="M156.606 58.3718C155.954 57.5745 156.131 57.9437 156.104 56.7655C157.695 53.1862 162.819 54.7078 163.45 58.4618L163.145 58.9543L162.457 58.9046C161.15 57.4985 160.519 57.0545 158.954 55.9156C158.192 56.6435 157.342 57.5933 156.606 58.3718Z" fill="white"/>
<path d="M149.554 66.1642L148.755 65.8115C148.845 63.5306 153.274 63.3415 155.075 64.9259C155.425 65.5856 155.533 66.8709 155.078 67.4955C153.995 69.0659 152.829 71.4874 150.684 70.8116C149.045 69.0333 149.61 68.432 149.554 66.1642Z" fill="#9B2F30"/>
<path d="M149.554 66.1642L148.755 65.8115C148.845 63.5306 153.274 63.3415 155.075 64.9259C155.425 65.5856 155.533 66.8709 155.078 67.4955C153.026 65.8968 152.048 64.6704 149.554 66.1642Z" fill="white"/>
<path d="M177.203 76.5911C176.048 76.3102 176.344 76.5639 175.785 75.76C178.345 71.0351 184.883 72.9083 182.494 77.3286L182.885 77.5817C182.697 78.4229 182.377 78.7631 181.656 79.2872C179.676 80.7299 177.962 77.6483 177.203 76.5911Z" fill="#9B2F30"/>
<path d="M177.203 76.5911C176.048 76.3102 176.344 76.5639 175.785 75.76C178.345 71.0351 184.883 72.9083 182.494 77.3286C181.246 76.2668 180.708 75.1045 179.201 74.8912C178.109 75.2361 177.953 75.634 177.203 76.5911Z" fill="white"/>
<path d="M161.643 74.7154L161.395 74.1371C162.9 72.1045 166.211 72.6412 167.571 74.7887L167.524 75.2997L166.689 75.5916C166.384 77.5539 166.267 78.6651 164.335 79.5417C161.219 79.4869 161.404 77.0594 161.643 74.7154Z" fill="#9B2F30"/>
<path d="M161.643 74.7154L161.395 74.1371C162.9 72.1045 166.211 72.6412 167.571 74.7887L167.524 75.2997L166.689 75.5917C164.494 74.6187 163.922 74.4656 161.643 74.7154Z" fill="white"/>
<path d="M169.764 62.4547L169.249 61.8629C169.878 59.3235 173.518 59.4321 175.127 61.2403C175.351 62.0909 175.438 63.0751 174.801 63.7764C172.294 67.1864 170.667 65.8985 169.764 62.4547Z" fill="#9B2F30"/>
<path d="M169.764 62.4547L169.249 61.8629C169.878 59.3235 173.518 59.4321 175.127 61.2403C175.351 62.0909 175.438 63.0751 174.801 63.7764C173.886 62.7302 173.422 61.8518 172.133 61.435C170.963 61.4569 170.775 61.7312 169.764 62.4547Z" fill="white"/>
<path d="M186.493 71.3781L186.056 71.1094C187.016 68.3621 191.76 69.3775 190.306 72.7435C190.504 72.9084 190.378 72.7743 190.435 73.2778L189.881 73.9375C188.739 74.3561 189.223 74.2998 187.976 73.9998C187.025 73.3075 186.902 72.5192 186.493 71.3781Z" fill="white"/>
<path d="M186.493 71.3779C188.458 71.5736 188.646 71.8952 190.306 72.7434C190.504 72.9082 190.378 72.7742 190.435 73.2777L189.881 73.9374C188.739 74.3559 189.223 74.2997 187.976 73.9996C187.025 73.3073 186.902 72.519 186.493 71.3779Z" fill="#9B2F30"/>
<path d="M107.503 75.5116C107.909 75.2474 108.323 74.9958 108.744 74.7571C115.484 70.9369 118.252 69.167 125.687 71.1954C125.251 72.548 124.935 73.899 124.593 75.2773C124.314 77.6321 123.919 80.2484 123.985 82.5963C120.958 82.383 106.912 79.4972 105.035 77.8173C105.317 76.8704 106.648 76.0142 107.503 75.5116Z" fill="#03673B"/>
<path d="M107.503 75.5116C107.909 75.2474 108.323 74.9958 108.744 74.7571C115.484 70.9369 118.252 69.167 125.687 71.1954C125.251 72.548 124.935 73.899 124.593 75.2773C122.107 75.662 109.152 76.1569 107.503 75.5116Z" fill="#138542"/>
<path d="M128.544 64.0527C127.661 61.618 125.229 48.1067 125.341 45.6618L125.768 45.3223C126.831 45.4297 127.275 45.9009 128.159 46.5534C131.116 48.5617 133.797 50.9437 136.435 53.3488C134.732 54.9886 133.941 55.9343 132.462 57.8008C131.196 59.6808 129.764 62.1009 128.544 64.0527Z" fill="#03673B"/>
<path d="M128.159 46.5535C131.117 48.5618 133.797 50.9438 136.435 53.3489C134.732 54.9887 133.941 55.9344 132.462 57.8009C131.652 56.5339 127.878 47.6948 128.159 46.5535Z" fill="#138542"/>
<path d="M145.235 2.96156C166.184 2.11549 187.444 6.30513 205.483 17.2761C227.401 30.563 243.175 51.9824 249.364 76.8599C254.852 99.5603 251.089 121.861 239 141.718C236.499 129.66 233.242 117.771 229.249 106.121C229.488 105.648 229.722 105.173 229.949 104.694C232.74 98.7657 233.149 91.4898 230.984 85.6072C227.772 76.8743 218.781 73.9806 211.656 69.4347C209.867 68.2925 207.418 63.0453 205.662 61.1341C188.969 42.9683 168.152 33.3552 143.697 42.4756C141 39.9149 138.894 38.139 135.909 35.9673C129.375 31.4749 119.898 28.5179 114.734 36.6426C110.91 42.6584 112.7 51.0906 114.182 57.6563C108.914 60.0733 104.165 62.0439 99.2969 65.3097C93.535 69.175 91.8269 75.1472 86.4972 79.7099C82.1659 83.4175 78.3568 91.9479 78.8076 97.6151C79.0463 100.615 80.1135 103.161 81.8686 105.739C80.7523 111.594 78.9993 117.627 77.7724 123.506C75.4427 134.667 73.0248 146.775 71.7817 158.083C67.9305 153.497 64.1804 149.779 60.8008 144.637C52.95 132.691 49.4215 115.476 48.8739 101.406C47.8686 75.5908 55.7846 50.3782 73.3089 31.165C91.8903 10.793 118.345 3.8504 145.235 2.96156Z" fill="#FFF7E6"/>
<path fill-rule="evenodd" clip-rule="evenodd" d="M130.286 213.805C130.399 213.786 130.515 213.786 130.63 213.787C130.679 213.788 130.727 213.788 130.775 213.787C140.97 213.548 152.553 220.225 152.772 231.513C152.855 235.827 149.55 239.561 146.274 243.261C143.573 246.312 140.892 249.341 140.149 252.652C139.327 256.315 145.357 259.366 149.108 259.471C150.26 259.503 150.389 258.064 150.519 256.606C150.588 255.835 150.658 255.059 150.879 254.492C152.443 250.478 154.752 246.559 158.898 244.784C161.027 243.872 164.773 243.409 166.904 244.344C167.964 244.809 168.773 245.702 169.139 246.804C169.842 248.924 167.97 252.595 166.079 256.305C163.965 260.449 161.828 264.641 163.231 266.77C165.024 269.489 167.096 271.308 168.797 272.801C172.495 276.047 174.443 277.757 167.978 283.85C163.798 287.79 160.443 286.514 156.385 284.971C154.103 284.103 151.598 283.15 148.599 282.995C144.471 282.78 141.424 284.614 138.286 286.502C135.448 288.209 132.537 289.961 128.686 290.282C120.221 290.99 110.637 287.458 110.452 277.586C110.357 272.489 113.89 267.712 117.37 263.007C119.881 259.611 122.365 256.252 123.437 252.838C124.271 250.182 122.166 247.267 120.127 244.444C119 242.883 117.893 241.35 117.314 239.905C112.329 227.45 115.878 216.207 130.286 213.805ZM138.847 274.655C138.958 274.599 138.986 274.458 138.91 274.36L132.065 265.559C131.986 265.457 131.834 265.454 131.756 265.557C130.866 266.725 126.491 272.763 128.847 275.568C131.159 278.321 137.603 275.279 138.847 274.655ZM133.952 245.961C131.786 246.683 128.847 236.773 128.847 232.689C128.847 229.306 132.788 226.839 133.952 226.564C135.115 226.288 136.154 226.329 137.014 226.564C138.779 227.045 139.305 228.506 139.911 230.19C139.966 230.341 140.02 230.493 140.077 230.647C140.764 232.519 140.077 236.773 140.077 236.773C139.542 241.052 137.014 244.94 133.952 245.961Z" fill="#3E0D2C"/>
<path d="M69.5516 215.297C77.8391 214.729 78.2847 222.02 78.058 228.111C77.8406 233.059 77.8726 238.717 76.9827 243.605C75.05 254.229 76.6558 262.716 78.2109 273.244C82.3178 270.289 87.3945 266.71 92.4917 267.36C101.811 268.55 100.733 278.327 96.0806 283.862C93.3947 287.06 91.7216 288.682 88.5394 291.165C73.2117 302.629 60.8035 297.095 58.4295 278.235C56.8778 265.906 53.9475 219.695 69.5516 215.297Z" fill="#3E0D2C"/>
<path d="M229.928 213.47C242.404 212.973 241.452 227.797 241.052 236.078C239.807 261.715 228.774 302.121 194.506 284.266C188.284 280.5 183.678 271.749 187.465 264.931C193.369 254.31 206.09 271.566 214.201 268.365C221.254 265.305 220.474 257.436 221.024 250.995C221.957 240.078 221.096 227.654 225.175 217.329C226.076 215.052 227.804 214.155 229.928 213.47Z" fill="#3E0D2C"/>
<path d="M53.9126 187.499C66.1613 186.954 59.1438 198.488 48.8602 199.593C44.5546 199.516 39.6051 197.213 43.3941 192.255C45.789 189.121 50.1792 188.06 53.9126 187.499Z" fill="#3E0D2C"/>
<path d="M234.423 194.689C236.84 194.557 246.851 194.002 243.818 200.075C242.837 202.038 238.043 203.256 235.769 203.613C221.484 203.921 220.168 195.987 234.423 194.689Z" fill="#3E0D2C"/>
<path d="M65.9556 192.244C72.347 191.985 85.7327 195.628 73.3284 200.832C62.7794 204.122 57.1856 194.504 65.9556 192.244Z" fill="#3E0D2C"/>
<path d="M248.419 186.247C248.646 186.233 248.87 186.224 249.097 186.218C251.855 186.152 258.044 187.332 258.056 190.768C257.209 192.342 255.926 192.58 254.254 193.163C245.966 194.985 240.546 188.838 248.419 186.247Z" fill="#3E0D2C"/>
<path d="M63.033 179.797C67.0876 179.693 66.9853 183.702 64.6592 186.282C60.7018 186.179 60.6731 182.324 63.033 179.797Z" fill="#3E0D2C"/>
<path d="M161.886 202.458C162.762 202.14 163.74 202.33 164.437 202.951C165.131 203.573 165.43 204.527 165.212 205.433C164.993 206.34 164.296 207.055 163.396 207.291C162.086 207.638 160.734 206.893 160.33 205.598C159.923 204.302 160.608 202.92 161.886 202.458Z" fill="#3E0D2C"/>
<path d="M249.642 196.268C250.952 195.929 252.292 196.709 252.642 198.016C252.992 199.323 252.223 200.668 250.919 201.029C249.6 201.395 248.236 200.615 247.883 199.292C247.527 197.97 248.32 196.612 249.642 196.268Z" fill="#3E0D2C"/>
<path d="M168.582 203.41C168.992 203.077 169.552 203 170.033 203.211C170.518 203.421 170.841 203.885 170.874 204.41C170.906 204.937 170.643 205.436 170.189 205.706C169.558 206.083 168.741 205.906 168.319 205.305C167.9 204.7 168.014 203.875 168.582 203.41Z" fill="#3E0D2C"/>
<defs>
<linearGradient id="paint0_linear_460_1405" x1="201.762" y1="89.1171" x2="198.481" y2="121.056" gradientUnits="userSpaceOnUse">
<stop stop-color="#FFEBF3"/>
<stop offset="1" stop-color="white"/>
</linearGradient>
<linearGradient id="paint1_linear_460_1405" x1="116.905" y1="88.1353" x2="120.994" y2="107.661" gradientUnits="userSpaceOnUse">
<stop stop-color="#FFE7F3"/>
<stop offset="1" stop-color="white"/>
</linearGradient>
</defs>
</svg>
