<svg width="400" height="400" viewBox="0 0 400 400" fill="none" xmlns="http://www.w3.org/2000/svg">
<path d="M162.877 48.8929C171.919 47.5063 185.068 58.0053 190.32 64.8752C218.515 49.5977 248.302 63.1926 268.174 84.7328C271.564 88.407 273.777 92.5049 275.735 97.0356C291.975 105.145 307.364 111.278 302.124 132.571C301.334 135.78 299.994 137.804 298.108 140.445C300.453 145.23 302.447 152.504 303.982 157.639C310.471 179.319 313.885 201.853 320.688 223.441C322.14 228.051 324.441 232.779 324.951 237.605C325.861 246.242 318.766 252.176 311.277 254.622C304.525 256.852 297.506 257.465 290.515 258.33C280.334 259.618 270.128 260.711 259.903 261.608C253.989 262.358 245.187 262.77 239.102 263.126C218.958 264.222 198.775 264.392 178.616 263.632C169.42 263.241 160.375 262.427 151.2 261.854C140.718 261.318 131.524 261.677 121.031 260.089C111.224 258.605 97.882 253.374 97.3516 241.495C97.1869 237.814 99.7951 232.612 100.266 228.513C102.199 211.697 104.464 194.886 107.63 178.252C110.095 164.871 113.984 152.038 116.198 138.74C107.484 129.875 113.434 118.73 120.256 110.608C122.389 108.069 125.281 106.225 128.036 104.397C128.391 92.8455 150.035 84.0789 159.686 82.5875C158.669 76.9965 157.666 71.2496 156.926 65.6139C156.002 58.5853 155.884 52.6202 162.877 48.8929Z" fill="#3E0D2C"/>
<path d="M126.44 140.732C141.514 137.147 140.863 143.727 146.95 154.734C150.059 160.356 157.316 164.848 163.778 164.137C174.779 162.997 181.069 151.316 191.76 148.997C202.902 146.578 217.654 148.836 227.74 154.265C238.731 161.268 243.588 180.557 260.641 177.307C267.389 175.896 273.442 169.702 276.92 163.884C281.462 156.119 282.029 153.442 289.793 148.023C297.813 172.365 302.076 194.81 308.397 219.466C303.061 218.401 297.642 216.19 292.94 213.475C279.297 206.773 269.845 209.715 255.712 213.024C247.249 214.973 244.234 215.377 235.421 215.2C230.579 215.13 225.455 214.667 220.597 214.31L201.012 212.851C188.092 212.603 182.19 212.863 169.599 215.834C163.997 217.247 158.918 218.224 153.259 219.291C147.326 220.036 142.815 220.044 136.819 219.992C128.303 219.708 121.173 217.167 113.082 214.778C111.275 211.476 121.329 164.476 122.981 157.964C124.256 152.647 125.901 146.171 126.44 140.732Z" fill="#FCBC6C"/>
<path d="M169.598 215.834C169.476 215.571 169.326 215.269 169.287 214.978C169.1 213.571 171.106 206.871 171.476 204.824C173.445 193.928 176.569 164.729 182.473 156.512C185.161 152.771 189.627 150.269 194.169 149.619C197.235 149.181 200.147 149.927 202.583 151.855C208.98 156.914 210.779 167.35 211.624 174.965C212.813 185.668 212.896 195.227 208.418 205.239C207.409 207.494 206.153 210.073 204.478 211.908C203.481 213.002 202.368 212.788 201.012 212.851C188.092 212.603 182.19 212.863 169.598 215.834Z" fill="#FFF7E6"/>
<path d="M201.108 159.875C206.751 162.03 206.476 182.166 205.503 187.757C204.721 192.225 201.622 194.605 198.169 196.879C196.478 197.165 196.019 197.06 194.811 195.816C193.543 191.544 197.519 186.66 199.17 182.393C202.013 175.06 197.738 166.382 201.108 159.875Z" fill="white"/>
<path d="M189.061 158.352C190.75 158.575 191.273 159.001 191.959 160.498C191.533 162.84 189.994 162.881 188.52 165.018C186.547 167.878 187.631 170.419 184.864 172.415C182.652 171.327 181.03 170.776 181.624 167.891C182.382 164.211 186.085 160.373 189.061 158.352Z" fill="#FCBC6C"/>
<path d="M192.829 167.019C194.432 167.713 194.922 168.132 195.253 169.869C194.739 171.758 195.106 171.045 193.63 172.566C191.959 172.039 191.572 171.826 191.114 170.101C191.401 168.548 191.784 168.295 192.829 167.019Z" fill="#FCBC6C"/>
<path d="M194.787 200.658C196.278 201.123 196.573 201.344 197.064 202.766C196.813 204.142 196.143 204.701 195.209 205.796C193.562 205.339 193.156 205.149 192.873 203.405C193.379 201.831 193.507 201.795 194.787 200.658Z" fill="white"/>
<path d="M255.712 213.024C254.878 212.734 254.611 212.858 254.42 212.2C253.331 207.718 251.767 197.396 254.013 193.244C258.635 184.695 268.294 174.157 276.752 169.647C283.333 166.136 287.883 172.571 289.442 178.047C291.189 184.176 294.806 208.351 292.94 213.475C279.297 206.773 269.845 209.715 255.712 213.024Z" fill="#FFF7E6"/>
<path d="M259.361 188.8C260.059 189.012 260.43 189.176 261.107 189.452C262.356 191.551 259.536 198.791 259.241 201.472C259.05 203.223 258.822 205.211 258.483 206.927C254.372 205.994 257.55 191.345 259.361 188.8Z" fill="white"/>
<path d="M275.516 174.727C280.88 175.615 279.38 180.049 275.408 182.358C273.773 182.01 272.9 181.551 271.987 180.24C271.48 177.182 272.88 176.123 275.516 174.727Z" fill="#FCBC6C"/>
<path d="M270.714 187.539C272.984 187.764 274.005 187.908 274.635 190.14C274.308 191.848 273.829 192.286 272.812 193.683C269.394 192.741 268.294 190.35 270.714 187.539Z" fill="white"/>
<path d="M265.829 195.441C266.587 195.04 267.52 195.272 268.003 195.979C268.485 196.686 268.362 197.643 267.712 198.201C267.221 198.621 266.535 198.724 265.945 198.466C265.351 198.208 264.96 197.634 264.936 196.99C264.912 196.345 265.259 195.743 265.829 195.441Z" fill="white"/>
<path d="M220.597 214.31C218.228 203.708 217.877 193.522 217.957 182.619C217.985 179.235 217.494 157.898 223.173 158.138C232.314 158.524 235.365 173.822 235.062 180.834C235.141 193.156 232.884 203.536 235.421 215.2C230.579 215.13 225.454 214.667 220.597 214.31Z" fill="#FFF7E6"/>
<path d="M222.571 187.693C223.652 187.924 223.648 187.853 224.509 188.511C224.968 190.119 225.084 206.95 224.597 208.253C221.088 204.921 221.73 192.18 222.571 187.693Z" fill="white"/>
<path d="M222.579 168.239C226.236 169.369 225.694 172.16 224.466 175.111C223.951 175.227 223.461 175.229 222.926 175.267L222.3 174.654C221.562 172.685 221.857 170.17 222.579 168.239Z" fill="#FCBC6C"/>
<path d="M136.819 219.992C136.884 218.436 141.715 210.844 142.413 207.855C148.086 183.543 139.585 180.513 166.94 175.151C165.165 183.708 165.514 191.358 162.352 200.279C159.463 208.427 153.633 211.235 153.259 219.291C147.326 220.036 142.815 220.044 136.819 219.992Z" fill="#FFF7E6"/>
<path d="M161.767 181.043C166.251 183.505 158.823 199.542 156.965 202.592L156.331 202.487L156.107 201.802C157.031 198.367 160.609 182.853 161.767 181.043Z" fill="white"/>
<path d="M153.744 184.215C155.297 185.041 155.321 185.436 155.275 187.039C154.521 188.586 154.298 188.634 152.838 189.67C149.672 188.385 152.338 185.659 153.744 184.215Z" fill="#FCBC6C"/>
<path d="M122.981 157.964C140.048 174.036 120.809 197.8 114.412 214.176C114.242 214.61 113.495 214.672 113.082 214.778C111.275 211.476 121.329 164.475 122.981 157.964Z" fill="#FFF7E6"/>
<path d="M123.564 168.245C124.67 168.355 125.91 168.351 126.12 169.743C127.007 175.612 124.49 182.256 121.917 187.382L121.042 187.724L120.689 186.938C120.942 183.31 121.893 170.813 123.564 168.245Z" fill="white"/>
<path d="M276.011 216.19C282.954 216.232 284.76 217.109 291.045 220.063C297.598 223.71 303.022 225.324 310.339 226.707C313.434 235.684 319.4 241.765 305.67 244.942C294.108 247.616 281.857 248.102 270.112 249.705C266.946 250.076 256.757 251.161 253.969 251.053C242.663 252.31 226.021 253.045 214.691 253.033C200.127 253.35 185.556 253.11 171.01 252.315C162.468 251.849 153.957 250.917 145.372 250.623C143.097 250.791 139.387 250.7 137.111 250.534C127.884 249.865 113.201 250.36 107.752 241.567C109.508 235.98 111.715 228.618 111.281 222.629L111.953 221.837C114.291 221.825 123.74 224.922 126.789 225.705C136.421 228.181 157.456 226.839 166.755 223.373C174.163 221.683 180.906 220.113 188.511 219.714C206.567 218.767 225.104 222.711 243.07 221.933C253.869 221.465 264.677 216.992 276.011 216.19Z" fill="#C55B2B"/>
<path d="M111.281 222.629C112.603 225.772 114.583 225.239 117.137 227.523C119.268 229.43 122.945 236.097 125.619 236.806C132.869 238.729 144.287 239.042 151.598 237.062C155.435 236.023 150.809 230.075 153.727 228.704C160.653 225.994 167.37 232.549 172.489 235.759C179.699 240.28 186.841 243.287 195.086 245.043C203.114 246.897 211.409 238.101 217.522 246.188C218.787 247.86 215.644 251.699 214.691 253.034C200.127 253.35 185.556 253.11 171.01 252.315C162.468 251.849 153.957 250.917 145.372 250.623C143.097 250.792 139.387 250.7 137.111 250.535C127.884 249.865 113.201 250.36 107.752 241.567C109.508 235.981 111.715 228.618 111.281 222.629Z" fill="#9B2F30"/>
<path d="M145.372 250.623C146.393 248.356 149.666 247.714 151.531 246.508C156.356 243.389 169.569 246.436 171.01 252.315C162.468 251.849 153.957 250.917 145.372 250.623Z" fill="#C55B2B"/>
<path d="M166.755 223.373C174.163 221.683 180.906 220.113 188.51 219.714C206.567 218.767 225.104 222.711 243.07 221.933C253.869 221.465 264.677 216.992 276.011 216.19C273.813 223.264 264.513 225.221 259.488 228.558L257.143 229.374C246.611 227.291 234.743 241.76 223.241 239.849C216.334 238.7 215.532 230.795 210.065 228.371C201.798 224.705 190.406 224.888 181.409 225.184C177.304 225.319 173.177 225.926 169.082 225.422C167.815 225.272 167.507 224.399 166.755 223.373Z" fill="#9B2F30"/>
<path d="M291.045 220.063C297.598 223.71 303.021 225.325 310.339 226.708C313.434 235.684 319.4 241.765 305.669 244.942C294.108 247.617 281.857 248.102 270.112 249.705C266.946 250.076 256.757 251.161 253.969 251.053C259.5 238.464 285.275 241.88 290.766 236.585C295.261 232.249 288.477 227.818 288.896 223.157C289.031 221.651 289.941 220.977 291.045 220.063Z" fill="#9B2F30"/>
<path d="M259.488 228.558C260.976 229.243 261.08 229.251 262.132 230.454C263.054 234.311 256.055 236.791 253.084 235.524C251.544 233.104 254.439 230.879 256.39 229.78C256.637 229.64 256.892 229.505 257.143 229.375L259.488 228.558Z" fill="white"/>
<path d="M184.031 226.555C187.969 226.428 192.47 230.325 190.133 234.695C185.726 234.839 180.971 231.224 184.031 226.555Z" fill="white"/>
<path d="M228.123 241.815C229.949 241.699 231.329 241.87 232.398 243.482C232.98 246.226 231.385 247.309 229.187 248.525C227.536 248.621 226.691 248.333 225.467 247.326C224.394 244.539 226.065 243.403 228.123 241.815Z" fill="white"/>
<path d="M135.836 227.64C137.199 227.917 137.794 228.556 138.325 229.766C138.237 232.681 136.002 233.435 133.594 233.949C131.585 233.354 130.469 232.691 130.67 230.467C132.263 228.149 133.122 228.183 135.836 227.64Z" fill="white"/>
<path d="M278.87 222.24C280.314 222.263 280.908 222.215 281.351 223.7C280.912 225.354 280.529 225.584 279.333 226.907C277.721 226.81 277.067 226.781 276.621 225.142C277.127 223.518 277.494 223.393 278.87 222.24Z" fill="white"/>
<path d="M275.827 109.08C278.403 110.432 280.732 111.582 283.121 113.271C290.539 117.733 294.403 119.89 291.667 129.554C289.949 134.692 286.647 136.778 282.523 140.012C279.875 142.087 277.219 144.001 274.982 146.546C269.733 152.523 268.003 162.099 260.194 165.616C251.221 170.94 243.161 151.475 236.394 147.06C229.199 142.367 224.876 141.097 216.761 138.488C204.553 137.599 201.949 136.494 188.962 138.297C183.506 139.995 179.535 141.278 175.095 145.174C170.727 148.892 167.584 152.112 161.979 153.662C161.358 153.31 159.657 152.286 159.063 152.099C153.719 148.775 152.69 138.867 146.25 133.3C138.447 126.555 132.419 129.178 123.04 129.66L122.646 128.902C122.609 125.636 124.996 121.741 126.95 119.229C129.508 116.434 131.012 115.278 134.306 113.469C138.763 115.231 143.485 116.635 148.085 117.973C156.738 120.423 162.77 121.573 171.729 119.865C183.355 126.378 203.145 122.96 216.374 123.126C232.733 123.33 251.532 126.334 266.547 118.66C270.754 116.51 273.271 112.908 275.827 109.08Z" fill="#F03946"/>
<path d="M275.827 109.08C278.403 110.432 280.732 111.582 283.121 113.271C273.861 122.126 270.818 126.694 255.736 126.755C252.545 126.768 246.93 126.156 243.951 126.305C226.886 127.157 209.925 126.863 192.849 127.098C188.45 127.158 180.967 125.648 176.175 125.35C170.531 124.999 164.139 125.36 158.744 124.374C155.825 123.841 150.757 121.249 147.703 120.13L148.085 117.973C156.738 120.423 162.77 121.573 171.729 119.865C183.355 126.378 203.146 122.96 216.374 123.126C232.733 123.33 251.532 126.334 266.547 118.66C270.754 116.51 273.271 112.908 275.827 109.08Z" fill="#9B2F30"/>
<path d="M262.711 159.767C255.141 165.22 247.177 157.25 249.925 152.998C252.96 151.213 256.389 155.579 258.878 154.568C262.822 152.964 264.37 144.355 266.97 140.974C271.384 135.235 278.359 134.144 281.913 128.025C283.556 125.192 282.084 122.092 281.095 119.392L281.538 119.108C283.935 119.852 285.45 123.199 285.043 125.608C284.27 130.224 281.239 133.23 277.793 136.042C281.191 135.675 288.664 131.514 291.667 129.555C289.949 134.692 286.647 136.778 282.523 140.012C279.875 142.088 277.219 144.002 274.982 146.547C269.733 152.523 268.003 162.1 260.194 165.616C260.553 162.854 262.08 162.72 262.711 159.767Z" fill="url(#paint0_linear_460_1787)"/>
<path d="M277.793 136.042C281.191 135.675 288.665 131.514 291.668 129.555C289.949 134.692 286.647 136.778 282.523 140.012C279.875 142.088 277.219 144.002 274.982 146.547C269.733 152.523 268.003 162.1 260.194 165.616C260.553 162.854 262.08 162.72 262.711 159.767C270.611 150.994 263.851 145.103 277.793 136.042Z" fill="#9B2F30"/>
<path d="M190.375 134.864C198.181 130.357 205.794 131.036 213.12 135.693C214.499 136.571 215.56 137.718 216.761 138.488C204.553 137.599 201.949 136.494 188.962 138.297C189.247 137.264 189.914 135.858 190.375 134.864Z" fill="#9B2F30"/>
<path d="M134.307 113.469C138.763 115.232 143.485 116.636 148.085 117.973L147.703 120.13C137.843 118.13 135.28 119.972 126.951 119.23C129.508 116.435 131.012 115.279 134.307 113.469Z" fill="#9B2F30"/>
<path d="M171.168 145.999C172.741 146.086 173.602 145.67 175.095 145.174C170.727 148.892 167.584 152.112 161.979 153.662C161.358 153.311 159.657 152.287 159.063 152.099C164.032 150.164 166.549 148.596 171.168 145.999Z" fill="#9B2F30"/>
<path d="M171.168 145.999C174.607 142.382 185.022 137.954 189.081 135.609L190.375 134.864C189.914 135.858 189.247 137.264 188.962 138.297C183.506 139.995 179.535 141.279 175.095 145.174C173.602 145.67 172.741 146.086 171.168 145.999Z" fill="#D1272F"/>
<path d="M136.041 121.081C149.991 119.895 154.16 133.632 164.114 137.01C167.878 138.288 178.218 129.128 184.051 130.521C185.895 130.961 188.696 131.471 189.812 133.052C188.034 134.863 185.78 133.507 183.529 134.003C182.59 134.21 181.135 135.051 180.267 135.537C175.574 138.39 169.287 144.476 163.717 143.65C150.383 141.672 149.869 118.942 133.244 123.926C131.796 124.36 129.971 125.273 128.455 125.137L128.348 124.475C130.004 122.712 133.733 121.754 136.041 121.081Z" fill="url(#paint1_linear_460_1787)"/>
<path d="M215.524 133.129C223.157 132.204 236.876 138.823 239.867 145.862C235.776 145.783 227.696 137.837 223.078 136.552C221.802 136.197 216.222 134.063 215.524 133.129Z" fill="white"/>
<path d="M176.908 100.719C180.598 89.2905 185.805 79.1565 196.988 73.5631C214.639 64.7363 235.141 70.49 249.741 82.4808C255.967 87.5955 264.856 94.3186 265.897 102.818C263.057 117.105 229.028 111.759 218.631 111.707C215.133 111.69 208.789 112.068 205.662 111.731L200.194 111.872C194.89 112.92 187.003 112.882 181.647 112.202C174.64 111.312 175.934 105.969 176.908 100.719Z" fill="#F03946"/>
<path d="M205.662 111.731C206.639 111.195 212.729 111.027 214.312 110.869C219.696 110.333 226.818 108.755 232.099 108.7C242.778 108.59 252.035 111.844 261.825 105.353C263.313 104.368 264.262 104.18 265.897 102.818C263.058 117.104 229.028 111.758 218.631 111.707C215.134 111.69 208.789 112.067 205.662 111.731Z" fill="#9B2F30"/>
<path d="M176.908 100.719C181.167 107.115 192.749 112.058 200.194 111.872C194.89 112.919 187.003 112.882 181.647 112.201C174.64 111.311 175.934 105.968 176.908 100.719Z" fill="#9B2F30"/>
<path d="M183.121 97.3754L182.502 97.0743C182.278 96.1999 182.137 96.3531 182.7 95.5174C185.843 90.8574 195.186 96.458 190.922 100.935C190.315 102.445 189.128 103.752 187.8 104.676C183.887 105.203 183.62 99.8969 183.121 97.3754Z" fill="#9B2F30"/>
<path d="M183.121 97.3754L182.502 97.0743C182.278 96.1999 182.137 96.3531 182.7 95.5174C185.843 90.8574 195.186 96.458 190.922 100.935C189.498 98.9862 189.368 97.474 186.883 96.4348C185.082 96.3419 184.83 96.5896 183.121 97.3754Z" fill="white"/>
<path d="M208.809 77.8295C207.939 76.7664 208.174 77.2587 208.139 75.6878C210.26 70.9154 217.092 72.9441 217.933 77.9495L217.526 78.6061L216.609 78.5399C213.319 83.647 211.285 82.6913 208.809 77.8295Z" fill="#9B2F30"/>
<path d="M208.809 77.8295C207.939 76.7664 208.174 77.2587 208.139 75.6878C210.26 70.9154 217.092 72.9441 217.933 77.9495L217.526 78.6061L216.609 78.5399C214.866 76.6651 214.025 76.0731 211.939 74.5545C210.922 75.525 209.79 76.7915 208.809 77.8295Z" fill="white"/>
<path d="M199.405 88.2191L198.34 87.7488C198.46 84.7076 204.366 84.4554 206.767 86.568C207.233 87.4476 207.377 89.1612 206.771 89.9941C205.327 92.0879 203.772 95.3166 200.912 94.4155C198.727 92.0445 199.481 91.2427 199.405 88.2191Z" fill="#9B2F30"/>
<path d="M199.405 88.2191L198.34 87.7488C198.46 84.7076 204.366 84.4554 206.767 86.568C207.233 87.4476 207.377 89.1612 206.771 89.9941C204.035 87.8624 202.731 86.2273 199.405 88.2191Z" fill="white"/>
<path d="M236.27 102.122C234.731 101.747 235.126 102.085 234.38 101.014C237.793 94.7138 246.511 97.2113 243.325 103.105L243.847 103.443C243.596 104.564 243.169 105.018 242.208 105.717C239.568 107.64 237.283 103.531 236.27 102.122Z" fill="#9B2F30"/>
<path d="M236.27 102.122C234.731 101.747 235.126 102.085 234.38 101.014C237.793 94.7138 246.511 97.2113 243.325 103.105C241.662 101.689 240.944 100.14 238.934 99.8552C237.478 100.315 237.271 100.846 236.27 102.122Z" fill="white"/>
<path d="M215.524 99.6206L215.193 98.8495C217.199 96.1394 221.614 96.855 223.429 99.7183L223.365 100.4L222.252 100.789C221.845 103.405 221.69 104.887 219.114 106.056C214.958 105.983 215.205 102.746 215.524 99.6206Z" fill="#9B2F30"/>
<path d="M215.524 99.6206L215.193 98.8495C217.199 96.1394 221.614 96.855 223.429 99.7183L223.365 100.4L222.252 100.789C219.325 99.4917 218.563 99.2875 215.524 99.6206Z" fill="white"/>
<path d="M226.352 83.273L225.666 82.4839C226.503 79.0981 231.357 79.2429 233.502 81.6538C233.801 82.7879 233.917 84.1003 233.068 85.0353C229.726 89.5819 227.556 87.8647 226.352 83.273Z" fill="#9B2F30"/>
<path d="M226.352 83.273L225.666 82.4839C226.503 79.0981 231.357 79.2429 233.502 81.6538C233.801 82.7879 233.917 84.1003 233.068 85.0353C231.847 83.6403 231.229 82.4692 229.51 81.9135C227.951 81.9426 227.7 82.3084 226.352 83.273Z" fill="white"/>
<path d="M248.657 95.1711L248.075 94.8128C249.355 91.1498 255.68 92.5036 253.742 96.9916C254.005 97.2114 253.837 97.0327 253.913 97.704L253.175 98.5836C251.652 99.1417 252.298 99.0667 250.635 98.6666C249.367 97.7435 249.203 96.6925 248.657 95.1711Z" fill="white"/>
<path d="M248.657 95.1709C251.277 95.4318 251.528 95.8606 253.742 96.9915C254.005 97.2113 253.837 97.0326 253.913 97.7039L253.175 98.5835C251.652 99.1415 252.298 99.0665 250.635 98.6665C249.367 97.7434 249.203 96.6923 248.657 95.1709Z" fill="#9B2F30"/>
<path d="M143.338 100.682C143.879 100.33 144.43 99.9944 144.992 99.6761C153.979 94.5825 157.67 92.2227 167.583 94.9272C167.002 96.7306 166.58 98.532 166.125 100.37C165.752 103.509 165.225 106.998 165.313 110.128C161.278 109.844 142.549 105.996 140.046 103.756C140.423 102.494 142.197 101.352 143.338 100.682Z" fill="#03673B"/>
<path d="M143.338 100.682C143.879 100.33 144.43 99.9944 144.992 99.6761C153.979 94.5825 157.67 92.2227 167.583 94.9272C167.002 96.7306 166.58 98.532 166.125 100.37C162.809 100.883 145.536 101.543 143.338 100.682Z" fill="#138542"/>
<path d="M171.393 85.4038C170.214 82.1576 166.971 64.1425 167.122 60.8827L167.691 60.4299C169.108 60.5731 169.7 61.2014 170.878 62.0714C174.822 64.7492 178.396 67.9252 181.914 71.132C179.643 73.3184 178.588 74.5793 176.616 77.068C174.928 79.5747 173.019 82.8014 171.393 85.4038Z" fill="#03673B"/>
<path d="M170.878 62.0715C174.822 64.7493 178.396 67.9254 181.914 71.1321C179.643 73.3185 178.588 74.5794 176.617 77.0681C175.536 75.3788 170.504 63.5933 170.878 62.0715Z" fill="#138542"/>
<path d="M193.646 3.94891C221.578 2.82082 249.925 8.407 273.977 23.035C303.201 40.7509 324.234 69.31 332.485 102.48C339.803 132.747 334.786 162.481 318.666 188.957C315.332 172.88 310.989 157.028 305.665 141.495C305.984 140.864 306.296 140.23 306.599 139.592C310.319 131.688 310.866 121.987 307.978 114.143C303.695 102.499 291.707 98.641 282.208 92.5798C279.823 91.0568 276.557 84.0605 274.216 81.5123C251.959 57.2912 224.202 44.4738 191.596 56.6342C188 53.2201 185.192 50.8522 181.212 47.9566C172.5 41.9667 159.864 38.024 152.978 48.8569C147.88 56.878 150.266 68.1209 152.242 76.8752C145.219 80.0979 138.887 82.7254 132.396 87.0798C124.713 92.2336 122.436 100.196 115.33 106.28C109.555 111.224 104.476 122.597 105.077 130.154C105.395 134.153 106.818 137.549 109.158 140.985C107.67 148.793 105.332 156.837 103.697 164.674C100.59 179.556 97.3664 195.7 95.7089 210.778C90.574 204.662 85.5738 199.706 81.0678 192.85C70.6 176.922 65.8954 153.968 65.1652 135.208C63.8248 100.788 74.3794 67.1711 97.7452 41.5535C122.52 14.3909 157.793 5.13403 193.646 3.94891Z" fill="#FFF7E6"/>
<path fill-rule="evenodd" clip-rule="evenodd" d="M173.714 285.073C173.865 285.048 174.02 285.049 174.174 285.05C174.238 285.05 174.303 285.051 174.367 285.049C187.96 284.731 203.405 293.634 203.696 308.684C203.807 314.436 199.4 319.414 195.032 324.348C191.431 328.417 187.856 332.455 186.865 336.87C185.769 341.754 193.809 345.821 198.811 345.961C200.347 346.004 200.518 344.085 200.692 342.141C200.784 341.114 200.877 340.079 201.171 339.323C203.258 333.971 206.336 328.745 211.863 326.379C214.703 325.163 219.697 324.546 222.539 325.793C223.952 326.413 225.031 327.603 225.518 329.072C226.456 331.899 223.96 336.794 221.438 341.74C218.62 347.266 215.77 352.855 217.642 355.694C220.032 359.32 222.794 361.744 225.062 363.735C229.993 368.063 232.591 370.343 223.971 378.467C218.398 383.72 213.924 382.019 208.514 379.961C205.471 378.804 202.131 377.534 198.133 377.326C192.628 377.04 188.565 379.485 184.381 382.002C180.598 384.279 176.716 386.614 171.581 387.044C160.295 387.987 147.516 383.278 147.27 370.114C147.143 363.319 151.854 356.95 156.493 350.677C159.842 346.148 163.154 341.67 164.583 337.117C165.695 333.576 162.888 329.69 160.17 325.926C158.667 323.845 157.19 321.801 156.419 319.873C149.772 303.267 154.505 288.277 173.714 285.073ZM185.202 366.17C185.313 366.113 185.338 365.974 185.262 365.876L176.035 354.012C175.956 353.91 175.806 353.905 175.727 354.007C174.675 355.379 168.604 363.626 171.796 367.425C174.928 371.153 183.744 366.909 185.202 366.17ZM178.602 327.949C175.714 328.911 171.796 315.697 171.796 310.253C171.796 305.742 177.05 302.453 178.602 302.085C180.154 301.718 181.539 301.772 182.686 302.085C185.039 302.727 185.74 304.675 186.548 306.92C186.621 307.121 186.694 307.325 186.769 307.53C187.686 310.025 186.77 315.697 186.77 315.697C186.056 321.403 182.686 326.587 178.602 327.949Z" fill="#3E0D2C"/>
<path d="M92.7354 287.063C103.785 286.305 104.38 296.026 104.077 304.148C103.787 310.746 103.83 318.289 102.644 324.807C100.067 338.972 102.208 350.289 104.281 364.326C109.757 360.385 116.526 355.614 123.322 356.48C135.749 358.067 134.31 371.103 128.108 378.483C124.526 382.747 122.295 384.909 118.053 388.22C97.6156 403.506 81.0713 396.126 77.906 370.979C75.837 354.541 71.93 292.927 92.7354 287.063Z" fill="#3E0D2C"/>
<path d="M306.571 284.626C323.205 283.964 321.937 303.729 321.402 314.771C319.743 348.953 305.031 402.828 259.341 379.021C251.046 373.999 244.904 362.332 249.953 353.241C257.825 339.08 274.786 362.088 285.602 357.82C295.006 353.739 293.965 343.248 294.698 334.66C295.943 320.104 294.794 303.538 300.234 289.772C301.434 286.736 303.739 285.54 306.571 284.626Z" fill="#3E0D2C"/>
<path d="M71.8834 249.999C88.2151 249.272 78.8584 264.65 65.1469 266.125C59.4061 266.021 52.8067 262.951 57.8588 256.34C61.052 252.161 66.9056 250.747 71.8834 249.999Z" fill="#3E0D2C"/>
<path d="M312.565 259.586C315.787 259.409 329.135 258.67 325.091 266.767C323.783 269.384 317.39 271.008 314.359 271.484C295.313 271.895 293.558 261.316 312.565 259.586Z" fill="#3E0D2C"/>
<path d="M87.9407 256.325C96.4627 255.98 114.31 260.837 97.7712 267.776C83.7059 272.163 76.2475 259.339 87.9407 256.325Z" fill="#3E0D2C"/>
<path d="M331.225 248.329C331.528 248.311 331.827 248.299 332.13 248.291C335.807 248.203 344.058 249.776 344.074 254.358C342.945 256.456 341.235 256.773 339.005 257.551C327.955 259.979 320.728 251.784 331.225 248.329Z" fill="#3E0D2C"/>
<path d="M84.044 239.73C89.4501 239.591 89.3137 244.936 86.2123 248.376C80.9357 248.238 80.8974 243.098 84.044 239.73Z" fill="#3E0D2C"/>
<path d="M215.847 269.944C217.016 269.521 218.32 269.773 219.249 270.602C220.174 271.431 220.573 272.703 220.282 273.911C219.991 275.12 219.062 276.074 217.861 276.389C216.115 276.851 214.312 275.858 213.774 274.131C213.231 272.404 214.145 270.561 215.847 269.944Z" fill="#3E0D2C"/>
<path d="M332.856 261.691C334.603 261.239 336.389 262.279 336.856 264.022C337.322 265.765 336.297 267.558 334.559 268.039C332.8 268.527 330.981 267.487 330.511 265.723C330.036 263.96 331.093 262.149 332.856 261.691Z" fill="#3E0D2C"/>
<path d="M224.777 271.213C225.323 270.769 226.069 270.666 226.711 270.948C227.357 271.229 227.788 271.847 227.831 272.547C227.875 273.249 227.524 273.916 226.918 274.275C226.077 274.777 224.988 274.542 224.426 273.74C223.867 272.934 224.019 271.833 224.777 271.213Z" fill="#3E0D2C"/>
<defs>
<linearGradient id="paint0_linear_460_1787" x1="269.016" y1="118.823" x2="264.641" y2="161.408" gradientUnits="userSpaceOnUse">
<stop stop-color="#FFEBF3"/>
<stop offset="1" stop-color="white"/>
</linearGradient>
<linearGradient id="paint1_linear_460_1787" x1="155.873" y1="117.514" x2="161.325" y2="143.548" gradientUnits="userSpaceOnUse">
<stop stop-color="#FFE7F3"/>
<stop offset="1" stop-color="white"/>
</linearGradient>
</defs>
</svg>
