<svg width="100" height="100" viewBox="0 0 100 100" fill="none" xmlns="http://www.w3.org/2000/svg">
<path d="M40.7191 12.223C42.9797 11.8764 46.2669 14.5012 47.5799 16.2186C54.6288 12.3993 62.0754 15.798 67.0435 21.183C67.891 22.1016 68.4443 23.126 68.9338 24.2587C72.9936 26.2861 76.841 27.8194 75.531 33.1427C75.3336 33.9448 74.9986 34.4509 74.527 35.1109C75.1132 36.3072 75.6117 38.1257 75.9956 39.4097C77.6177 44.8296 78.4711 50.4632 80.172 55.8601C80.5349 57.0127 81.1102 58.1945 81.2378 59.4012C81.4651 61.5603 79.6915 63.0437 77.8191 63.6552C76.1312 64.2129 74.3765 64.366 72.6287 64.5823C70.0834 64.9044 67.532 65.1776 64.9757 65.4018C63.4972 65.5893 61.2968 65.6922 59.7753 65.7814C54.7395 66.0554 49.6937 66.0977 44.6539 65.9078C42.355 65.8102 40.0938 65.6065 37.7999 65.4633C35.1794 65.3293 32.8809 65.419 30.2577 65.0221C27.8058 64.6512 24.4705 63.3433 24.3379 60.3735C24.2967 59.4532 24.9487 58.1527 25.0666 57.1281C25.5497 52.924 26.116 48.7213 26.9075 44.5629C27.5238 41.2175 28.4959 38.0092 29.0494 34.6847C26.871 32.4686 28.3584 29.6824 30.0639 27.6518C30.5971 27.017 31.3203 26.5561 32.0089 26.0991C32.0976 23.2112 37.5087 21.0196 39.9214 20.6467C39.6673 19.2489 39.4165 17.8122 39.2314 16.4033C39.0005 14.6461 38.9709 13.1549 40.7191 12.223Z" fill="#3E0D2C"/>
<path d="M31.6099 35.1829C35.3785 34.2865 35.2158 35.9316 36.7374 38.6834C37.5147 40.0889 39.3289 41.2118 40.9443 41.0341C43.6948 40.7492 45.2673 37.829 47.9399 37.2491C50.7255 36.6444 54.4135 37.2089 56.9349 38.5661C59.6826 40.3169 60.897 45.1392 65.1602 44.3265C66.8471 43.9739 68.3605 42.4253 69.2299 40.9709C70.3655 39.0297 70.5071 38.3605 72.4483 37.0057C74.4532 43.0911 75.519 48.7024 77.0993 54.8664C75.7653 54.6001 74.4104 54.0474 73.2349 53.3687C69.8241 51.6932 67.4613 52.4286 63.9279 53.256C61.8122 53.7432 61.0585 53.8442 58.8551 53.7999C57.6448 53.7824 56.3636 53.6666 55.1493 53.5775L50.253 53.2126C47.0229 53.1505 45.5475 53.2156 42.3996 53.9584C40.9993 54.3117 39.7295 54.5558 38.3147 54.8225C36.8314 55.0088 35.7036 55.0109 34.2048 54.9978C32.0756 54.9268 30.2932 54.2916 28.2705 53.6943C27.8188 52.8689 30.3323 41.1188 30.7453 39.4909C31.0639 38.1616 31.4751 36.5425 31.6099 35.1829Z" fill="#FCBC6C"/>
<path d="M42.3996 53.9584C42.369 53.8927 42.3315 53.8171 42.3218 53.7443C42.2749 53.3926 42.7764 51.7176 42.8689 51.2059C43.3611 48.4819 44.1423 41.1822 45.6182 39.1279C46.2902 38.1926 47.4068 37.5672 48.5421 37.4047C49.3088 37.295 50.0366 37.4816 50.6458 37.9637C52.245 39.2284 52.6946 41.8373 52.906 43.7411C53.2031 46.4168 53.224 48.8067 52.1044 51.3097C51.8522 51.8735 51.5381 52.518 51.1194 52.9769C50.8701 53.2504 50.592 53.1969 50.253 53.2126C47.0229 53.1506 45.5475 53.2156 42.3996 53.9584Z" fill="#FFF7E6"/>
<path d="M50.2769 39.9688C51.6877 40.5073 51.6189 45.5415 51.3756 46.9392C51.1802 48.0561 50.4056 48.6512 49.5422 49.2196C49.1194 49.2912 49.0048 49.265 48.7027 48.9539C48.3856 47.886 49.3796 46.6649 49.7924 45.5982C50.5033 43.765 49.4345 41.5954 50.2769 39.9688Z" fill="white"/>
<path d="M47.2652 39.5879C47.6874 39.6436 47.8183 39.7501 47.9898 40.1245C47.8831 40.71 47.4986 40.7203 47.13 41.2546C46.6368 41.9695 46.9077 42.6049 46.216 43.1037C45.663 42.8318 45.2575 42.6939 45.406 41.9728C45.5954 41.0526 46.5211 40.0932 47.2652 39.5879Z" fill="#FCBC6C"/>
<path d="M48.2072 41.7546C48.608 41.9284 48.7306 42.033 48.8133 42.4674C48.6847 42.9396 48.7765 42.7613 48.4076 43.1415C47.9898 43.0098 47.8931 42.9565 47.7784 42.5252C47.8502 42.137 47.9459 42.0739 48.2072 41.7546Z" fill="#FCBC6C"/>
<path d="M48.6967 50.1643C49.0696 50.2806 49.1434 50.3359 49.266 50.6914C49.2032 51.0353 49.0357 51.175 48.8024 51.4489C48.3906 51.3346 48.2889 51.2871 48.2181 50.851C48.3448 50.4577 48.3767 50.4485 48.6967 50.1643Z" fill="white"/>
<path d="M63.9279 53.2561C63.7195 53.1834 63.6527 53.2144 63.6049 53.0501C63.3327 51.9294 62.9419 49.3489 63.5032 48.311C64.6587 46.1739 67.0735 43.5393 69.1881 42.4117C70.8332 41.5341 71.9707 43.1427 72.3606 44.5118C72.7972 46.0439 73.7015 52.0878 73.2349 53.3688C69.8242 51.6933 67.4613 52.4288 63.9279 53.2561Z" fill="#FFF7E6"/>
<path d="M64.8402 47.2C65.0147 47.2531 65.1074 47.294 65.2769 47.363C65.5889 47.8879 64.884 49.6978 64.8103 50.368C64.7624 50.8058 64.7056 51.3027 64.6208 51.7317C63.5929 51.4984 64.3875 47.8362 64.8402 47.2Z" fill="white"/>
<path d="M68.879 43.6814C70.22 43.9036 69.8451 45.0121 68.8521 45.5891C68.4433 45.5023 68.225 45.3876 67.9966 45.0598C67.87 44.2953 68.22 44.0304 68.879 43.6814Z" fill="#FCBC6C"/>
<path d="M67.6786 46.8848C68.2459 46.941 68.5011 46.977 68.6587 47.5351C68.5769 47.9621 68.4573 48.0716 68.203 48.4208C67.3486 48.1852 67.0734 47.5874 67.6786 46.8848Z" fill="white"/>
<path d="M66.4573 48.8602C66.6467 48.76 66.88 48.818 67.0006 48.9948C67.1213 49.1716 67.0904 49.4108 66.9278 49.5502C66.8052 49.6553 66.6337 49.6811 66.4862 49.6166C66.3376 49.5519 66.2399 49.4085 66.2339 49.2474C66.228 49.0862 66.3147 48.9358 66.4573 48.8602Z" fill="white"/>
<path d="M55.1492 53.5775C54.557 50.9269 54.4693 48.3803 54.4892 45.6546C54.4962 44.8087 54.3736 39.4745 55.7933 39.5344C58.0784 39.631 58.8411 43.4553 58.7654 45.2083C58.7853 48.289 58.221 50.8839 58.8551 53.7998C57.6447 53.7824 56.3636 53.6666 55.1492 53.5775Z" fill="#FFF7E6"/>
<path d="M55.6428 46.9231C55.913 46.9808 55.912 46.963 56.1273 47.1274C56.242 47.5294 56.2709 51.7373 56.1492 52.0631C55.2719 51.2299 55.4324 48.0447 55.6428 46.9231Z" fill="white"/>
<path d="M55.6448 42.0596C56.559 42.3421 56.4234 43.0398 56.1164 43.7775C55.9878 43.8064 55.8651 43.807 55.7315 43.8164L55.575 43.6631C55.3906 43.1711 55.4643 42.5423 55.6448 42.0596Z" fill="#FCBC6C"/>
<path d="M34.2048 54.9978C34.2209 54.6088 35.4288 52.7109 35.6031 51.9635C37.0216 45.8857 34.8963 45.1281 41.7351 43.7876C41.2911 45.9268 41.3785 47.8394 40.588 50.0696C39.8658 52.1067 38.4082 52.8087 38.3147 54.8225C36.8314 55.0088 35.7036 55.0109 34.2048 54.9978Z" fill="#FFF7E6"/>
<path d="M40.4417 45.2607C41.5626 45.876 39.7058 49.8853 39.2412 50.648L39.0828 50.6217L39.0267 50.4503C39.2577 49.5916 40.1523 45.7132 40.4417 45.2607Z" fill="white"/>
<path d="M38.4361 46.0537C38.8242 46.2602 38.8303 46.359 38.8186 46.7599C38.6302 47.1466 38.5746 47.1585 38.2094 47.4175C37.4178 47.0963 38.0843 46.4148 38.4361 46.0537Z" fill="#FCBC6C"/>
<path d="M30.7453 39.491C35.0119 43.5089 30.2021 49.45 28.6029 53.544C28.5604 53.6526 28.3737 53.6679 28.2705 53.6945C27.8188 52.869 30.3323 41.1189 30.7453 39.491Z" fill="#FFF7E6"/>
<path d="M30.8909 42.061C31.1676 42.0886 31.4774 42.0877 31.5301 42.4356C31.7518 43.9028 31.1224 45.5639 30.4791 46.8454L30.2606 46.9309L30.1724 46.7343C30.2355 45.8273 30.4733 42.7032 30.8909 42.061Z" fill="white"/>
<path d="M69.0026 54.0474C70.7384 54.0577 71.1901 54.277 72.7614 55.0156C74.3994 55.9272 75.7554 56.3308 77.5849 56.6766C78.3585 58.9208 79.85 60.441 76.4174 61.2352C73.5271 61.9039 70.4643 62.0251 67.5281 62.4259C66.7365 62.5188 64.1891 62.7899 63.4922 62.763C60.6657 63.0773 56.5052 63.2609 53.6727 63.2581C50.0317 63.3372 46.389 63.2773 42.7526 63.0785C40.6171 62.962 38.4893 62.729 36.3429 62.6554C35.7741 62.6976 34.8467 62.6746 34.2776 62.6334C31.9709 62.466 28.3003 62.5897 26.938 60.3916C27.377 58.9948 27.9286 57.1542 27.8202 55.6569L27.9882 55.459C28.5728 55.456 30.935 56.2302 31.6972 56.4261C34.1053 57.0449 39.3639 56.7095 41.6888 55.8431C43.5407 55.4205 45.2264 55.028 47.1276 54.9282C51.6418 54.6916 56.2759 55.6776 60.7674 55.483C63.4673 55.3659 66.1692 54.2477 69.0026 54.0474Z" fill="#C55B2B"/>
<path d="M27.8202 55.6572C28.1507 56.443 28.6457 56.3097 29.2841 56.8809C29.8169 57.3575 30.7362 59.0242 31.4048 59.2015C33.2173 59.6822 36.0717 59.7605 37.8995 59.2655C38.8587 59.0057 37.7022 57.5187 38.4316 57.176C40.1633 56.4984 41.8425 58.1373 43.1222 58.9398C44.9246 60.07 46.7102 60.8217 48.7715 61.2607C50.7784 61.7244 52.8522 59.5254 54.3806 61.5471C54.6966 61.9649 53.911 62.9249 53.6727 63.2584C50.0317 63.3375 46.389 63.2776 42.7525 63.0788C40.6171 62.9624 38.4893 62.7293 36.3429 62.6557C35.7741 62.6979 34.8467 62.675 34.2776 62.6337C31.9709 62.4663 28.3003 62.59 26.938 60.3919C27.377 58.9951 27.9286 57.1545 27.8202 55.6572Z" fill="#9B2F30"/>
<path d="M36.3429 62.6556C36.5983 62.0888 37.4166 61.9283 37.8828 61.6268C39.0889 60.8471 42.3923 61.609 42.7525 63.0787C40.6171 62.9622 38.4892 62.7292 36.3429 62.6556Z" fill="#C55B2B"/>
<path d="M41.6887 55.8431C43.5407 55.4205 45.2264 55.028 47.1276 54.9282C51.6418 54.6916 56.2759 55.6776 60.7674 55.483C63.4673 55.3659 66.1691 54.2477 69.0026 54.0474C68.4533 55.8157 66.1283 56.305 64.872 57.1392L64.2858 57.3434C61.6527 56.8224 58.6856 60.4398 55.8103 59.9619C54.0835 59.6748 53.8831 57.6985 52.5162 57.0926C50.4494 56.176 47.6014 56.2219 45.3523 56.2958C44.3261 56.3295 43.2941 56.4812 42.2705 56.3553C41.9537 56.3177 41.8768 56.0994 41.6887 55.8431Z" fill="#9B2F30"/>
<path d="M72.7613 55.0156C74.3994 55.9272 75.7553 56.3309 77.5848 56.6766C78.3585 58.9208 79.85 60.441 76.4173 61.2353C73.527 61.9039 70.4642 62.0252 67.5281 62.426C66.7364 62.5188 64.1891 62.79 63.4922 62.763C64.875 59.6157 71.3187 60.4698 72.6915 59.1459C73.8151 58.0619 72.1193 56.9544 72.2239 55.789C72.2578 55.4126 72.4852 55.244 72.7613 55.0156Z" fill="#9B2F30"/>
<path d="M64.8721 57.1394C65.2439 57.3106 65.2699 57.3126 65.5331 57.6134C65.7634 58.5776 64.0136 59.1977 63.2709 58.881C62.886 58.2759 63.6099 57.7196 64.0974 57.4449C64.1592 57.41 64.223 57.3761 64.2858 57.3435L64.8721 57.1394Z" fill="white"/>
<path d="M46.0076 56.6387C46.9922 56.607 48.1174 57.5812 47.5331 58.6738C46.4314 58.7098 45.2427 57.8061 46.0076 56.6387Z" fill="white"/>
<path d="M57.0306 60.4535C57.4872 60.4246 57.8322 60.4673 58.0994 60.8704C58.245 61.5563 57.8462 61.8271 57.2968 62.1311C56.8841 62.1549 56.6727 62.0831 56.3666 61.8312C56.0984 61.1344 56.5162 60.8505 57.0306 60.4535Z" fill="white"/>
<path d="M33.959 56.9099C34.2998 56.9793 34.4484 57.1389 34.5812 57.4414C34.5592 58.1701 34.0005 58.3587 33.3985 58.4874C32.8963 58.3386 32.6172 58.1728 32.6676 57.6169C33.0657 57.0374 33.2804 57.0456 33.959 56.9099Z" fill="white"/>
<path d="M69.7175 55.5598C70.0784 55.5654 70.2269 55.5535 70.3376 55.9247C70.2279 56.3383 70.1322 56.3957 69.8331 56.7265C69.4303 56.7023 69.2668 56.695 69.1552 56.2853C69.2818 55.8792 69.3735 55.8479 69.7175 55.5598Z" fill="white"/>
<path d="M68.9567 27.27C69.6008 27.6079 70.183 27.8954 70.7802 28.3177C72.6347 29.4333 73.6008 29.9725 72.9168 32.3886C72.4871 33.6729 71.6616 34.1945 70.6307 35.003C69.9687 35.5218 69.3047 36.0003 68.7454 36.6366C67.4333 38.1306 67.0006 40.5248 65.0485 41.4039C62.8052 42.7349 60.7903 37.8689 59.0983 36.7651C57.2998 35.5917 56.219 35.2743 54.1901 34.622C51.1383 34.3996 50.4872 34.1234 47.2405 34.5743C45.8765 34.9988 44.8837 35.3196 43.7736 36.2934C42.6817 37.223 41.896 38.0279 40.4947 38.4156C40.3394 38.3276 39.9142 38.0716 39.7658 38.0246C38.4298 37.1938 38.1724 34.7168 36.5625 33.325C34.6116 31.6387 33.1047 32.2945 30.7599 32.4149L30.6614 32.2254C30.6522 31.409 31.2491 30.4352 31.7376 29.8073C32.377 29.1085 32.7529 28.8195 33.5766 28.3672C34.6907 28.8078 35.8713 29.1588 37.0211 29.4932C39.1845 30.1057 40.6925 30.3933 42.9322 29.9663C45.8388 31.5944 50.7863 30.74 54.0934 30.7814C58.1831 30.8325 62.883 31.5835 66.6367 29.665C67.6885 29.1274 68.3176 28.2271 68.9567 27.27Z" fill="#F03946"/>
<path d="M68.9568 27.27C69.6009 27.6079 70.1831 27.8954 70.7803 28.3177C68.4653 30.5314 67.7046 31.6735 63.9339 31.6888C63.1363 31.692 61.7325 31.539 60.9877 31.5762C56.7216 31.7891 52.4813 31.7157 48.2121 31.7745C47.1125 31.7895 45.2419 31.4119 44.0438 31.3375C42.6327 31.2498 41.0347 31.34 39.6861 31.0935C38.9563 30.9601 37.6892 30.3123 36.9257 30.0324L37.0212 29.4932C39.1846 30.1057 40.6925 30.3933 42.9323 29.9663C45.8389 31.5944 50.7864 30.7401 54.0935 30.7814C58.1832 30.8325 62.883 31.5835 66.6368 29.665C67.6886 29.1274 68.3177 28.2271 68.9568 27.27Z" fill="#9B2F30"/>
<path d="M65.6776 39.9416C63.7853 41.3048 61.7943 39.3123 62.4812 38.2495C63.2399 37.8031 64.0974 38.8946 64.7195 38.6418C65.7055 38.2408 66.0924 36.0887 66.7424 35.2434C67.8461 33.8085 69.5899 33.5359 70.4782 32.0062C70.889 31.298 70.5211 30.523 70.2738 29.848L70.3845 29.7769C70.9837 29.9629 71.3625 30.7997 71.2608 31.4018C71.0674 32.5559 70.3097 33.3073 69.4483 34.0105C70.2977 33.9185 72.1661 32.8783 72.9169 32.3885C72.4871 33.6729 71.6616 34.1945 70.6307 35.0029C69.9687 35.5218 69.3047 36.0003 68.7454 36.6365C67.4333 38.1306 67.0006 40.5248 65.0485 41.4039C65.1382 40.7133 65.5201 40.6798 65.6776 39.9416Z" fill="url(#paint0_linear_460_1559)"/>
<path d="M69.4483 34.0106C70.2977 33.9186 72.1661 32.8784 72.9169 32.3887C72.4872 33.673 71.6616 34.1946 70.6307 35.0031C69.9687 35.5219 69.3047 36.0004 68.7454 36.6366C67.4334 38.1307 67.0007 40.5249 65.0485 41.404C65.1383 40.7134 65.5201 40.68 65.6776 39.9417C67.6527 37.7484 65.9628 36.2756 69.4483 34.0106Z" fill="#9B2F30"/>
<path d="M47.5937 33.716C49.5451 32.589 51.4484 32.7589 53.2799 33.9232C53.6249 34.1427 53.8901 34.4293 54.1901 34.622C51.1383 34.3996 50.4873 34.1234 47.2405 34.5742C47.3118 34.3159 47.4784 33.9643 47.5937 33.716Z" fill="#9B2F30"/>
<path d="M33.5766 28.3672C34.6908 28.8078 35.8713 29.1588 37.0212 29.4932L36.9257 30.0324C34.4608 29.5324 33.8199 29.9929 31.7377 29.8073C32.377 29.1085 32.753 28.8196 33.5766 28.3672Z" fill="#9B2F30"/>
<path d="M42.7919 36.4995C43.1852 36.5213 43.4006 36.4173 43.7737 36.2932C42.6817 37.2228 41.896 38.0277 40.4947 38.4154C40.3395 38.3274 39.9143 38.0714 39.7658 38.0244C41.008 37.5409 41.6372 37.1488 42.7919 36.4995Z" fill="#9B2F30"/>
<path d="M42.7919 36.4995C43.6517 35.5952 46.2556 34.4883 47.2702 33.9019L47.5937 33.7158C47.4784 33.9641 47.3118 34.3157 47.2406 34.574C45.8766 34.9986 44.8837 35.3194 43.7737 36.2932C43.4006 36.4173 43.1852 36.5213 42.7919 36.4995Z" fill="#D1272F"/>
<path d="M34.0101 30.27C37.4977 29.9737 38.54 33.4078 41.0284 34.2524C41.9696 34.5718 44.5545 32.282 46.0128 32.6301C46.4738 32.7402 47.174 32.8675 47.453 33.2629C47.0085 33.7155 46.445 33.3767 45.8822 33.5006C45.6474 33.5523 45.2838 33.7626 45.0668 33.8841C43.8936 34.5974 42.3217 36.119 40.9293 35.9123C37.5958 35.4178 37.4671 29.7354 33.3111 30.9813C32.9491 31.0898 32.4927 31.3181 32.1136 31.284L32.0871 31.1186C32.5011 30.6778 33.4332 30.4383 34.0101 30.27Z" fill="url(#paint1_linear_460_1559)"/>
<path d="M53.8811 33.2822C55.7894 33.0511 59.2191 34.7056 59.9668 36.4655C58.9439 36.4458 56.924 34.4592 55.7694 34.1381C55.4504 34.0491 54.0556 33.5158 53.8811 33.2822Z" fill="white"/>
<path d="M44.227 25.1798C45.1494 22.3226 46.4512 19.7891 49.247 18.3907C53.6597 16.184 58.7853 17.6224 62.4354 20.6202C63.9917 21.8988 66.214 23.5796 66.4742 25.7045C65.7643 29.2762 57.2569 27.9396 54.6577 27.9268C53.7834 27.9225 52.1971 28.0168 51.4155 27.9328L50.0486 27.968C48.7226 28.2299 46.7507 28.2205 45.4117 28.0504C43.6599 27.8279 43.9834 26.4921 44.227 25.1798Z" fill="#F03946"/>
<path d="M51.4155 27.9326C51.6598 27.7987 53.1822 27.7566 53.578 27.7171C54.924 27.5831 56.7046 27.1886 58.0247 27.175C60.6946 27.1473 63.0087 27.9609 65.4563 26.3382C65.8282 26.0919 66.0655 26.0448 66.4743 25.7043C65.7644 29.276 57.257 27.9395 54.6578 27.9266C53.7834 27.9223 52.1972 28.0167 51.4155 27.9326Z" fill="#9B2F30"/>
<path d="M44.227 25.1797C45.2917 26.7787 48.1872 28.0146 50.0486 27.9679C48.7226 28.2299 46.7507 28.2204 45.4117 28.0504C43.6599 27.8279 43.9834 26.4921 44.227 25.1797Z" fill="#9B2F30"/>
<path d="M45.7802 24.3437L45.6255 24.2684C45.5695 24.0498 45.5342 24.0881 45.6751 23.8792C46.4608 22.7142 48.7964 24.1143 47.7306 25.2336C47.5786 25.611 47.282 25.9379 46.95 26.1687C45.9719 26.3006 45.905 24.974 45.7802 24.3437Z" fill="#9B2F30"/>
<path d="M45.7802 24.3437L45.6255 24.2684C45.5695 24.0498 45.5342 24.0881 45.6751 23.8792C46.4608 22.7142 48.7964 24.1143 47.7306 25.2336C47.3746 24.7464 47.342 24.3683 46.7208 24.1085C46.2706 24.0853 46.2075 24.1472 45.7802 24.3437Z" fill="white"/>
<path d="M52.2021 19.4572C51.9848 19.1914 52.0436 19.3145 52.0346 18.9218C52.5651 17.7287 54.2729 18.2359 54.4833 19.4872L54.3816 19.6513L54.1523 19.6348C53.3298 20.9116 52.8213 20.6726 52.2021 19.4572Z" fill="#9B2F30"/>
<path d="M52.2021 19.4572C51.9848 19.1914 52.0436 19.3145 52.0346 18.9218C52.5651 17.7287 54.2729 18.2359 54.4833 19.4872L54.3816 19.6513L54.1523 19.6348C53.7166 19.1661 53.5062 19.0181 52.9848 18.6384C52.7306 18.8811 52.4474 19.1977 52.2021 19.4572Z" fill="white"/>
<path d="M49.8512 22.0546L49.585 21.937C49.6149 21.1767 51.0915 21.1137 51.6917 21.6418C51.8083 21.8617 51.8442 22.2901 51.6927 22.4984C51.3318 23.0218 50.9429 23.829 50.2281 23.6037C49.6817 23.0109 49.8702 22.8105 49.8512 22.0546Z" fill="#9B2F30"/>
<path d="M49.8512 22.0546L49.585 21.937C49.6149 21.1767 51.0915 21.1137 51.6917 21.6418C51.8083 21.8617 51.8442 22.2901 51.6927 22.4984C51.0087 21.9654 50.6827 21.5567 49.8512 22.0546Z" fill="white"/>
<path d="M59.0675 25.5302C58.6826 25.4366 58.7814 25.5211 58.5949 25.2532C59.4483 23.6782 61.6278 24.3026 60.8312 25.776L60.9618 25.8604C60.899 26.1408 60.7923 26.2542 60.552 26.4289C59.892 26.9098 59.3207 25.8826 59.0675 25.5302Z" fill="#9B2F30"/>
<path d="M59.0675 25.5302C58.6826 25.4366 58.7814 25.5211 58.5949 25.2532C59.4483 23.6782 61.6278 24.3026 60.8312 25.776C60.4154 25.4221 60.236 25.0347 59.7335 24.9636C59.3696 25.0785 59.3177 25.2112 59.0675 25.5302Z" fill="white"/>
<path d="M53.8811 24.905L53.7983 24.7122C54.2998 24.0347 55.4035 24.2136 55.8572 24.9294L55.8412 25.0997L55.563 25.1971C55.4613 25.8512 55.4225 26.2215 54.7784 26.5137C53.7395 26.4955 53.8013 25.6863 53.8811 24.905Z" fill="#9B2F30"/>
<path d="M53.8811 24.905L53.7983 24.7122C54.2998 24.0347 55.4035 24.2136 55.8572 24.9294L55.8412 25.0997L55.563 25.1971C54.8312 24.8728 54.6408 24.8217 53.8811 24.905Z" fill="white"/>
<path d="M56.5879 20.8181L56.4164 20.6208C56.6258 19.7743 57.8392 19.8105 58.3756 20.4133C58.4503 20.6968 58.4792 21.0249 58.2669 21.2586C57.4314 22.3953 56.889 21.966 56.5879 20.8181Z" fill="#9B2F30"/>
<path d="M56.5879 20.8181L56.4164 20.6208C56.6258 19.7743 57.8392 19.8105 58.3756 20.4133C58.4503 20.6968 58.4792 21.0249 58.2669 21.2586C57.9618 20.9099 57.8073 20.6171 57.3776 20.4782C56.9877 20.4855 56.9249 20.5769 56.5879 20.8181Z" fill="white"/>
<path d="M62.1642 23.7927L62.0186 23.7031C62.3387 22.7874 63.9199 23.1258 63.4353 24.2478C63.5011 24.3028 63.4593 24.2581 63.4782 24.4259L63.2938 24.6458C62.9129 24.7854 63.0744 24.7666 62.6587 24.6666C62.3416 24.4358 62.3008 24.1731 62.1642 23.7927Z" fill="white"/>
<path d="M62.1642 23.7925C62.8192 23.8577 62.882 23.9649 63.4354 24.2476C63.5012 24.3026 63.4593 24.2579 63.4782 24.4257L63.2938 24.6456C62.9129 24.7851 63.0744 24.7664 62.6587 24.6664C62.3417 24.4356 62.3008 24.1728 62.1642 23.7925Z" fill="#9B2F30"/>
<path d="M35.8345 25.1705C35.9697 25.0825 36.1075 24.9986 36.2479 24.919C38.4948 23.6456 39.4175 23.0557 41.8957 23.7318C41.7505 24.1827 41.6449 24.633 41.5311 25.0924C41.4381 25.8774 41.3063 26.7495 41.3282 27.5321C40.3195 27.461 35.6374 26.4991 35.0115 25.9391C35.1057 25.6235 35.5493 25.3381 35.8345 25.1705Z" fill="#03673B"/>
<path d="M35.8345 25.1705C35.9697 25.0825 36.1075 24.9986 36.2479 24.919C38.4948 23.6456 39.4175 23.0557 41.8958 23.7318C41.7505 24.1827 41.6449 24.633 41.5312 25.0924C40.7023 25.2207 36.3839 25.3856 35.8345 25.1705Z" fill="#138542"/>
<path d="M42.8481 21.3509C42.5535 20.5393 41.7428 16.0356 41.7804 15.2206L41.9227 15.1074C42.2769 15.1432 42.4249 15.3003 42.7195 15.5178C43.7054 16.1872 44.599 16.9812 45.4784 17.7829C44.9107 18.3295 44.6469 18.6448 44.1541 19.2669C43.7321 19.8936 43.2548 20.7003 42.8481 21.3509Z" fill="#03673B"/>
<path d="M42.7195 15.5178C43.7055 16.1873 44.599 16.9813 45.4785 17.783C44.9108 18.3296 44.647 18.6448 44.1541 19.267C43.884 18.8446 42.626 15.8983 42.7195 15.5178Z" fill="#138542"/>
<path d="M48.4115 0.987104C55.3945 0.705082 62.4812 2.10163 68.4942 5.75863C75.8002 10.1876 81.0584 17.3274 83.1212 25.6199C84.9507 33.1867 83.6965 40.6202 79.6666 47.2391C78.8331 43.2198 77.7473 39.2568 76.4163 35.3736C76.4961 35.216 76.5739 35.0574 76.6496 34.8978C77.5799 32.9218 77.7164 30.4965 76.9946 28.5356C75.9238 25.6247 72.9268 24.6601 70.552 23.1448C69.9558 22.7641 69.1392 21.015 68.554 20.378C62.9897 14.3227 56.0506 11.1183 47.8991 14.1584C46.9999 13.3049 46.298 12.7129 45.303 11.989C43.125 10.4916 39.9659 9.50588 38.2445 12.2141C36.97 14.2194 37.5665 17.0301 38.0605 19.2187C36.3046 20.0243 34.7218 20.6812 33.099 21.7698C31.1783 23.0583 30.6089 25.049 28.8324 26.5699C27.3886 27.8058 26.1189 30.6492 26.2692 32.5383C26.3487 33.5382 26.7045 34.3871 27.2895 35.2461C26.9174 37.198 26.3331 39.2091 25.9241 41.1685C25.1476 44.8889 24.3416 48.9248 23.9272 52.6943C22.6435 51.1655 21.3934 49.9264 20.2669 48.2123C17.65 44.2303 16.4738 38.4919 16.2913 33.8018C15.9562 25.1969 18.5948 16.7927 24.4363 10.3882C30.6301 3.5976 39.4482 1.28339 48.4115 0.987104Z" fill="#FFF7E6"/>
<path fill-rule="evenodd" clip-rule="evenodd" d="M43.4285 71.2681C43.4663 71.2617 43.5049 71.262 43.5434 71.2622C43.5595 71.2623 43.5756 71.2624 43.5917 71.2621C46.99 71.1826 50.8511 73.4081 50.924 77.1708C50.9518 78.6087 49.8499 79.8534 48.758 81.0868C47.8576 82.1039 46.964 83.1134 46.7162 84.2173C46.4422 85.4381 48.4523 86.455 49.7026 86.49C50.0867 86.5008 50.1296 86.0211 50.173 85.535C50.196 85.2782 50.2191 85.0196 50.2928 84.8306C50.8145 83.4926 51.5841 82.1861 52.9658 81.5945C53.6758 81.2906 54.9243 81.1362 55.6348 81.4479C55.9881 81.6029 56.2577 81.9004 56.3796 82.2677C56.614 82.9745 55.99 84.1983 55.3595 85.4347C54.6551 86.8163 53.9426 88.2136 54.4105 88.9233C55.0081 89.8297 55.6985 90.4357 56.2655 90.9334C57.4982 92.0154 58.1478 92.5856 55.9927 94.6166C54.5994 95.9297 53.4809 95.5044 52.1285 94.9901C51.3676 94.7008 50.5327 94.3833 49.5331 94.3314C48.157 94.2598 47.1412 94.871 46.0952 95.5004C45.1494 96.0695 44.179 96.6534 42.8952 96.7607C40.0738 96.9965 36.8789 95.8193 36.8175 92.5283C36.7857 90.8296 37.9634 89.2373 39.1232 87.6689C39.9605 86.5368 40.7885 85.4172 41.1458 84.2791C41.4237 83.3938 40.722 82.4222 40.0424 81.4812C39.6666 80.9609 39.2976 80.4499 39.1047 79.968C37.4429 75.8165 38.6261 72.0689 43.4285 71.2681ZM46.1403 91.6205C46.2525 91.5674 46.2823 91.426 46.2061 91.3281L44.1255 88.6529C44.0461 88.5509 43.8941 88.5496 43.8181 88.6542C43.387 89.2477 42.2313 91.0016 42.9489 91.8559C43.654 92.6953 45.5114 91.9184 46.1403 91.6205ZM44.6505 81.9869C43.9286 82.2276 42.949 78.9241 42.949 77.5629C42.949 76.4352 44.2626 75.6129 44.6505 75.521C45.0385 75.4291 45.3847 75.4428 45.6714 75.521C46.2597 75.6815 46.4351 76.1686 46.6371 76.7298C46.6552 76.7801 46.6735 76.831 46.6923 76.8823C46.9215 77.506 46.6924 78.9241 46.6924 78.9241C46.5141 80.3506 45.6714 81.6466 44.6505 81.9869Z" fill="#3E0D2C"/>
<path d="M23.1838 71.7658C25.9463 71.5763 26.0949 74.0066 26.0193 76.037C25.9468 77.6864 25.9575 79.5722 25.6609 81.2017C25.0166 84.743 25.5519 87.5722 26.0703 91.0815C27.4393 90.0962 29.1315 88.9035 30.8306 89.1199C33.9371 89.5168 33.5776 92.7758 32.0269 94.6207C31.1316 95.6867 30.5738 96.2273 29.5131 97.055C24.4039 100.876 20.2678 99.0315 19.4765 92.7449C18.9592 88.6352 17.9825 73.2317 23.1838 71.7658Z" fill="#3E0D2C"/>
<path d="M76.6427 71.1564C80.8012 70.9909 80.4841 75.9322 80.3505 78.6926C79.9358 87.238 76.2579 100.707 64.8352 94.7552C62.7614 93.4997 61.226 90.5828 62.4882 88.31C64.4563 84.7698 68.6966 90.5219 71.4005 89.4549C73.7514 88.4347 73.4912 85.8119 73.6746 83.6649C73.9857 80.0259 73.6985 75.8844 75.0585 72.4429C75.3586 71.6839 75.9348 71.3848 76.6427 71.1564Z" fill="#3E0D2C"/>
<path d="M17.9708 62.4996C22.0538 62.3179 19.7146 66.1624 16.2867 66.531C14.8515 66.5051 13.2017 65.7377 14.4647 64.0849C15.263 63.0402 16.7264 62.6866 17.9708 62.4996Z" fill="#3E0D2C"/>
<path d="M78.1412 64.8963C78.9467 64.8521 82.2837 64.6673 81.2727 66.6916C80.9457 67.3459 79.3475 67.7518 78.5898 67.8709C73.8281 67.9736 73.3895 65.3289 78.1412 64.8963Z" fill="#3E0D2C"/>
<path d="M21.9852 64.0812C24.1157 63.995 28.5776 65.2093 24.4428 66.9439C20.9265 68.0407 19.0619 64.8347 21.9852 64.0812Z" fill="#3E0D2C"/>
<path d="M82.8062 62.0823C82.882 62.0778 82.9567 62.0746 83.0325 62.0726C83.9517 62.0508 86.0145 62.4439 86.0185 63.5894C85.7364 64.1141 85.3087 64.1932 84.7513 64.3877C81.9886 64.9949 80.1821 62.9459 82.8062 62.0823Z" fill="#3E0D2C"/>
<path d="M21.011 59.9323C22.3625 59.8977 22.3284 61.2339 21.553 62.0939C20.2339 62.0594 20.2243 60.7745 21.011 59.9323Z" fill="#3E0D2C"/>
<path d="M53.9618 67.4859C54.254 67.38 54.58 67.4431 54.8123 67.6503C55.0436 67.8574 55.1433 68.1755 55.0705 68.4776C54.9977 68.7798 54.7654 69.0181 54.4653 69.0969C54.0286 69.2126 53.578 68.9643 53.4434 68.5325C53.3078 68.1007 53.5361 67.6399 53.9618 67.4859Z" fill="#3E0D2C"/>
<path d="M83.2139 65.4227C83.6506 65.3095 84.0973 65.5695 84.2139 66.0053C84.3306 66.441 84.0744 66.8894 83.6397 67.0097C83.2 67.1315 82.7454 66.8715 82.6277 66.4306C82.5091 65.9899 82.7733 65.5372 83.2139 65.4227Z" fill="#3E0D2C"/>
<path d="M56.1941 67.8031C56.3307 67.692 56.5172 67.6664 56.6777 67.7367C56.8392 67.807 56.9469 67.9615 56.9578 68.1366C56.9688 68.3121 56.8811 68.4786 56.7295 68.5684C56.5191 68.694 56.247 68.6352 56.1064 68.4348C55.9668 68.2333 56.0047 67.9581 56.1941 67.8031Z" fill="#3E0D2C"/>
<defs>
<linearGradient id="paint0_linear_460_1559" x1="67.2539" y1="29.7055" x2="66.1602" y2="40.3518" gradientUnits="userSpaceOnUse">
<stop stop-color="#FFEBF3"/>
<stop offset="1" stop-color="white"/>
</linearGradient>
<linearGradient id="paint1_linear_460_1559" x1="38.9683" y1="29.3783" x2="40.3312" y2="35.8868" gradientUnits="userSpaceOnUse">
<stop stop-color="#FFE7F3"/>
<stop offset="1" stop-color="white"/>
</linearGradient>
</defs>
</svg>
