<svg xmlns="http://www.w3.org/2000/svg" width="920" height="360" viewBox="0 0 920 360">
  <defs><marker id="arrow" markerWidth="10" markerHeight="10" refX="9" refY="3" orient="auto"><path d="M0,0 L0,6 L9,3 z" fill="#555"/></marker></defs>
  <rect width="920" height="360" fill="#fcfcfa"/>
  <text x="460" y="32" text-anchor="middle" font-family="Arial" font-size="20" font-weight="700">UC01 - Consultar catalogo em tempo real</text>
  <circle cx="75" cy="115" r="14" fill="none" stroke="#333" stroke-width="2"/><line x1="75" y1="129" x2="75" y2="180" stroke="#333" stroke-width="2"/><line x1="45" y1="150" x2="105" y2="150" stroke="#333" stroke-width="2"/><line x1="75" y1="180" x2="48" y2="225" stroke="#333" stroke-width="2"/><line x1="75" y1="180" x2="102" y2="225" stroke="#333" stroke-width="2"/>
  <text x="75" y="255" text-anchor="middle" font-family="Arial" font-size="16">Cliente</text>
  <rect x="170" y="70" width="690" height="230" rx="8" fill="#fff8e8" stroke="#8d5a00" stroke-width="2"/>
  <ellipse cx="285" cy="155" rx="82" ry="34" fill="#fff" stroke="#8d5a00" stroke-width="2"/><text x="285" y="160" text-anchor="middle" font-family="Arial" font-size="14">Abrir app</text>
  <ellipse cx="470" cy="155" rx="95" ry="34" fill="#fff" stroke="#8d5a00" stroke-width="2"/><text x="470" y="160" text-anchor="middle" font-family="Arial" font-size="14">Carregar catalogo</text>
  <ellipse cx="680" cy="155" rx="125" ry="34" fill="#fff" stroke="#8d5a00" stroke-width="2"/><text x="680" y="151" text-anchor="middle" font-family="Arial" font-size="14">Exibir preco e</text><text x="680" y="168" text-anchor="middle" font-family="Arial" font-size="14">disponibilidade</text>
  <ellipse cx="680" cy="245" rx="145" ry="34" fill="#fff" stroke="#8d5a00" stroke-width="2"/><text x="680" y="241" text-anchor="middle" font-family="Arial" font-size="14">Marcar sem estoque</text><text x="680" y="258" text-anchor="middle" font-family="Arial" font-size="14">como indisponivel</text>
  <line x1="105" y1="150" x2="202" y2="155" stroke="#555" stroke-width="2" marker-end="url(#arrow)"/>
  <line x1="367" y1="155" x2="375" y2="155" stroke="#555" stroke-width="2" marker-end="url(#arrow)"/>
  <line x1="565" y1="155" x2="555" y2="155" stroke="#555" stroke-width="2" marker-end="url(#arrow)"/>
  <line x1="680" y1="189" x2="680" y2="211" stroke="#555" stroke-width="2" stroke-dasharray="6 5" marker-end="url(#arrow)"/><text x="735" y="205" font-family="Arial" font-size="13">&lt;&lt;include&gt;&gt;</text>
</svg>
