<svg xmlns="http://www.w3.org/2000/svg" width="920" height="390" viewBox="0 0 920 390">
  <defs><marker id="arrow" markerWidth="10" markerHeight="10" refX="9" refY="3" orient="auto"><path d="M0,0 L0,6 L9,3 z" fill="#555"/></marker></defs>
  <rect width="920" height="390" fill="#fcfcfa"/>
  <text x="460" y="32" text-anchor="middle" font-family="Arial" font-size="20" font-weight="700">UC02 - Autenticar e recuperar acesso</text>
  <circle cx="75" cy="130" r="14" fill="none" stroke="#333" stroke-width="2"/><line x1="75" y1="144" x2="75" y2="195" stroke="#333" stroke-width="2"/><line x1="45" y1="165" x2="105" y2="165" stroke="#333" stroke-width="2"/><line x1="75" y1="195" x2="48" y2="240" stroke="#333" stroke-width="2"/><line x1="75" y1="195" x2="102" y2="240" stroke="#333" stroke-width="2"/>
  <text x="75" y="270" text-anchor="middle" font-family="Arial" font-size="16">Cliente</text>
  <rect x="170" y="65" width="690" height="275" rx="8" fill="#fff8e8" stroke="#8d5a00" stroke-width="2"/>
  <ellipse cx="310" cy="125" rx="95" ry="32" fill="#fff" stroke="#8d5a00" stroke-width="2"/><text x="310" y="130" text-anchor="middle" font-family="Arial" font-size="14">Cadastrar conta</text>
  <ellipse cx="565" cy="125" rx="120" ry="32" fill="#fff" stroke="#8d5a00" stroke-width="2"/><text x="565" y="130" text-anchor="middle" font-family="Arial" font-size="14">Entrar com email/senha</text>
  <ellipse cx="310" cy="220" rx="105" ry="32" fill="#fff" stroke="#8d5a00" stroke-width="2"/><text x="310" y="225" text-anchor="middle" font-family="Arial" font-size="14">Entrar com Google</text>
  <ellipse cx="565" cy="220" rx="105" ry="32" fill="#fff" stroke="#8d5a00" stroke-width="2"/><text x="565" y="225" text-anchor="middle" font-family="Arial" font-size="14">Recuperar acesso</text>
  <ellipse cx="720" cy="290" rx="110" ry="32" fill="#fff" stroke="#8d5a00" stroke-width="2"/><text x="720" y="286" text-anchor="middle" font-family="Arial" font-size="14">Abrir tela pelo</text><text x="720" y="303" text-anchor="middle" font-family="Arial" font-size="14">deep link</text>
  <line x1="105" y1="165" x2="215" y2="125" stroke="#555" stroke-width="2" marker-end="url(#arrow)"/><line x1="105" y1="165" x2="445" y2="125" stroke="#555" stroke-width="2" marker-end="url(#arrow)"/>
  <line x1="105" y1="165" x2="205" y2="220" stroke="#555" stroke-width="2" marker-end="url(#arrow)"/><line x1="105" y1="165" x2="460" y2="220" stroke="#555" stroke-width="2" marker-end="url(#arrow)"/>
  <line x1="650" y1="240" x2="650" y2="267" stroke="#555" stroke-width="2" stroke-dasharray="6 5" marker-end="url(#arrow)"/><text x="670" y="260" font-family="Arial" font-size="13">&lt;&lt;include&gt;&gt;</text>
</svg>
