<svg xmlns="http://www.w3.org/2000/svg" width="920" height="370" viewBox="0 0 920 370">
  <defs><marker id="arrow" markerWidth="10" markerHeight="10" refX="9" refY="3" orient="auto"><path d="M0,0 L0,6 L9,3 z" fill="#555"/></marker></defs>
  <rect width="920" height="370" fill="#fcfcfa"/>
  <text x="460" y="32" text-anchor="middle" font-family="Arial" font-size="20" font-weight="700">UC03 - Gerenciar perfil e favoritos</text>
  <text x="75" y="245" text-anchor="middle" font-family="Arial" font-size="16">Cliente</text><circle cx="75" cy="105" r="14" fill="none" stroke="#333" stroke-width="2"/><line x1="75" y1="119" x2="75" y2="170" stroke="#333" stroke-width="2"/><line x1="45" y1="140" x2="105" y2="140" stroke="#333" stroke-width="2"/><line x1="75" y1="170" x2="48" y2="215" stroke="#333" stroke-width="2"/><line x1="75" y1="170" x2="102" y2="215" stroke="#333" stroke-width="2"/>
  <rect x="170" y="65" width="690" height="250" rx="8" fill="#fff8e8" stroke="#8d5a00" stroke-width="2"/>
  <ellipse cx="330" cy="120" rx="95" ry="32" fill="#fff" stroke="#8d5a00" stroke-width="2"/><text x="330" y="125" text-anchor="middle" font-family="Arial" font-size="14">Atualizar perfil</text>
  <ellipse cx="330" cy="205" rx="95" ry="32" fill="#fff" stroke="#8d5a00" stroke-width="2"/><text x="330" y="210" text-anchor="middle" font-family="Arial" font-size="14">Marcar favorito</text>
  <ellipse cx="570" cy="205" rx="105" ry="32" fill="#fff" stroke="#8d5a00" stroke-width="2"/><text x="570" y="210" text-anchor="middle" font-family="Arial" font-size="14">Desmarcar favorito</text>
  <ellipse cx="695" cy="120" rx="95" ry="32" fill="#fff" stroke="#8d5a00" stroke-width="2"/><text x="695" y="125" text-anchor="middle" font-family="Arial" font-size="14">Validar sessao</text>
  <line x1="105" y1="140" x2="235" y2="120" stroke="#555" stroke-width="2" marker-end="url(#arrow)"/><line x1="105" y1="140" x2="235" y2="205" stroke="#555" stroke-width="2" marker-end="url(#arrow)"/><line x1="105" y1="140" x2="465" y2="205" stroke="#555" stroke-width="2" marker-end="url(#arrow)"/>
  <line x1="425" y1="120" x2="600" y2="120" stroke="#555" stroke-width="2" stroke-dasharray="6 5" marker-end="url(#arrow)"/><line x1="410" y1="190" x2="615" y2="135" stroke="#555" stroke-width="2" stroke-dasharray="6 5" marker-end="url(#arrow)"/><line x1="595" y1="175" x2="675" y2="150" stroke="#555" stroke-width="2" stroke-dasharray="6 5" marker-end="url(#arrow)"/>
  <text x="500" y="110" font-family="Arial" font-size="13">&lt;&lt;include&gt;&gt;</text>
</svg>
