<svg xmlns="http://www.w3.org/2000/svg" width="920" height="390" viewBox="0 0 920 390">
  <defs><marker id="arrow" markerWidth="10" markerHeight="10" refX="9" refY="3" orient="auto"><path d="M0,0 L0,6 L9,3 z" fill="#555"/></marker></defs>
  <rect width="920" height="390" fill="#fcfcfa"/>
  <text x="460" y="32" text-anchor="middle" font-family="Arial" font-size="20" font-weight="700">UC04 - Gerenciar catalogo e categorias</text>
  <text x="78" y="265" text-anchor="middle" font-family="Arial" font-size="16">Administrador</text><circle cx="75" cy="120" r="14" fill="none" stroke="#333" stroke-width="2"/><line x1="75" y1="134" x2="75" y2="185" stroke="#333" stroke-width="2"/><line x1="45" y1="155" x2="105" y2="155" stroke="#333" stroke-width="2"/><line x1="75" y1="185" x2="48" y2="230" stroke="#333" stroke-width="2"/><line x1="75" y1="185" x2="102" y2="230" stroke="#333" stroke-width="2"/>
  <rect x="170" y="65" width="690" height="275" rx="8" fill="#fff8e8" stroke="#8d5a00" stroke-width="2"/>
  <ellipse cx="315" cy="120" rx="88" ry="32" fill="#fff" stroke="#8d5a00" stroke-width="2"/><text x="315" y="125" text-anchor="middle" font-family="Arial" font-size="14">Criar produto</text>
  <ellipse cx="315" cy="205" rx="88" ry="32" fill="#fff" stroke="#8d5a00" stroke-width="2"/><text x="315" y="210" text-anchor="middle" font-family="Arial" font-size="14">Editar produto</text>
  <ellipse cx="555" cy="120" rx="88" ry="32" fill="#fff" stroke="#8d5a00" stroke-width="2"/><text x="555" y="125" text-anchor="middle" font-family="Arial" font-size="14">Inativar produto</text>
  <ellipse cx="555" cy="205" rx="120" ry="32" fill="#fff" stroke="#8d5a00" stroke-width="2"/><text x="555" y="201" text-anchor="middle" font-family="Arial" font-size="14">Manter categorias</text><text x="555" y="218" text-anchor="middle" font-family="Arial" font-size="14">e ordenacao</text>
  <ellipse cx="735" cy="285" rx="90" ry="30" fill="#fff" stroke="#8d5a00" stroke-width="2"/><text x="735" y="290" text-anchor="middle" font-family="Arial" font-size="14">Validar sessao</text>
  <line x1="105" y1="155" x2="227" y2="120" stroke="#555" stroke-width="2" marker-end="url(#arrow)"/><line x1="105" y1="155" x2="227" y2="205" stroke="#555" stroke-width="2" marker-end="url(#arrow)"/><line x1="105" y1="155" x2="467" y2="120" stroke="#555" stroke-width="2" marker-end="url(#arrow)"/><line x1="105" y1="155" x2="435" y2="205" stroke="#555" stroke-width="2" marker-end="url(#arrow)"/>
  <line x1="390" y1="137" x2="680" y2="265" stroke="#555" stroke-width="2" stroke-dasharray="6 5" marker-end="url(#arrow)"/><text x="535" y="250" font-family="Arial" font-size="13">&lt;&lt;include&gt;&gt;</text>
</svg>
