<svg xmlns="http://www.w3.org/2000/svg" width="920" height="370" viewBox="0 0 920 370">
  <defs><marker id="arrow" markerWidth="10" markerHeight="10" refX="9" refY="3" orient="auto"><path d="M0,0 L0,6 L9,3 z" fill="#555"/></marker></defs>
  <rect width="920" height="370" fill="#fcfcfa"/>
  <text x="460" y="32" text-anchor="middle" font-family="Arial" font-size="20" font-weight="700">UC05 - Controlar estoque e alertas</text>
  <text x="78" y="250" text-anchor="middle" font-family="Arial" font-size="16">Administrador</text><circle cx="75" cy="110" r="14" fill="none" stroke="#333" stroke-width="2"/><line x1="75" y1="124" x2="75" y2="175" stroke="#333" stroke-width="2"/><line x1="45" y1="145" x2="105" y2="145" stroke="#333" stroke-width="2"/><line x1="75" y1="175" x2="48" y2="220" stroke="#333" stroke-width="2"/><line x1="75" y1="175" x2="102" y2="220" stroke="#333" stroke-width="2"/>
  <rect x="170" y="65" width="690" height="250" rx="8" fill="#fff8e8" stroke="#8d5a00" stroke-width="2"/>
  <ellipse cx="310" cy="120" rx="100" ry="32" fill="#fff" stroke="#8d5a00" stroke-width="2"/><text x="310" y="125" text-anchor="middle" font-family="Arial" font-size="14">Registrar entrada</text>
  <ellipse cx="310" cy="205" rx="95" ry="32" fill="#fff" stroke="#8d5a00" stroke-width="2"/><text x="310" y="210" text-anchor="middle" font-family="Arial" font-size="14">Registrar saida</text>
  <ellipse cx="520" cy="162" rx="95" ry="32" fill="#fff" stroke="#8d5a00" stroke-width="2"/><text x="520" y="167" text-anchor="middle" font-family="Arial" font-size="14">Recalcular saldo</text>
  <ellipse cx="705" cy="162" rx="88" ry="32" fill="#fff" stroke="#8d5a00" stroke-width="2"/><text x="705" y="167" text-anchor="middle" font-family="Arial" font-size="14">Validar estoque</text>
  <ellipse cx="705" cy="255" rx="115" ry="32" fill="#fff" stroke="#8d5a00" stroke-width="2"/><text x="705" y="260" text-anchor="middle" font-family="Arial" font-size="14">Emitir alerta minimo</text>
  <line x1="105" y1="145" x2="210" y2="120" stroke="#555" stroke-width="2" marker-end="url(#arrow)"/><line x1="105" y1="145" x2="215" y2="205" stroke="#555" stroke-width="2" marker-end="url(#arrow)"/>
  <line x1="405" y1="120" x2="438" y2="145" stroke="#555" stroke-width="2" stroke-dasharray="6 5" marker-end="url(#arrow)"/><line x1="405" y1="205" x2="438" y2="180" stroke="#555" stroke-width="2" stroke-dasharray="6 5" marker-end="url(#arrow)"/>
  <line x1="615" y1="162" x2="617" y2="162" stroke="#555" stroke-width="2" stroke-dasharray="6 5" marker-end="url(#arrow)"/><line x1="705" y1="194" x2="705" y2="223" stroke="#555" stroke-width="2" stroke-dasharray="6 5" marker-end="url(#arrow)"/><text x="730" y="212" font-family="Arial" font-size="13">&lt;&lt;extend&gt;&gt;</text>
</svg>
