<svg xmlns="http://www.w3.org/2000/svg" width="920" height="360" viewBox="0 0 920 360">
  <defs><marker id="arrow" markerWidth="10" markerHeight="10" refX="9" refY="3" orient="auto"><path d="M0,0 L0,6 L9,3 z" fill="#555"/></marker></defs>
  <rect width="920" height="360" fill="#fcfcfa"/>
  <text x="460" y="32" text-anchor="middle" font-family="Arial" font-size="20" font-weight="700">UC06 - Registrar vendas e penduricalhos</text>
  <text x="78" y="250" text-anchor="middle" font-family="Arial" font-size="16">Administrador</text><circle cx="75" cy="110" r="14" fill="none" stroke="#333" stroke-width="2"/><line x1="75" y1="124" x2="75" y2="175" stroke="#333" stroke-width="2"/><line x1="45" y1="145" x2="105" y2="145" stroke="#333" stroke-width="2"/><line x1="75" y1="175" x2="48" y2="220" stroke="#333" stroke-width="2"/><line x1="75" y1="175" x2="102" y2="220" stroke="#333" stroke-width="2"/>
  <rect x="170" y="65" width="690" height="235" rx="8" fill="#fff8e8" stroke="#8d5a00" stroke-width="2"/>
  <ellipse cx="275" cy="150" rx="90" ry="32" fill="#fff" stroke="#8d5a00" stroke-width="2"/><text x="275" y="155" text-anchor="middle" font-family="Arial" font-size="14">Selecionar itens</text>
  <ellipse cx="455" cy="150" rx="110" ry="32" fill="#fff" stroke="#8d5a00" stroke-width="2"/><text x="455" y="155" text-anchor="middle" font-family="Arial" font-size="14">Validar disponibilidade</text>
  <ellipse cx="650" cy="150" rx="115" ry="32" fill="#fff" stroke="#8d5a00" stroke-width="2"/><text x="650" y="146" text-anchor="middle" font-family="Arial" font-size="14">Registrar forma</text><text x="650" y="163" text-anchor="middle" font-family="Arial" font-size="14">de pagamento</text>
  <ellipse cx="650" cy="245" rx="95" ry="30" fill="#fff" stroke="#8d5a00" stroke-width="2"/><text x="650" y="250" text-anchor="middle" font-family="Arial" font-size="14">Finalizar venda</text>
  <ellipse cx="790" cy="245" rx="85" ry="30" fill="#fff" stroke="#8d5a00" stroke-width="2"/><text x="790" y="250" text-anchor="middle" font-family="Arial" font-size="14">Identificar cliente</text>
  <line x1="105" y1="145" x2="185" y2="150" stroke="#555" stroke-width="2" marker-end="url(#arrow)"/><line x1="365" y1="150" x2="345" y2="150" stroke="#555" stroke-width="2" marker-end="url(#arrow)"/><line x1="565" y1="150" x2="535" y2="150" stroke="#555" stroke-width="2" marker-end="url(#arrow)"/><line x1="650" y1="182" x2="650" y2="215" stroke="#555" stroke-width="2" marker-end="url(#arrow)"/>
  <line x1="730" y1="168" x2="770" y2="218" stroke="#555" stroke-width="2" stroke-dasharray="6 5" marker-end="url(#arrow)"/><text x="735" y="202" font-family="Arial" font-size="13">&lt;&lt;extend&gt;&gt; penduricalho</text>
</svg>
