<svg xmlns="http://www.w3.org/2000/svg" width="920" height="385" viewBox="0 0 920 385">
  <defs><marker id="arrow" markerWidth="10" markerHeight="10" refX="9" refY="3" orient="auto"><path d="M0,0 L0,6 L9,3 z" fill="#555"/></marker></defs>
  <rect width="920" height="385" fill="#fcfcfa"/>
  <text x="460" y="32" text-anchor="middle" font-family="Arial" font-size="20" font-weight="700">UC07 - Checkout e pedidos</text>
  <text x="75" y="250" text-anchor="middle" font-family="Arial" font-size="16">Cliente</text><circle cx="75" cy="110" r="14" fill="none" stroke="#333" stroke-width="2"/><line x1="75" y1="124" x2="75" y2="175" stroke="#333" stroke-width="2"/><line x1="45" y1="145" x2="105" y2="145" stroke="#333" stroke-width="2"/><line x1="75" y1="175" x2="48" y2="220" stroke="#333" stroke-width="2"/><line x1="75" y1="175" x2="102" y2="220" stroke="#333" stroke-width="2"/>
  <rect x="170" y="65" width="690" height="270" rx="8" fill="#fff8e8" stroke="#8d5a00" stroke-width="2"/>
  <ellipse cx="300" cy="125" rx="90" ry="32" fill="#fff" stroke="#8d5a00" stroke-width="2"/><text x="300" y="130" text-anchor="middle" font-family="Arial" font-size="14">Montar carrinho</text>
  <ellipse cx="500" cy="125" rx="95" ry="32" fill="#fff" stroke="#8d5a00" stroke-width="2"/><text x="500" y="130" text-anchor="middle" font-family="Arial" font-size="14">Validar quantidade</text>
  <ellipse cx="700" cy="125" rx="88" ry="32" fill="#fff" stroke="#8d5a00" stroke-width="2"/><text x="700" y="130" text-anchor="middle" font-family="Arial" font-size="14">Confirmar checkout</text>
  <ellipse cx="500" cy="235" rx="88" ry="30" fill="#fff" stroke="#8d5a00" stroke-width="2"/><text x="500" y="240" text-anchor="middle" font-family="Arial" font-size="14">Validar estoque</text>
  <ellipse cx="700" cy="235" rx="88" ry="30" fill="#fff" stroke="#8d5a00" stroke-width="2"/><text x="700" y="240" text-anchor="middle" font-family="Arial" font-size="14">Validar sessao</text>
  <ellipse cx="300" cy="235" rx="98" ry="30" fill="#fff" stroke="#8d5a00" stroke-width="2"/><text x="300" y="240" text-anchor="middle" font-family="Arial" font-size="14">Consultar historico</text>
  <line x1="105" y1="145" x2="210" y2="125" stroke="#555" stroke-width="2" marker-end="url(#arrow)"/><line x1="105" y1="145" x2="202" y2="235" stroke="#555" stroke-width="2" marker-end="url(#arrow)"/>
  <line x1="390" y1="125" x2="405" y2="125" stroke="#555" stroke-width="2" marker-end="url(#arrow)"/><line x1="595" y1="125" x2="612" y2="125" stroke="#555" stroke-width="2" marker-end="url(#arrow)"/>
  <line x1="500" y1="157" x2="500" y2="205" stroke="#555" stroke-width="2" stroke-dasharray="6 5" marker-end="url(#arrow)"/><line x1="700" y1="157" x2="700" y2="205" stroke="#555" stroke-width="2" stroke-dasharray="6 5" marker-end="url(#arrow)"/><line x1="398" y1="235" x2="612" y2="235" stroke="#555" stroke-width="2" stroke-dasharray="6 5" marker-end="url(#arrow)"/>
</svg>
