<svg xmlns="http://www.w3.org/2000/svg" width="920" height="360" viewBox="0 0 920 360">
  <defs><marker id="arrow" markerWidth="10" markerHeight="10" refX="9" refY="3" orient="auto"><path d="M0,0 L0,6 L9,3 z" fill="#555"/></marker></defs>
  <rect width="920" height="360" fill="#fcfcfa"/>
  <text x="460" y="32" text-anchor="middle" font-family="Arial" font-size="20" font-weight="700">UC11 - Receber atualizacoes por websocket</text>
  <text x="75" y="250" text-anchor="middle" font-family="Arial" font-size="16">Sistema</text><circle cx="75" cy="110" r="14" fill="none" stroke="#333" stroke-width="2"/><line x1="75" y1="124" x2="75" y2="175" stroke="#333" stroke-width="2"/><line x1="45" y1="145" x2="105" y2="145" stroke="#333" stroke-width="2"/><line x1="75" y1="175" x2="48" y2="220" stroke="#333" stroke-width="2"/><line x1="75" y1="175" x2="102" y2="220" stroke="#333" stroke-width="2"/>
  <rect x="170" y="65" width="690" height="235" rx="8" fill="#fff8e8" stroke="#8d5a00" stroke-width="2"/>
  <ellipse cx="290" cy="135" rx="90" ry="32" fill="#fff" stroke="#8d5a00" stroke-width="2"/><text x="290" y="140" text-anchor="middle" font-family="Arial" font-size="14">Conectar socket</text>
  <ellipse cx="485" cy="135" rx="95" ry="32" fill="#fff" stroke="#8d5a00" stroke-width="2"/><text x="485" y="140" text-anchor="middle" font-family="Arial" font-size="14">Inscrever eventos</text>
  <ellipse cx="680" cy="135" rx="100" ry="32" fill="#fff" stroke="#8d5a00" stroke-width="2"/><text x="680" y="140" text-anchor="middle" font-family="Arial" font-size="14">Sincronizar eventos</text>
  <ellipse cx="680" cy="235" rx="95" ry="30" fill="#fff" stroke="#8d5a00" stroke-width="2"/><text x="680" y="240" text-anchor="middle" font-family="Arial" font-size="14">Atualizar interface</text>
  <ellipse cx="370" cy="235" rx="120" ry="30" fill="#fff" stroke="#8d5a00" stroke-width="2"/><text x="370" y="231" text-anchor="middle" font-family="Arial" font-size="14">Restaurar assinaturas</text><text x="370" y="248" text-anchor="middle" font-family="Arial" font-size="14">apos reconexao</text>
  <line x1="105" y1="145" x2="200" y2="135" stroke="#555" stroke-width="2" marker-end="url(#arrow)"/><line x1="380" y1="135" x2="390" y2="135" stroke="#555" stroke-width="2" marker-end="url(#arrow)"/><line x1="580" y1="135" x2="580" y2="135" stroke="#555" stroke-width="2" stroke-dasharray="6 5" marker-end="url(#arrow)"/><line x1="680" y1="167" x2="680" y2="205" stroke="#555" stroke-width="2" marker-end="url(#arrow)"/>
  <line x1="290" y1="167" x2="340" y2="210" stroke="#555" stroke-width="2" stroke-dasharray="6 5" marker-end="url(#arrow)"/><text x="270" y="195" font-family="Arial" font-size="13">&lt;&lt;extend&gt;&gt;</text>
</svg>
