<svg width="192" height="192" viewBox="0 0 192 192" fill="none" xmlns="http://www.w3.org/2000/svg">
<path d="M78.1808 23.4685C82.5211 22.8029 88.8324 27.8425 91.3535 31.14C104.887 23.8068 119.185 30.3324 128.724 40.6716C130.351 42.4353 131.413 44.4022 132.353 46.577C140.148 50.4696 147.535 53.4135 145.02 63.6342C144.641 65.1742 143.997 66.1459 143.092 67.4133C144.217 69.7102 145.175 73.2016 145.912 75.6668C149.026 86.0731 150.665 96.8895 153.93 107.252C154.627 109.465 155.732 111.734 155.977 114.051C156.413 118.196 153.008 121.044 149.413 122.218C146.172 123.289 142.803 123.583 139.447 123.998C134.56 124.617 129.662 125.141 124.753 125.572C121.915 125.932 117.69 126.129 114.769 126.3C105.1 126.827 95.4119 126.908 85.7355 126.543C81.3217 126.356 76.9801 125.965 72.5758 125.69C67.5444 125.433 63.1313 125.605 58.0948 124.843C53.3873 124.131 46.9833 121.619 46.7287 115.917C46.6497 114.15 47.9016 111.653 48.1279 109.686C49.0555 101.614 50.1428 93.5451 51.6625 85.5609C52.8457 79.1378 54.7121 72.978 55.7749 66.5949C51.5924 62.34 54.4481 56.9905 57.7228 53.0918C58.7466 51.8729 60.135 50.9879 61.4571 50.1106C61.6275 44.5658 72.0167 40.3578 76.6492 39.6419C76.1612 36.9582 75.6798 34.1997 75.3243 31.4946C74.881 28.1209 74.8241 25.2576 78.1808 23.4685Z" fill="#3E0D2C"/>
<path d="M60.6911 67.5512C67.9268 65.8302 67.6144 68.9887 70.5359 74.2722C72.0282 76.9708 75.5116 79.1268 78.6132 78.7856C83.8941 78.2385 86.9132 72.6317 92.0447 71.5183C97.3931 70.3574 104.474 71.4411 109.315 74.047C114.591 77.4085 116.922 86.6673 125.108 85.107C128.346 84.4299 131.252 81.4566 132.922 78.6642C135.102 74.9372 135.374 73.6522 139.101 71.0511C142.95 82.735 144.997 93.5087 148.031 105.344C145.469 104.832 142.868 103.771 140.611 102.468C134.062 99.251 129.526 100.663 122.742 102.251C118.68 103.187 117.232 103.381 113.002 103.296C110.678 103.262 108.218 103.04 105.887 102.869L96.4858 102.168C90.284 102.049 87.4513 102.174 81.4073 103.6C78.7187 104.279 76.2807 104.747 73.5642 105.259C70.7164 105.617 68.551 105.621 65.6733 105.596C61.5853 105.46 58.163 104.24 54.2793 103.093C53.4122 101.508 58.238 78.9481 59.0311 75.8225C59.6427 73.2704 60.4323 70.1617 60.6911 67.5512Z" fill="#FCBC6C"/>
<path d="M81.4072 103.6C81.3485 103.474 81.2765 103.329 81.2579 103.189C81.168 102.514 82.1308 99.298 82.3083 98.3156C83.2533 93.0854 84.7533 79.07 87.587 75.1257C88.8772 73.3299 91.0212 72.1292 93.2009 71.8173C94.673 71.6067 96.0704 71.9649 97.24 72.8905C100.31 75.3187 101.174 80.3278 101.58 83.9832C102.15 89.1204 102.19 93.709 100.041 98.5149C99.5562 99.5973 98.9532 100.835 98.1492 101.716C97.6707 102.241 97.1366 102.138 96.4858 102.168C90.284 102.049 87.4513 102.174 81.4072 103.6Z" fill="#FFF7E6"/>
<path d="M96.5317 76.7402C99.2404 77.7742 99.1083 87.4398 98.6412 90.1235C98.266 92.268 96.7787 93.4105 95.1209 94.5019C94.3093 94.6394 94.0892 94.589 93.5091 93.9918C92.9004 91.9413 94.8089 89.5968 95.6014 87.5488C96.9663 84.029 94.9142 79.8633 96.5317 76.7402Z" fill="white"/>
<path d="M90.7492 76.0088C91.5598 76.1158 91.8112 76.3203 92.1404 77.0391C91.9356 78.1632 91.1973 78.1829 90.4896 79.2089C89.5426 80.5815 90.0627 81.8014 88.7348 82.7591C87.673 82.2372 86.8944 81.9724 87.1795 80.5878C87.5432 78.8211 89.3206 76.979 90.7492 76.0088Z" fill="#FCBC6C"/>
<path d="M92.5577 80.1689C93.3273 80.5025 93.5627 80.7033 93.7216 81.5374C93.4747 82.444 93.6508 82.1017 92.9425 82.8318C92.1405 82.5788 91.9548 82.4766 91.7346 81.6485C91.8724 80.9031 92.0562 80.7818 92.5577 80.1689Z" fill="#FCBC6C"/>
<path d="M93.4976 96.3157C94.2136 96.5389 94.3552 96.6452 94.5907 97.3276C94.4701 97.988 94.1485 98.2562 93.7005 98.782C92.91 98.5626 92.7147 98.4715 92.5788 97.6342C92.8219 96.879 92.8832 96.8614 93.4976 96.3157Z" fill="white"/>
<path d="M122.742 102.252C122.341 102.112 122.213 102.172 122.121 101.856C121.599 99.7045 120.848 94.75 121.926 92.7572C124.145 88.6539 128.781 83.5957 132.841 81.4305C136 79.7455 138.184 82.8342 138.932 85.4629C139.771 88.4044 141.507 100.009 140.611 102.468C134.062 99.2513 129.526 100.663 122.742 102.252Z" fill="#FFF7E6"/>
<path d="M124.493 90.624C124.828 90.7261 125.006 90.8046 125.332 90.9371C125.931 91.9448 124.577 95.4198 124.436 96.7067C124.344 97.5473 124.235 98.5014 124.072 99.3251C122.098 98.877 123.624 91.8456 124.493 90.624Z" fill="white"/>
<path d="M132.248 83.8687C134.822 84.2953 134.103 86.4236 132.196 87.5315C131.411 87.3647 130.992 87.1445 130.554 86.5152C130.311 85.0474 130.982 84.5388 132.248 83.8687Z" fill="#FCBC6C"/>
<path d="M129.943 90.0188C131.032 90.1268 131.522 90.1959 131.825 91.2674C131.668 92.0873 131.438 92.2975 130.95 92.968C129.309 92.5156 128.781 91.3679 129.943 90.0188Z" fill="white"/>
<path d="M127.598 93.8118C127.962 93.6193 128.41 93.7306 128.641 94.0701C128.873 94.4096 128.814 94.8689 128.502 95.1366C128.266 95.3382 127.937 95.3878 127.654 95.2639C127.368 95.1398 127.181 94.8645 127.169 94.5551C127.158 94.2457 127.324 93.9569 127.598 93.8118Z" fill="white"/>
<path d="M105.887 102.869C104.749 97.7797 104.581 92.8903 104.619 87.657C104.633 86.0328 104.397 75.7912 107.123 75.9062C111.511 76.0916 112.975 83.4343 112.83 86.8C112.868 92.7149 111.784 97.6972 113.002 103.296C110.678 103.262 108.218 103.04 105.887 102.869Z" fill="#FFF7E6"/>
<path d="M106.834 90.0928C107.353 90.2036 107.351 90.1694 107.765 90.4851C107.985 91.2569 108.04 99.336 107.807 99.9616C106.122 98.3618 106.43 92.2462 106.834 90.0928Z" fill="white"/>
<path d="M106.838 80.7549C108.593 81.2973 108.333 82.6369 107.743 84.0534C107.497 84.1089 107.261 84.11 107.005 84.128L106.704 83.8337C106.35 82.889 106.492 81.6818 106.838 80.7549Z" fill="#FCBC6C"/>
<path d="M65.6733 105.596C65.7041 104.849 68.0232 101.205 68.358 99.7703C71.0814 88.1009 67.0008 86.6463 80.1314 84.0725C79.279 88.1798 79.4467 91.852 77.9289 96.1339C76.5424 100.045 73.7437 101.393 73.5642 105.26C70.7164 105.617 68.551 105.621 65.6733 105.596Z" fill="#FFF7E6"/>
<path d="M77.6481 86.9009C79.8002 88.0823 76.2351 95.78 75.3431 97.2443L75.0389 97.194L74.9312 96.8648C75.3747 95.2161 77.0924 87.7696 77.6481 86.9009Z" fill="white"/>
<path d="M73.7973 88.4231C74.5426 88.8196 74.5542 89.0092 74.5318 89.7789C74.17 90.5214 74.0632 90.5442 73.362 91.0417C71.8423 90.4249 73.122 89.1164 73.7973 88.4231Z" fill="#FCBC6C"/>
<path d="M59.0311 75.8228C67.2229 83.5371 57.9882 94.944 54.9176 102.805C54.836 103.013 54.4777 103.043 54.2793 103.093C53.4122 101.509 58.238 78.9483 59.0311 75.8228Z" fill="#FFF7E6"/>
<path d="M59.3105 80.7573C59.8417 80.8102 60.4367 80.8084 60.5378 81.4765C60.9635 84.2936 59.755 87.4828 58.5199 89.9434L58.1004 90.1074L57.9309 89.7301C58.0521 87.9886 58.5087 81.9902 59.3105 80.7573Z" fill="white"/>
<path d="M132.485 103.771C135.818 103.791 136.685 104.212 139.702 105.63C142.847 107.381 145.45 108.156 148.963 108.82C150.448 113.128 153.312 116.047 146.721 117.572C141.172 118.856 135.291 119.089 129.654 119.858C128.134 120.037 123.243 120.557 121.905 120.506C116.478 121.109 108.49 121.462 103.052 121.456C96.0608 121.608 89.0669 121.493 82.0849 121.111C77.9848 120.888 73.8994 120.44 69.7784 120.299C68.6863 120.38 66.9057 120.336 65.813 120.257C61.3841 119.935 54.3366 120.173 51.7209 115.952C52.5638 113.271 53.6229 109.737 53.4149 106.862L53.7374 106.482C54.8597 106.476 59.3952 107.963 60.8586 108.339C65.4823 109.527 75.5788 108.883 80.0424 107.219C83.5981 106.408 86.8347 105.654 90.485 105.463C99.1523 105.008 108.05 106.901 116.673 106.528C121.857 106.303 127.045 104.156 132.485 103.771Z" fill="#C55B2B"/>
<path d="M53.4149 106.862C54.0494 108.37 54.9998 108.115 56.2255 109.211C57.2485 110.126 59.0135 113.326 60.2971 113.667C63.7772 114.59 69.2577 114.74 72.7671 113.79C74.6088 113.291 72.3883 110.436 73.7888 109.778C77.1136 108.477 80.3376 111.624 82.7947 113.164C86.2553 115.334 89.6837 116.778 93.6412 117.62C97.4946 118.511 101.476 114.289 104.411 118.17C105.018 118.973 103.509 120.816 103.052 121.456C96.0608 121.608 89.0669 121.493 82.0849 121.111C77.9848 120.888 73.8994 120.44 69.7784 120.299C68.6863 120.38 66.9057 120.336 65.8131 120.257C61.3841 119.935 54.3366 120.173 51.7209 115.952C52.5638 113.271 53.6229 109.737 53.4149 106.862Z" fill="#9B2F30"/>
<path d="M69.7784 120.299C70.2688 119.211 71.8398 118.903 72.7349 118.324C75.0508 116.827 81.3932 118.29 82.0849 121.112C77.9847 120.888 73.8993 120.44 69.7784 120.299Z" fill="#C55B2B"/>
<path d="M80.0424 107.219C83.5981 106.408 86.8347 105.654 90.485 105.463C99.1523 105.008 108.05 106.901 116.673 106.528C121.857 106.303 127.045 104.156 132.485 103.771C131.43 107.167 126.966 108.106 124.554 109.708L123.429 110.1C118.373 109.1 112.676 116.045 107.156 115.127C103.84 114.576 103.456 110.782 100.831 109.618C96.8629 107.858 91.3948 107.947 87.0765 108.088C85.1061 108.153 83.1247 108.445 81.1594 108.203C80.5512 108.131 80.4034 107.711 80.0424 107.219Z" fill="#9B2F30"/>
<path d="M139.702 105.63C142.847 107.381 145.45 108.156 148.963 108.82C150.448 113.128 153.312 116.047 146.721 117.572C141.172 118.856 135.291 119.089 129.654 119.858C128.134 120.036 123.243 120.557 121.905 120.505C124.56 114.463 136.932 116.102 139.568 113.561C141.725 111.479 138.469 109.353 138.67 107.115C138.735 106.393 139.172 106.069 139.702 105.63Z" fill="#9B2F30"/>
<path d="M124.554 109.708C125.268 110.037 125.318 110.041 125.824 110.618C126.266 112.469 122.906 113.66 121.48 113.052C120.741 111.89 122.131 110.822 123.067 110.294C123.186 110.227 123.308 110.163 123.429 110.1L124.554 109.708Z" fill="white"/>
<path d="M88.3347 108.747C90.225 108.686 92.3855 110.556 91.2637 112.654C89.1483 112.723 86.8661 110.988 88.3347 108.747Z" fill="white"/>
<path d="M109.499 116.071C110.376 116.015 111.038 116.097 111.551 116.871C111.83 118.188 111.065 118.708 110.01 119.292C109.217 119.338 108.812 119.2 108.224 118.716C107.709 117.378 108.511 116.833 109.499 116.071Z" fill="white"/>
<path d="M65.2013 109.267C65.8555 109.4 66.141 109.707 66.3959 110.288C66.3536 111.687 65.2809 112.049 64.1251 112.296C63.1609 112.01 62.6251 111.692 62.7217 110.624C63.4861 109.512 63.8984 109.528 65.2013 109.267Z" fill="white"/>
<path d="M133.858 106.675C134.551 106.686 134.836 106.663 135.048 107.376C134.838 108.17 134.654 108.28 134.08 108.915C133.306 108.869 132.992 108.855 132.778 108.068C133.021 107.289 133.197 107.228 133.858 106.675Z" fill="white"/>
<path d="M132.397 52.3584C133.634 53.0071 134.751 53.5591 135.898 54.37C139.459 56.512 141.314 57.5471 140 62.186C139.175 64.652 137.59 65.6534 135.611 67.2057C134.34 68.2019 133.065 69.1206 131.991 70.3422C129.472 73.2108 128.641 77.8076 124.893 79.4954C120.586 82.051 116.717 72.7082 113.469 70.589C110.016 68.3359 107.941 67.7267 104.045 66.4742C98.1855 66.0473 96.9355 65.5169 90.7018 66.3825C88.0829 67.1976 86.1767 67.8136 84.0454 69.6833C81.9489 71.4682 80.4403 73.0136 77.7498 73.7578C77.4518 73.5889 76.6354 73.0974 76.3503 73.0073C73.7852 71.4121 73.2911 66.6562 70.2 63.984C66.4544 60.7462 63.561 62.0053 59.0591 62.2366L58.87 61.8728C58.8522 60.3052 59.9982 58.4355 60.9362 57.23C62.1638 55.8884 62.8857 55.3335 64.467 54.465C66.6062 55.3109 68.8729 55.9849 71.0806 56.6269C75.2343 57.8029 78.1296 58.3551 82.4299 57.5352C88.0105 60.6612 97.5098 59.0208 103.859 59.1003C111.712 59.1983 120.735 60.6403 127.942 56.9568C129.962 55.9246 131.17 54.196 132.397 52.3584Z" fill="#F03946"/>
<path d="M132.397 52.3584C133.634 53.0071 134.752 53.5591 135.898 54.37C131.453 58.6203 129.993 60.813 122.753 60.8425C121.222 60.8486 118.526 60.5549 117.096 60.6263C108.905 61.0351 100.764 60.8942 92.5673 61.007C90.4561 61.0359 86.8644 60.3108 84.564 60.1679C81.8548 59.9996 78.7866 60.1727 76.1972 59.6994C74.796 59.4434 72.3632 58.1996 70.8972 57.6622L71.0806 56.6269C75.2344 57.8029 78.1297 58.3551 82.43 57.5352C88.0106 60.6612 97.5099 59.0209 103.859 59.1003C111.712 59.1984 120.735 60.6403 127.943 56.9568C129.962 55.9246 131.17 54.196 132.397 52.3584Z" fill="#9B2F30"/>
<path d="M126.101 76.6882C122.468 79.3056 118.645 75.48 119.964 73.4393C121.421 72.5823 123.067 74.6779 124.261 74.1925C126.155 73.4226 126.897 69.2907 128.145 67.6676C130.265 64.9127 133.613 64.3892 135.318 61.4522C136.107 60.0924 135.4 58.6045 134.926 57.3084L135.138 57.1719C136.289 57.5292 137.016 59.1358 136.821 60.2917C136.449 62.5076 134.995 63.9503 133.341 65.3004C134.972 65.1239 138.559 63.1266 140 62.1863C139.175 64.6523 137.59 65.6537 135.611 67.2059C134.34 68.2022 133.065 69.1208 131.991 70.3424C129.472 73.211 128.641 77.8079 124.893 79.4957C125.065 78.1698 125.799 78.1056 126.101 76.6882Z" fill="url(#paint0_linear_460_1864)"/>
<path d="M133.341 65.3004C134.972 65.1238 138.559 63.1266 140 62.1863C139.175 64.6522 137.59 65.6536 135.611 67.2059C134.34 68.2021 133.065 69.1208 131.991 70.3424C129.472 73.211 128.641 77.8079 124.893 79.4957C125.065 78.1697 125.799 78.1056 126.101 76.6881C129.893 72.4769 126.649 69.6493 133.341 65.3004Z" fill="#9B2F30"/>
<path d="M91.3799 64.7349C95.1267 62.571 98.781 62.8973 102.297 65.1327C102.96 65.5542 103.469 66.1045 104.045 66.4744C98.1856 66.0474 96.9356 65.517 90.7019 66.3827C90.8387 65.8866 91.1586 65.2116 91.3799 64.7349Z" fill="#9B2F30"/>
<path d="M64.4671 54.4651C66.6063 55.311 68.873 55.985 71.0807 56.627L70.8973 57.6623C66.1647 56.7023 64.9342 57.5865 60.9363 57.2301C62.1639 55.8885 62.8858 55.3336 64.4671 54.4651Z" fill="#9B2F30"/>
<path d="M82.1605 70.0795C82.9157 70.1212 83.3291 69.9215 84.0454 69.6833C81.949 71.4682 80.4403 73.0136 77.7499 73.7579C77.4518 73.589 76.6354 73.0975 76.3504 73.0073C78.7353 72.0788 79.9434 71.326 82.1605 70.0795Z" fill="#9B2F30"/>
<path d="M82.1605 70.0796C83.8113 68.3433 88.8108 66.218 90.7587 65.0921L91.3799 64.7349C91.1586 65.2116 90.8387 65.8866 90.7019 66.3827C88.083 67.1978 86.1768 67.8137 84.0454 69.6834C83.3291 69.9216 82.9157 70.1213 82.1605 70.0796Z" fill="#D1272F"/>
<path d="M65.2994 58.1187C71.9957 57.5498 73.9968 64.1431 78.7746 65.7649C80.5816 66.3782 85.5447 61.9816 88.3447 62.65C89.2296 62.8614 90.574 63.1059 91.1098 63.8649C90.2562 64.734 89.1745 64.0836 88.0939 64.3214C87.6431 64.4206 86.945 64.8244 86.5282 65.0578C84.2757 66.4272 81.2577 69.3487 78.5843 68.9519C72.184 68.0024 71.9369 57.0922 63.9573 59.4842C63.2623 59.6926 62.3859 60.1311 61.6582 60.0656L61.6072 59.7479C62.402 58.9016 64.1917 58.4417 65.2994 58.1187Z" fill="url(#paint1_linear_460_1864)"/>
<path d="M103.452 63.9019C107.116 63.4583 113.701 66.635 115.136 70.0139C113.172 69.9762 109.294 66.1619 107.077 65.5453C106.465 65.3745 103.787 64.3506 103.452 63.9019Z" fill="white"/>
<path d="M84.9158 48.3452C86.6869 42.8593 89.1863 37.995 94.5543 35.3102C103.027 31.0733 112.868 33.8351 119.876 39.5907C122.864 42.0457 127.131 45.2728 127.631 49.3527C126.268 56.2102 109.933 53.6441 104.943 53.6194C103.264 53.6112 100.219 53.7923 98.7177 53.6309L96.0933 53.6985C93.5474 54.2015 89.7614 54.1833 87.1905 53.8568C83.827 53.4296 84.4482 50.8649 84.9158 48.3452Z" fill="#F03946"/>
<path d="M98.7178 53.6308C99.1868 53.3736 102.11 53.2928 102.87 53.217C105.454 52.9597 108.873 52.2024 111.407 52.1762C116.534 52.1229 120.977 53.6852 125.676 50.5695C126.39 50.0966 126.846 50.0062 127.631 49.3525C126.268 56.2101 109.933 53.644 104.943 53.6193C103.264 53.6111 100.219 53.7922 98.7178 53.6308Z" fill="#9B2F30"/>
<path d="M84.9158 48.345C86.9601 51.415 92.5194 53.7879 96.0933 53.6983C93.5474 54.2013 89.7614 54.1831 87.1905 53.8567C83.827 53.4295 84.4482 50.8647 84.9158 48.345Z" fill="#9B2F30"/>
<path d="M87.8981 46.7401L87.601 46.5955C87.4934 46.1758 87.4256 46.2494 87.6961 45.8482C89.2047 43.6115 93.689 46.2997 91.6427 48.4488C91.351 49.1733 90.7815 49.801 90.144 50.2442C88.266 50.4973 88.1375 47.9504 87.8981 46.7401Z" fill="#9B2F30"/>
<path d="M87.8981 46.7401L87.601 46.5955C87.4934 46.1758 87.4256 46.2494 87.6961 45.8482C89.2047 43.6115 93.689 46.2997 91.6427 48.4488C90.9591 47.5133 90.8967 46.7874 89.704 46.2886C88.8395 46.244 88.7183 46.3629 87.8981 46.7401Z" fill="white"/>
<path d="M100.228 37.3582C99.8108 36.8479 99.9237 37.0842 99.9065 36.3301C100.925 34.0394 104.204 35.0132 104.608 37.4158L104.413 37.7309L103.972 37.6992C102.393 40.1506 101.417 39.6918 100.228 37.3582Z" fill="#9B2F30"/>
<path d="M100.228 37.3582C99.8108 36.8479 99.9237 37.0842 99.9065 36.3301C100.925 34.0394 104.204 35.0132 104.608 37.4158L104.413 37.7309L103.972 37.6992C103.136 36.7993 102.732 36.5151 101.731 35.7862C101.243 36.252 100.699 36.8599 100.228 37.3582Z" fill="white"/>
<path d="M95.7144 42.3452L95.2032 42.1194C95.2607 40.6597 98.0957 40.5386 99.248 41.5527C99.472 41.9749 99.5409 42.7974 99.2499 43.1972C98.557 44.2022 97.8104 45.752 96.4379 45.3195C95.3889 44.1814 95.7507 43.7965 95.7144 42.3452Z" fill="#9B2F30"/>
<path d="M95.7144 42.3452L95.2032 42.1194C95.2607 40.6597 98.0957 40.5386 99.248 41.5527C99.472 41.9749 99.5409 42.7974 99.2499 43.1972C97.9368 42.174 97.3108 41.3892 95.7144 42.3452Z" fill="white"/>
<path d="M113.41 49.0185C112.671 48.8387 112.86 49.0011 112.502 48.4866C114.141 45.4627 118.325 46.6615 116.796 49.4905L117.047 49.6525C116.926 50.1909 116.721 50.4086 116.26 50.744C114.993 51.6673 113.896 49.6951 113.41 49.0185Z" fill="#9B2F30"/>
<path d="M113.41 49.0185C112.671 48.8387 112.86 49.0011 112.502 48.4866C114.141 45.4627 118.325 46.6615 116.796 49.4905C115.998 48.811 115.653 48.0671 114.688 47.9306C113.99 48.1513 113.89 48.406 113.41 49.0185Z" fill="white"/>
<path d="M103.452 47.8179L103.293 47.4478C104.256 46.147 106.375 46.4905 107.246 47.8648L107.215 48.1919L106.681 48.3787C106.486 49.6346 106.411 50.3457 105.175 50.9067C103.18 50.8717 103.299 49.3181 103.452 47.8179Z" fill="#9B2F30"/>
<path d="M103.452 47.8179L103.293 47.4478C104.256 46.147 106.375 46.4905 107.246 47.8648L107.215 48.1919L106.681 48.3787C105.276 47.7561 104.91 47.658 103.452 47.8179Z" fill="white"/>
<path d="M108.649 39.971L108.32 39.5923C108.722 37.9671 111.051 38.0365 112.081 39.1938C112.225 39.7382 112.28 40.3681 111.872 40.8169C110.268 42.9993 109.227 42.175 108.649 39.971Z" fill="#9B2F30"/>
<path d="M108.649 39.971L108.32 39.5923C108.722 37.9671 111.051 38.0365 112.081 39.1938C112.225 39.7382 112.28 40.3681 111.872 40.8169C111.287 40.1473 110.99 39.5852 110.165 39.3184C109.417 39.3324 109.296 39.508 108.649 39.971Z" fill="white"/>
<path d="M119.355 45.6821L119.076 45.5101C119.69 43.7518 122.726 44.4017 121.796 46.5559C121.922 46.6614 121.842 46.5757 121.878 46.8979L121.524 47.3201C120.793 47.588 121.103 47.552 120.305 47.3599C119.696 46.9169 119.618 46.4123 119.355 45.6821Z" fill="white"/>
<path d="M119.355 45.6819C120.613 45.8071 120.733 46.0129 121.796 46.5558C121.922 46.6613 121.842 46.5755 121.878 46.8977L121.524 47.3199C120.793 47.5878 121.103 47.5518 120.305 47.3598C119.696 46.9167 119.617 46.4122 119.355 45.6819Z" fill="#9B2F30"/>
<path d="M68.8022 48.3273C69.0617 48.1583 69.3265 47.9972 69.596 47.8444C73.9099 45.3995 75.6816 44.2668 80.4398 45.565C80.1609 46.4306 79.9582 47.2953 79.7398 48.1774C79.5612 49.6845 79.3081 51.3589 79.3502 52.8616C77.4134 52.725 68.4237 50.8781 67.2221 49.803C67.4028 49.197 68.2547 48.649 68.8022 48.3273Z" fill="#03673B"/>
<path d="M68.8022 48.3273C69.0618 48.1583 69.3265 47.9972 69.596 47.8444C73.91 45.3995 75.6816 44.2668 80.4398 45.565C80.1609 46.4306 79.9582 47.2953 79.7398 48.1774C78.1485 48.4236 69.8571 48.7403 68.8022 48.3273Z" fill="#138542"/>
<path d="M82.2684 40.9938C81.7028 39.4356 80.1463 30.7884 80.2185 29.2237L80.4916 29.0063C81.1718 29.0751 81.4558 29.3767 82.0215 29.7943C83.9145 31.0796 85.63 32.6041 87.3186 34.1433C86.2286 35.1928 85.7221 35.798 84.7759 36.9926C83.9656 38.1958 83.0492 39.7446 82.2684 40.9938Z" fill="#03673B"/>
<path d="M82.0215 29.7944C83.9145 31.0798 85.6301 32.6043 87.3187 34.1435C86.2287 35.193 85.7222 35.7982 84.776 36.9928C84.2574 36.1819 81.842 30.5249 82.0215 29.7944Z" fill="#138542"/>
<path d="M92.9501 1.89546C106.358 1.35398 119.964 4.03535 131.509 11.0568C145.536 19.5604 155.632 33.2688 159.593 49.1904C163.105 63.7187 160.697 77.991 152.96 90.6993C151.36 82.9822 149.275 75.3734 146.719 67.9175C146.873 67.6149 147.022 67.3105 147.167 67.0039C148.953 63.2101 149.216 58.5536 147.83 54.7886C145.774 49.1996 140.02 47.3477 135.46 44.4383C134.315 43.7072 132.747 40.349 131.624 39.1259C120.94 27.4998 107.617 21.3474 91.9662 27.1844C90.2398 25.5456 88.8921 24.409 86.9817 23.0192C82.8 20.144 76.7346 18.2515 73.4294 23.4513C70.9825 27.3014 72.1277 32.698 73.0763 36.9001C69.7049 38.447 66.6658 39.7082 63.55 41.7983C59.8624 44.2721 58.7692 48.0943 55.3582 51.0144C52.5862 53.3873 50.1484 58.8467 50.4368 62.4737C50.5896 64.3936 51.2726 66.0234 52.3959 67.6727C51.6815 71.4204 50.5596 75.2816 49.7743 79.0437C48.2833 86.1869 46.7358 93.9359 45.9403 101.173C43.4755 98.2379 41.0754 95.8589 38.9125 92.5679C33.888 84.9224 31.6298 73.9048 31.2793 64.8997C30.6359 48.3782 35.7021 32.2421 46.9177 19.9457C58.8098 6.90762 75.7405 2.46432 92.9501 1.89546Z" fill="#FFF7E6"/>
<path fill-rule="evenodd" clip-rule="evenodd" d="M83.3827 136.835C83.4554 136.823 83.5294 136.823 83.6034 136.824C83.6344 136.824 83.6653 136.824 83.6961 136.823C90.2208 136.671 97.6342 140.944 97.774 148.168C97.8275 150.929 95.7119 153.319 93.6155 155.687C91.8866 157.64 90.1708 159.578 89.6951 161.697C89.169 164.041 93.0284 165.994 95.4291 166.061C96.1664 166.082 96.2488 165.161 96.3323 164.227C96.3764 163.734 96.4208 163.238 96.5623 162.875C97.5638 160.306 99.0414 157.797 101.694 156.662C103.058 156.078 105.455 155.782 106.819 156.38C107.497 156.678 108.015 157.249 108.249 157.954C108.699 159.311 107.501 161.661 106.29 164.035C104.938 166.687 103.57 169.37 104.468 170.733C105.616 172.473 106.941 173.637 108.03 174.592C110.397 176.67 111.644 177.764 107.506 181.664C104.831 184.185 102.683 183.369 100.087 182.381C98.6259 181.826 97.0228 181.216 95.1036 181.116C92.4614 180.979 90.5111 182.153 88.5029 183.361C86.6869 184.453 84.8237 185.575 82.3588 185.781C76.9417 186.233 70.8075 183.973 70.6896 177.655C70.6287 174.393 72.8897 171.336 75.1167 168.324C76.7241 166.151 78.3139 164.001 78.9999 161.816C79.5335 160.116 78.1863 158.251 76.8815 156.444C76.1599 155.445 75.4514 154.464 75.081 153.539C71.8904 145.568 74.1622 138.372 83.3827 136.835ZM88.7842 175.817C88.8955 175.763 88.9262 175.621 88.85 175.523L84.5778 170.03C84.4984 169.928 84.3454 169.927 84.2679 170.03C83.593 170.93 80.9984 174.621 82.4619 176.364C83.8988 178.074 87.8282 176.289 88.7842 175.817ZM85.729 157.415C84.3429 157.877 82.462 151.534 82.462 148.921C82.462 146.756 84.9842 145.177 85.729 145C86.4739 144.824 87.1386 144.85 87.6891 145.001C88.8187 145.309 89.1554 146.244 89.5432 147.321C89.5779 147.418 89.6131 147.516 89.6493 147.614C90.0892 148.812 89.6494 151.534 89.6494 151.534C89.3071 154.273 87.6891 156.762 85.729 157.415Z" fill="#3E0D2C"/>
<path d="M44.513 137.791C49.817 137.427 50.1022 142.093 49.9571 145.991C49.8179 149.158 49.8384 152.779 49.2689 155.908C48.0319 162.707 49.0597 168.139 50.0549 174.877C52.6834 172.985 55.9324 170.695 59.1947 171.11C65.1593 171.872 64.469 178.13 61.4916 181.672C59.7726 183.719 58.7018 184.757 56.6652 186.346C46.8555 193.683 38.9142 190.141 37.3949 178.07C36.4018 170.18 34.5264 140.605 44.513 137.791Z" fill="#3E0D2C"/>
<path d="M147.154 136.621C155.138 136.303 154.529 145.79 154.273 151.09C153.477 167.497 146.415 193.357 124.483 181.93C120.502 179.52 117.554 173.919 119.977 169.556C123.756 162.758 131.897 173.802 137.089 171.754C141.603 169.795 141.103 164.759 141.455 160.637C142.052 153.65 141.501 145.698 144.112 139.091C144.688 137.633 145.795 137.059 147.154 136.621Z" fill="#3E0D2C"/>
<path d="M34.504 120C42.3432 119.651 37.852 127.032 31.2705 127.74C28.5149 127.69 25.3472 126.217 27.7722 123.043C29.3049 121.038 32.1147 120.359 34.504 120Z" fill="#3E0D2C"/>
<path d="M150.031 124.601C151.578 124.516 157.985 124.161 156.044 128.048C155.416 129.304 152.347 130.084 150.892 130.312C141.75 130.51 140.908 125.432 150.031 124.601Z" fill="#3E0D2C"/>
<path d="M42.2115 123.036C46.3021 122.871 54.8689 125.202 46.9302 128.533C40.1788 130.638 36.5988 124.483 42.2115 123.036Z" fill="#3E0D2C"/>
<path d="M158.988 119.198C159.133 119.189 159.277 119.183 159.422 119.179C161.187 119.137 165.148 119.892 165.156 122.092C164.614 123.099 163.793 123.251 162.723 123.624C157.418 124.79 153.95 120.856 158.988 119.198Z" fill="#3E0D2C"/>
<path d="M40.3411 115.07C42.936 115.004 42.8706 117.569 41.3819 119.22C38.8491 119.154 38.8308 116.687 40.3411 115.07Z" fill="#3E0D2C"/>
<path d="M103.607 129.573C104.168 129.37 104.794 129.491 105.24 129.889C105.684 130.287 105.875 130.897 105.735 131.477C105.596 132.058 105.15 132.515 104.573 132.666C103.735 132.888 102.87 132.412 102.611 131.583C102.351 130.754 102.789 129.869 103.607 129.573Z" fill="#3E0D2C"/>
<path d="M159.771 125.612C160.609 125.395 161.467 125.894 161.691 126.73C161.915 127.567 161.423 128.428 160.588 128.659C159.744 128.893 158.871 128.394 158.645 127.547C158.417 126.701 158.925 125.832 159.771 125.612Z" fill="#3E0D2C"/>
<path d="M107.893 130.182C108.155 129.969 108.513 129.92 108.821 130.055C109.131 130.19 109.338 130.486 109.359 130.823C109.38 131.16 109.212 131.479 108.921 131.652C108.517 131.893 107.994 131.78 107.724 131.395C107.456 131.008 107.529 130.48 107.893 130.182Z" fill="#3E0D2C"/>
<defs>
<linearGradient id="paint0_linear_460_1864" x1="129.127" y1="57.035" x2="127.028" y2="77.4757" gradientUnits="userSpaceOnUse">
<stop stop-color="#FFEBF3"/>
<stop offset="1" stop-color="white"/>
</linearGradient>
<linearGradient id="paint1_linear_460_1864" x1="74.8192" y1="56.4065" x2="77.436" y2="68.9029" gradientUnits="userSpaceOnUse">
<stop stop-color="#FFE7F3"/>
<stop offset="1" stop-color="white"/>
</linearGradient>
</defs>
</svg>
