<svg width="512" height="512" viewBox="0 0 512 512" fill="none" xmlns="http://www.w3.org/2000/svg">
<path d="M208.482 62.5828C220.056 60.808 236.887 74.2467 243.609 83.0401C279.7 63.485 317.826 80.8865 343.263 108.458C347.602 113.161 350.435 118.406 352.941 124.205C373.727 134.586 393.426 142.436 386.719 169.691C385.708 173.798 383.993 176.389 381.578 179.769C384.58 185.894 387.132 195.205 389.098 201.778C397.403 229.528 401.773 258.372 410.481 286.004C412.339 291.906 415.285 297.957 415.938 304.135C417.102 315.19 408.021 322.785 398.434 325.916C389.792 328.771 380.808 329.555 371.859 330.662C358.827 332.311 345.764 333.71 332.676 334.858C325.106 335.818 313.84 336.345 306.05 336.801C280.266 338.205 254.432 338.421 228.628 337.449C216.858 336.949 205.28 335.906 193.536 335.173C180.119 334.487 168.35 334.946 154.919 332.914C142.366 331.015 125.289 324.319 124.61 309.113C124.399 304.401 127.738 297.743 128.341 292.497C130.815 270.972 133.714 249.454 137.767 228.163C140.922 211.034 145.899 194.608 148.733 177.587C137.58 166.24 145.195 151.975 153.928 141.578C156.658 138.328 160.36 135.968 163.886 133.628C164.34 118.842 192.045 107.621 204.398 105.712C203.097 98.5554 201.813 91.1993 200.865 83.9857C199.683 74.9891 199.531 67.3538 208.482 62.5828Z" fill="#3E0D2C"/>
<path d="M161.843 180.136C181.138 175.547 180.305 183.97 188.096 198.059C192.075 205.255 201.364 211.005 209.635 210.095C223.718 208.636 231.769 193.684 245.453 190.715C259.715 187.62 278.597 190.51 291.507 197.459C305.575 206.423 311.793 231.113 333.62 226.952C342.257 225.146 350.006 217.218 354.457 209.771C360.272 199.832 360.997 196.406 370.935 189.469C381.201 220.627 386.658 249.357 394.749 280.916C387.919 279.552 380.981 276.723 374.963 273.248C357.5 264.669 345.402 268.435 327.311 272.671C316.479 275.165 312.62 275.683 301.338 275.455C295.141 275.366 288.582 274.773 282.364 274.317L257.295 272.449C240.757 272.131 233.204 272.464 217.086 276.267C209.917 278.076 203.415 279.326 196.171 280.692C188.577 281.645 182.803 281.656 175.129 281.589C164.227 281.226 155.101 277.973 144.745 274.915C142.433 270.689 155.301 210.528 157.416 202.193C159.047 195.388 161.153 187.098 161.843 180.136Z" fill="#FCBC6C"/>
<path d="M217.086 276.267C216.929 275.931 216.737 275.544 216.688 275.171C216.448 273.37 219.016 264.794 219.489 262.175C222.009 248.227 226.009 210.853 233.565 200.335C237.006 195.546 242.723 192.344 248.536 191.512C252.461 190.951 256.188 191.906 259.307 194.374C267.495 200.85 269.797 214.207 270.879 223.955C272.4 237.654 272.507 249.89 266.775 262.706C265.483 265.592 263.875 268.892 261.731 271.242C260.455 272.642 259.031 272.369 257.295 272.449C240.757 272.131 233.203 272.464 217.086 276.267Z" fill="#FFF7E6"/>
<path d="M257.418 204.641C264.641 207.398 264.289 233.173 263.043 240.329C262.043 246.048 258.077 249.095 253.656 252.005C251.492 252.372 250.905 252.237 249.358 250.645C247.735 245.177 252.824 238.925 254.937 233.463C258.577 224.077 253.105 212.969 257.418 204.641Z" fill="white"/>
<path d="M241.998 202.69C244.16 202.975 244.83 203.521 245.708 205.437C245.162 208.435 243.193 208.488 241.306 211.223C238.78 214.884 240.167 218.137 236.626 220.691C233.795 219.299 231.719 218.593 232.479 214.901C233.449 210.189 238.188 205.277 241.998 202.69Z" fill="#FCBC6C"/>
<path d="M246.821 213.784C248.873 214.674 249.501 215.209 249.924 217.433C249.266 219.851 249.735 218.938 247.847 220.885C245.708 220.211 245.213 219.938 244.626 217.73C244.993 215.742 245.483 215.419 246.821 213.784Z" fill="#FCBC6C"/>
<path d="M249.327 256.842C251.236 257.437 251.614 257.721 252.242 259.54C251.92 261.301 251.063 262.017 249.868 263.419C247.76 262.834 247.239 262.591 246.877 260.358C247.525 258.344 247.688 258.297 249.327 256.842Z" fill="white"/>
<path d="M327.311 272.671C326.244 272.299 325.902 272.458 325.657 271.617C324.263 265.879 322.262 252.667 325.136 247.352C331.053 236.41 343.416 222.922 354.243 217.148C362.666 212.655 368.49 220.891 370.486 227.901C372.722 235.745 377.352 266.69 374.963 273.248C357.5 264.67 345.402 268.436 327.311 272.671Z" fill="#FFF7E6"/>
<path d="M331.982 241.664C332.875 241.936 333.35 242.146 334.218 242.499C335.815 245.186 332.206 254.453 331.829 257.885C331.584 260.126 331.293 262.67 330.859 264.867C325.596 263.672 329.664 244.922 331.982 241.664Z" fill="white"/>
<path d="M352.661 223.649C359.526 224.787 357.607 230.463 352.523 233.417C350.43 232.972 349.312 232.385 348.143 230.707C347.495 226.793 349.286 225.436 352.661 223.649Z" fill="#FCBC6C"/>
<path d="M346.515 240.05C349.419 240.338 350.726 240.522 351.532 243.379C351.114 245.566 350.501 246.126 349.2 247.914C344.825 246.708 343.416 243.647 346.515 240.05Z" fill="white"/>
<path d="M340.261 250.165C341.231 249.652 342.426 249.948 343.043 250.854C343.661 251.759 343.503 252.984 342.671 253.698C342.043 254.235 341.165 254.367 340.409 254.037C339.649 253.706 339.149 252.972 339.118 252.147C339.087 251.322 339.531 250.552 340.261 250.165Z" fill="white"/>
<path d="M282.364 274.317C279.332 260.746 278.883 247.708 278.985 233.752C279.021 229.421 278.393 202.11 285.662 202.417C297.362 202.911 301.267 222.492 300.879 231.467C300.981 247.24 298.092 260.526 301.338 275.456C295.141 275.366 288.582 274.773 282.364 274.317Z" fill="#FFF7E6"/>
<path d="M284.891 240.248C286.275 240.543 286.269 240.452 287.372 241.294C287.959 243.352 288.107 264.896 287.484 266.564C282.992 262.298 283.814 245.99 284.891 240.248Z" fill="white"/>
<path d="M284.901 215.346C289.582 216.793 288.888 220.365 287.316 224.142C286.657 224.29 286.03 224.293 285.346 224.341L284.544 223.556C283.6 221.037 283.977 217.818 284.901 215.346Z" fill="#FCBC6C"/>
<path d="M175.129 281.59C175.211 279.598 181.395 269.88 182.288 266.054C189.55 234.936 178.669 231.057 213.684 224.193C211.411 235.146 211.858 244.939 207.81 256.357C204.113 266.787 196.65 270.381 196.171 280.692C188.577 281.646 182.803 281.657 175.129 281.59Z" fill="#FFF7E6"/>
<path d="M207.062 231.735C212.801 234.886 203.294 255.413 200.915 259.318L200.104 259.184L199.817 258.306C200.999 253.909 205.58 234.052 207.062 231.735Z" fill="white"/>
<path d="M196.793 235.795C198.78 236.852 198.811 237.358 198.752 239.41C197.787 241.39 197.502 241.451 195.632 242.778C191.58 241.133 194.992 237.644 196.793 235.795Z" fill="#FCBC6C"/>
<path d="M157.416 202.194C179.261 222.766 154.635 253.184 146.447 274.145C146.229 274.701 145.274 274.78 144.745 274.916C142.433 270.69 155.301 210.529 157.416 202.194Z" fill="#FFF7E6"/>
<path d="M158.161 215.353C159.578 215.494 161.165 215.489 161.434 217.271C162.569 224.783 159.347 233.288 156.053 239.849L154.934 240.287L154.483 239.28C154.806 234.636 156.023 218.641 158.161 215.353Z" fill="white"/>
<path d="M353.294 276.724C362.181 276.777 364.493 277.9 372.538 281.681C380.925 286.348 387.868 288.415 397.235 290.185C401.196 301.676 408.832 309.459 391.257 313.525C376.459 316.949 360.777 317.57 345.744 319.622C341.691 320.097 328.648 321.486 325.08 321.348C310.609 322.957 289.307 323.897 274.804 323.883C256.162 324.288 237.512 323.981 218.893 322.963C207.96 322.367 197.065 321.174 186.076 320.797C183.164 321.013 178.415 320.895 175.502 320.684C163.691 319.827 144.898 320.46 137.923 309.206C140.17 302.055 142.995 292.631 142.44 284.965L143.3 283.951C146.293 283.936 158.387 287.9 162.29 288.903C174.619 292.071 201.544 290.354 213.447 285.918C222.928 283.754 231.559 281.744 241.293 281.234C264.406 280.022 288.133 285.07 311.129 284.074C324.953 283.475 338.786 277.749 353.294 276.724Z" fill="#C55B2B"/>
<path d="M142.44 284.965C144.132 288.988 146.666 288.306 149.935 291.23C152.663 293.67 157.369 302.204 160.792 303.112C170.073 305.573 184.687 305.974 194.046 303.439C198.957 302.109 193.036 294.496 196.77 292.741C205.636 289.272 214.234 297.663 220.786 301.771C230.014 307.558 239.157 311.407 249.71 313.654C259.986 316.029 270.603 304.77 278.429 315.121C280.047 317.26 276.024 322.175 274.804 323.883C256.162 324.288 237.512 323.981 218.893 322.964C207.959 322.367 197.065 321.174 186.076 320.797C183.164 321.013 178.415 320.896 175.502 320.684C163.691 319.827 144.898 320.461 137.923 309.206C140.17 302.055 142.995 292.631 142.44 284.965Z" fill="#9B2F30"/>
<path d="M186.076 320.797C187.383 317.895 191.573 317.073 193.96 315.53C200.135 311.537 217.049 315.438 218.893 322.963C207.959 322.367 197.065 321.174 186.076 320.797Z" fill="#C55B2B"/>
<path d="M213.446 285.918C222.928 283.754 231.559 281.744 241.293 281.234C264.406 280.022 288.133 285.07 311.129 284.074C324.953 283.475 338.786 277.749 353.294 276.724C350.481 285.777 338.577 288.283 332.145 292.554L329.143 293.599C315.662 290.932 300.471 309.453 285.749 307.006C276.907 305.536 275.881 295.417 268.883 292.315C258.301 287.622 243.72 287.857 232.204 288.235C226.95 288.408 221.666 289.185 216.425 288.54C214.803 288.348 214.409 287.23 213.446 285.918Z" fill="#9B2F30"/>
<path d="M372.538 281.681C380.925 286.348 387.868 288.415 397.235 290.185C401.196 301.675 408.832 309.459 391.257 313.525C376.459 316.949 360.777 317.57 345.744 319.622C341.691 320.097 328.648 321.485 325.08 321.347C332.16 305.233 365.152 309.606 372.181 302.828C377.934 297.278 369.251 291.607 369.787 285.64C369.96 283.713 371.124 282.85 372.538 281.681Z" fill="#9B2F30"/>
<path d="M332.145 292.554C334.049 293.431 334.182 293.441 335.529 294.981C336.709 299.918 327.75 303.093 323.947 301.471C321.977 298.373 325.683 295.525 328.179 294.118C328.495 293.939 328.822 293.766 329.144 293.599L332.145 292.554Z" fill="white"/>
<path d="M235.559 289.99C240.6 289.828 246.361 294.816 243.37 300.41C237.729 300.594 231.643 295.967 235.559 289.99Z" fill="white"/>
<path d="M291.997 309.523C294.335 309.375 296.101 309.593 297.469 311.657C298.214 315.169 296.173 316.556 293.36 318.112C291.247 318.234 290.164 317.866 288.597 316.577C287.224 313.009 289.363 311.555 291.997 309.523Z" fill="white"/>
<path d="M173.87 291.379C175.615 291.734 176.376 292.551 177.056 294.1C176.943 297.831 174.082 298.797 171 299.455C168.429 298.694 167 297.845 167.258 294.998C169.296 292.031 170.396 292.074 173.87 291.379Z" fill="white"/>
<path d="M356.954 284.467C358.801 284.496 359.562 284.435 360.129 286.336C359.567 288.453 359.077 288.747 357.546 290.441C355.483 290.317 354.646 290.279 354.075 288.182C354.723 286.103 355.193 285.942 356.954 284.467Z" fill="white"/>
<path d="M353.059 139.623C356.356 141.352 359.337 142.824 362.395 144.987C371.89 150.699 376.836 153.459 373.334 165.83C371.134 172.406 366.908 175.076 361.629 179.215C358.24 181.872 354.84 184.322 351.976 187.579C345.259 195.229 343.043 207.487 333.048 211.988C321.563 218.803 311.246 193.889 302.584 188.237C293.375 182.229 287.842 180.605 277.454 177.265C261.828 176.126 258.495 174.712 241.872 177.02C234.888 179.194 229.805 180.836 224.121 185.822C218.531 190.582 214.508 194.703 207.333 196.688C206.538 196.237 204.361 194.927 203.601 194.686C196.761 190.432 195.443 177.75 187.2 170.624C177.212 161.99 169.496 165.348 157.491 165.964L156.987 164.994C156.939 160.814 159.995 155.828 162.497 152.614C165.77 149.036 167.695 147.556 171.912 145.24C177.617 147.496 183.661 149.293 189.548 151.005C200.625 154.141 208.346 155.614 219.813 153.427C234.695 161.763 260.026 157.389 276.958 157.601C297.898 157.862 321.961 161.708 341.18 151.885C346.565 149.132 349.787 144.523 353.059 139.623Z" fill="#F03946"/>
<path d="M353.059 139.623C356.356 141.352 359.338 142.824 362.395 144.987C350.542 156.321 346.647 162.168 327.342 162.247C323.258 162.263 316.07 161.48 312.257 161.67C290.414 162.76 268.704 162.385 246.846 162.685C241.216 162.763 231.638 160.829 225.504 160.448C218.279 159.999 210.098 160.461 203.193 159.199C199.456 158.516 192.969 155.199 189.059 153.766L189.548 151.005C200.625 154.141 208.346 155.614 219.813 153.427C234.695 161.763 260.026 157.389 276.959 157.601C297.898 157.862 321.961 161.708 341.18 151.885C346.566 149.132 349.787 144.523 353.059 139.623Z" fill="#9B2F30"/>
<path d="M336.269 204.502C326.581 211.482 316.387 201.28 319.904 195.838C323.789 193.553 328.179 199.141 331.364 197.847C336.412 195.794 338.393 184.775 341.721 180.447C347.372 173.101 356.3 171.705 360.848 163.873C362.952 160.247 361.068 156.279 359.802 152.823L360.369 152.458C363.436 153.411 365.376 157.696 364.856 160.778C363.865 166.687 359.986 170.534 355.575 174.135C359.924 173.664 369.491 168.338 373.334 165.83C371.134 172.406 366.908 175.077 361.629 179.216C358.24 181.873 354.84 184.322 351.977 187.58C345.259 195.23 343.043 207.488 333.048 211.989C333.508 208.453 335.463 208.282 336.269 204.502Z" fill="url(#paint0_linear_460_1941)"/>
<path d="M355.575 174.134C359.924 173.664 369.491 168.338 373.334 165.83C371.134 172.406 366.908 175.076 361.629 179.216C358.24 181.872 354.84 184.322 351.977 187.58C345.259 195.229 343.043 207.488 333.048 211.988C333.508 208.453 335.463 208.282 336.269 204.502C346.382 193.272 337.729 185.731 355.575 174.134Z" fill="#9B2F30"/>
<path d="M243.68 172.626C253.671 166.856 263.416 167.726 272.793 173.687C274.559 174.811 275.917 176.279 277.454 177.265C261.828 176.127 258.495 174.712 241.872 177.021C242.237 175.698 243.09 173.898 243.68 172.626Z" fill="#9B2F30"/>
<path d="M171.912 145.24C177.617 147.496 183.661 149.293 189.548 151.005L189.059 153.766C176.439 151.206 173.158 153.564 162.497 152.614C165.77 149.036 167.695 147.556 171.912 145.24Z" fill="#9B2F30"/>
<path d="M219.095 186.879C221.108 186.99 222.211 186.457 224.121 185.822C218.531 190.582 214.508 194.703 207.333 196.688C206.538 196.237 204.361 194.927 203.601 194.686C209.961 192.21 213.183 190.203 219.095 186.879Z" fill="#9B2F30"/>
<path d="M219.095 186.879C223.497 182.249 236.829 176.581 242.023 173.579L243.68 172.626C243.09 173.897 242.237 175.697 241.872 177.02C234.888 179.194 229.805 180.836 224.121 185.822C222.211 186.457 221.109 186.99 219.095 186.879Z" fill="#D1272F"/>
<path d="M174.132 154.983C191.988 153.466 197.325 171.048 210.066 175.373C214.884 177.008 228.119 165.284 235.586 167.067C237.946 167.63 241.531 168.282 242.96 170.306C240.683 172.624 237.799 170.89 234.917 171.524C233.715 171.788 231.853 172.865 230.742 173.487C224.735 177.139 216.687 184.93 209.558 183.872C192.491 181.34 191.832 152.246 170.553 158.625C168.699 159.18 166.363 160.349 164.422 160.175L164.286 159.328C166.405 157.071 171.178 155.844 174.132 154.983Z" fill="url(#paint1_linear_460_1941)"/>
<path d="M275.871 170.405C285.642 169.222 303.202 177.693 307.03 186.703C301.793 186.603 291.451 176.431 285.539 174.787C283.906 174.332 276.765 171.601 275.871 170.405Z" fill="white"/>
<path d="M226.442 128.92C231.165 114.291 237.83 101.32 252.145 94.1604C274.738 82.8621 300.981 90.2268 319.669 105.575C327.637 112.122 339.016 120.727 340.348 131.607C336.714 149.894 293.156 143.051 279.848 142.985C275.371 142.963 267.249 143.446 263.247 143.016L256.249 143.196C249.46 144.537 239.364 144.489 232.508 143.618C223.539 142.479 225.195 135.64 226.442 128.92Z" fill="#F03946"/>
<path d="M263.247 143.015C264.498 142.329 272.293 142.114 274.319 141.912C281.211 141.225 290.328 139.206 297.086 139.136C310.756 138.994 322.604 143.16 335.136 134.852C337.04 133.591 338.255 133.35 340.348 131.606C336.714 149.893 293.156 143.05 279.848 142.984C275.371 142.962 267.249 143.445 263.247 143.015Z" fill="#9B2F30"/>
<path d="M226.442 128.92C231.894 137.107 246.719 143.434 256.249 143.196C249.46 144.537 239.364 144.488 232.508 143.618C223.539 142.479 225.195 135.639 226.442 128.92Z" fill="#9B2F30"/>
<path d="M234.395 124.64L233.603 124.255C233.316 123.136 233.135 123.332 233.856 122.262C237.879 116.297 249.837 123.466 244.381 129.197C243.603 131.129 242.084 132.803 240.384 133.985C235.376 134.66 235.033 127.868 234.395 124.64Z" fill="#9B2F30"/>
<path d="M234.395 124.64L233.603 124.255C233.316 123.136 233.135 123.332 233.856 122.262C237.879 116.297 249.837 123.466 244.381 129.197C242.558 126.702 242.391 124.766 239.211 123.436C236.905 123.317 236.582 123.634 234.395 124.64Z" fill="white"/>
<path d="M267.275 99.6216C266.162 98.2609 266.463 98.891 266.417 96.8802C269.133 90.7715 277.877 93.3684 278.954 99.7753L278.434 100.616L277.26 100.531C273.048 107.068 270.445 105.845 267.275 99.6216Z" fill="#9B2F30"/>
<path d="M267.275 99.6216C266.162 98.2609 266.463 98.891 266.417 96.8802C269.133 90.7715 277.877 93.3684 278.954 99.7753L278.434 100.616L277.26 100.531C275.029 98.1312 273.952 97.3735 271.282 95.4297C269.981 96.6719 268.531 98.293 267.275 99.6216Z" fill="white"/>
<path d="M255.238 112.92L253.875 112.318C254.028 108.426 261.588 108.103 264.661 110.807C265.259 111.933 265.442 114.126 264.666 115.193C262.819 117.873 260.828 122.005 257.168 120.852C254.37 117.817 255.335 116.791 255.238 112.92Z" fill="#9B2F30"/>
<path d="M255.238 112.92L253.875 112.318C254.028 108.426 261.588 108.103 264.661 110.807C265.259 111.933 265.442 114.126 264.666 115.193C261.165 112.464 259.496 110.371 255.238 112.92Z" fill="white"/>
<path d="M302.426 130.716C300.455 130.236 300.961 130.669 300.006 129.297C304.376 121.234 315.534 124.43 311.456 131.974L312.125 132.406C311.803 133.842 311.257 134.423 310.026 135.317C306.647 137.779 303.722 132.52 302.426 130.716Z" fill="#9B2F30"/>
<path d="M302.426 130.716C300.455 130.236 300.961 130.669 300.006 129.297C304.376 121.234 315.534 124.43 311.456 131.974C309.327 130.162 308.408 128.179 305.836 127.815C303.972 128.403 303.707 129.082 302.426 130.716Z" fill="white"/>
<path d="M275.871 127.514L275.448 126.527C278.015 123.058 283.666 123.974 285.989 127.639L285.907 128.511L284.483 129.01C283.962 132.359 283.763 134.255 280.465 135.751C275.146 135.658 275.463 131.515 275.871 127.514Z" fill="#9B2F30"/>
<path d="M275.871 127.514L275.448 126.527C278.015 123.058 283.666 123.974 285.989 127.639L285.907 128.511L284.483 129.01C280.736 127.349 279.761 127.088 275.871 127.514Z" fill="white"/>
<path d="M289.73 106.589L288.852 105.579C289.924 101.245 296.137 101.431 298.883 104.517C299.266 105.968 299.414 107.648 298.327 108.845C294.049 114.665 291.272 112.467 289.73 106.589Z" fill="#9B2F30"/>
<path d="M289.73 106.589L288.852 105.579C289.924 101.245 296.137 101.431 298.883 104.517C299.266 105.968 299.414 107.648 298.327 108.845C296.765 107.06 295.973 105.56 293.773 104.849C291.777 104.886 291.456 105.355 289.73 106.589Z" fill="white"/>
<path d="M318.281 121.819L317.535 121.36C319.174 116.671 327.27 118.404 324.789 124.149C325.126 124.43 324.912 124.201 325.009 125.061L324.064 126.187C322.114 126.901 322.941 126.805 320.813 126.293C319.189 125.111 318.98 123.766 318.281 121.819Z" fill="white"/>
<path d="M318.281 121.818C321.635 122.152 321.956 122.701 324.789 124.149C325.126 124.43 324.912 124.201 325.009 125.061L324.064 126.186C322.114 126.901 322.941 126.805 320.813 126.293C319.189 125.111 318.98 123.766 318.281 121.818Z" fill="#9B2F30"/>
<path d="M183.473 128.873C184.165 128.422 184.871 127.993 185.589 127.585C197.093 121.066 201.818 118.045 214.506 121.507C213.763 123.815 213.222 126.121 212.64 128.473C212.163 132.492 211.488 136.957 211.601 140.964C206.436 140.6 182.463 135.675 179.259 132.808C179.741 131.192 182.013 129.731 183.473 128.873Z" fill="#03673B"/>
<path d="M183.473 128.873C184.165 128.422 184.871 127.993 185.589 127.585C197.093 121.066 201.818 118.045 214.506 121.507C213.763 123.815 213.222 126.121 212.64 128.473C208.396 129.13 186.286 129.975 183.473 128.873Z" fill="#138542"/>
<path d="M219.383 109.317C217.874 105.161 213.723 82.1022 213.916 77.9296L214.644 77.3501C216.458 77.5334 217.216 78.3376 218.724 79.4512C223.772 82.8788 228.347 86.9441 232.85 91.0487C229.943 93.8473 228.592 95.4613 226.069 98.6469C223.908 101.855 221.465 105.986 219.383 109.317Z" fill="#03673B"/>
<path d="M218.724 79.4517C223.772 82.8793 228.347 86.9445 232.85 91.0492C229.943 93.8478 228.593 95.4617 226.069 98.6473C224.686 96.485 218.245 81.3995 218.724 79.4517Z" fill="#138542"/>
<path d="M247.867 5.05449C283.62 3.61054 319.904 10.7609 350.69 29.4847C388.097 52.161 415.019 88.7167 425.581 131.174C434.948 169.916 428.526 207.976 407.893 241.865C403.625 221.286 398.066 200.996 391.252 181.113C391.66 180.306 392.058 179.495 392.446 178.677C397.209 168.56 397.908 156.143 394.212 146.103C388.73 131.199 373.385 126.26 361.226 118.502C358.174 116.553 353.993 107.597 350.996 104.336C322.507 73.3327 286.979 56.9264 245.243 72.4917C240.639 68.1216 237.046 65.0907 231.951 61.3843C220.8 53.7173 204.626 48.6706 195.812 62.5367C189.287 72.8037 192.341 87.1947 194.87 98.4001C185.88 102.525 177.776 105.888 169.467 111.462C159.633 118.059 156.718 128.251 147.622 136.038C140.23 142.366 133.729 156.924 134.498 166.597C134.906 171.716 136.727 176.062 139.722 180.461C137.817 190.454 134.826 200.751 132.732 210.783C128.756 229.832 124.629 250.496 122.507 269.795C115.935 261.968 109.535 255.624 103.767 246.848C90.3681 226.46 84.3461 197.079 83.4114 173.066C81.6958 129.008 95.2057 85.979 125.114 53.1883C156.826 18.4202 201.975 6.57145 247.867 5.05449Z" fill="#FFF7E6"/>
<path fill-rule="evenodd" clip-rule="evenodd" d="M222.354 364.893C222.548 364.861 222.745 364.862 222.943 364.863C223.025 364.864 223.107 364.865 223.19 364.863C240.589 364.456 260.358 375.85 260.731 395.115C260.873 402.477 255.232 408.85 249.641 415.165C245.031 420.373 240.456 425.541 239.187 431.193C237.784 437.444 248.076 442.651 254.478 442.83C256.444 442.885 256.664 440.429 256.886 437.94C257.004 436.625 257.122 435.301 257.499 434.333C260.17 427.483 264.11 420.794 271.185 417.765C274.82 416.209 281.213 415.418 284.85 417.014C286.659 417.808 288.04 419.331 288.663 421.211C289.864 424.83 286.669 431.096 283.441 437.427C279.834 444.5 276.186 451.655 278.582 455.288C281.641 459.929 285.176 463.032 288.08 465.58C294.391 471.12 297.717 474.039 286.683 484.438C279.549 491.161 273.823 488.983 266.898 486.35C263.002 484.869 258.728 483.243 253.61 482.977C246.564 482.611 241.363 485.741 236.008 488.963C231.165 491.876 226.197 494.866 219.624 495.415C205.178 496.623 188.82 490.595 188.506 473.746C188.343 465.048 194.373 456.896 200.311 448.866C204.598 443.069 208.837 437.337 210.666 431.51C212.089 426.977 208.497 422.003 205.017 417.185C203.093 414.521 201.204 411.904 200.216 409.437C191.708 388.181 197.766 368.994 222.354 364.893ZM237.119 468.666C237.229 468.61 237.253 468.471 237.177 468.373L225.281 453.079C225.202 452.977 225.054 452.97 224.975 453.072C223.765 454.64 215.767 465.384 219.899 470.303C223.953 475.13 235.448 469.518 237.119 468.666ZM228.611 419.774C224.915 421.006 219.899 404.092 219.899 397.123C219.899 391.349 226.624 387.139 228.611 386.668C230.597 386.198 232.37 386.268 233.838 386.669C236.85 387.49 237.748 389.984 238.782 392.857C238.875 393.115 238.968 393.375 239.065 393.638C240.238 396.832 239.065 404.092 239.065 404.092C238.152 411.396 233.838 418.032 228.611 419.774Z" fill="#3E0D2C"/>
<path d="M118.701 367.441C132.845 366.471 133.606 378.914 133.219 389.31C132.848 397.755 132.903 407.41 131.384 415.753C128.085 433.884 130.826 448.37 133.48 466.337C140.489 461.293 149.153 455.186 157.853 456.294C173.758 458.326 171.917 475.012 163.978 484.458C159.394 489.916 156.538 492.684 151.107 496.922C124.948 516.488 103.771 507.042 99.7197 474.854C97.0714 453.813 92.0704 374.947 118.701 367.441Z" fill="#3E0D2C"/>
<path d="M392.411 364.322C413.702 363.474 412.079 388.774 411.395 402.907C409.271 446.659 390.44 515.62 331.956 485.148C321.338 478.719 313.477 463.785 319.94 452.148C330.016 434.022 351.726 463.473 365.57 458.01C377.607 452.786 376.275 439.358 377.214 428.365C378.807 409.733 377.337 388.529 384.299 370.908C385.836 367.023 388.786 365.491 392.411 364.322Z" fill="#3E0D2C"/>
<path d="M92.0108 319.999C112.915 319.068 100.939 338.752 83.388 340.639C76.0399 340.507 67.5927 336.578 74.0593 328.115C78.1465 322.766 85.6391 320.956 92.0108 319.999Z" fill="#3E0D2C"/>
<path d="M400.083 332.269C404.207 332.043 421.293 331.097 416.116 341.462C414.442 344.811 406.259 346.89 402.38 347.5C378 348.025 375.754 334.484 400.083 332.269Z" fill="#3E0D2C"/>
<path d="M112.564 328.096C123.472 327.654 146.317 333.872 125.147 342.753C107.144 348.368 97.5968 331.954 112.564 328.096Z" fill="#3E0D2C"/>
<path d="M423.968 317.862C424.356 317.839 424.738 317.822 425.126 317.812C429.833 317.7 440.394 319.713 440.415 325.578C438.97 328.264 436.78 328.669 433.927 329.665C419.782 332.774 410.532 322.283 423.968 317.862Z" fill="#3E0D2C"/>
<path d="M107.576 306.854C114.496 306.677 114.322 313.518 110.352 317.921C103.598 317.745 103.549 311.166 107.576 306.854Z" fill="#3E0D2C"/>
<path d="M276.285 345.528C277.78 344.986 279.45 345.309 280.639 346.37C281.823 347.431 282.334 349.059 281.961 350.606C281.588 352.153 280.399 353.374 278.863 353.777C276.627 354.369 274.319 353.098 273.63 350.887C272.936 348.676 274.105 346.317 276.285 345.528Z" fill="#3E0D2C"/>
<path d="M426.055 334.965C428.291 334.385 430.578 335.716 431.175 337.948C431.773 340.178 430.461 342.474 428.235 343.09C425.984 343.714 423.656 342.383 423.054 340.125C422.446 337.868 423.799 335.551 426.055 334.965Z" fill="#3E0D2C"/>
<path d="M287.714 347.153C288.413 346.584 289.368 346.453 290.19 346.813C291.017 347.173 291.568 347.964 291.624 348.86C291.68 349.759 291.231 350.612 290.455 351.071C289.378 351.715 287.985 351.413 287.265 350.387C286.55 349.356 286.744 347.946 287.714 347.153Z" fill="#3E0D2C"/>
<defs>
<linearGradient id="paint0_linear_460_1941" x1="344.34" y1="152.093" x2="338.74" y2="206.602" gradientUnits="userSpaceOnUse">
<stop stop-color="#FFEBF3"/>
<stop offset="1" stop-color="white"/>
</linearGradient>
<linearGradient id="paint1_linear_460_1941" x1="199.518" y1="150.417" x2="206.496" y2="183.741" gradientUnits="userSpaceOnUse">
<stop stop-color="#FFE7F3"/>
<stop offset="1" stop-color="white"/>
</linearGradient>
</defs>
</svg>
