<svg width="50" height="50" viewBox="0 0 50 50" fill="none" xmlns="http://www.w3.org/2000/svg">
<path d="M20.3596 6.11176C21.4899 5.93844 23.1335 7.25082 23.79 8.10955C27.3144 6.19987 31.0377 7.89923 33.5218 10.5917C33.9455 11.051 34.2222 11.5633 34.4669 12.1296C36.4968 13.1433 38.4206 13.9099 37.7655 16.5716C37.6668 16.9726 37.4993 17.2257 37.2635 17.5557C37.5567 18.1539 37.8059 19.0631 37.9978 19.7051C38.8089 22.4151 39.2356 25.2318 40.086 27.9303C40.2675 28.5066 40.5551 29.0975 40.6189 29.7008C40.7326 30.7804 39.8458 31.5221 38.9096 31.8279C38.0656 32.1067 37.1883 32.1832 36.3144 32.2914C35.0417 32.4524 33.766 32.5891 32.4879 32.7012C31.7486 32.7949 30.6484 32.8464 29.8877 32.8909C27.3698 33.028 24.8469 33.0491 22.327 32.9542C21.1775 32.9053 20.0469 32.8035 18.9 32.7319C17.5897 32.6649 16.4405 32.7097 15.1289 32.5113C13.903 32.3258 12.2353 31.6719 12.169 30.187C12.1484 29.7269 12.4744 29.0766 12.5333 28.5643C12.7749 26.4622 13.058 24.3609 13.4538 22.2817C13.7619 20.609 14.248 19.0049 14.5247 17.3426C13.4356 16.2346 14.1792 14.8415 15.032 13.8262C15.2986 13.5087 15.6602 13.2783 16.0045 13.0498C16.0488 11.6058 18.7544 10.51 19.9607 10.3236C19.8337 9.62471 19.7083 8.90635 19.6157 8.20189C19.5003 7.32332 19.4855 6.57768 20.3596 6.11176Z" fill="#3E0D2C"/>
<path d="M15.805 17.5916C17.6893 17.1434 17.6079 17.9659 18.3687 19.3418C18.7574 20.0446 19.6645 20.606 20.4722 20.5172C21.8474 20.3747 22.6337 18.9146 23.97 18.6247C25.3628 18.3223 27.2068 18.6046 28.4675 19.2832C29.8413 20.1586 30.4485 22.5697 32.5801 22.1634C33.4236 21.9871 34.1803 21.2128 34.615 20.4856C35.1828 19.515 35.2536 19.1804 36.2242 18.503C37.2266 21.5457 37.7595 24.3513 38.5497 27.4333C37.8827 27.3001 37.2052 27.0238 36.6175 26.6844C34.9121 25.8467 33.7307 26.2144 31.964 26.6281C30.9061 26.8717 30.5293 26.9222 29.4276 26.9001C28.8224 26.8913 28.1818 26.8334 27.5747 26.7889L25.1265 26.6064C23.5115 26.5754 22.7738 26.6079 21.1998 26.9793C20.4997 27.156 19.8648 27.278 19.1574 27.4114C18.4157 27.5045 17.8518 27.5056 17.1024 27.499C16.0378 27.4635 15.1466 27.1459 14.1353 26.8473C13.9094 26.4346 15.1662 20.5595 15.3727 19.7456C15.532 19.0809 15.7376 18.2714 15.805 17.5916Z" fill="#FCBC6C"/>
<path d="M21.1998 26.9793C21.1845 26.9465 21.1658 26.9087 21.161 26.8723C21.1375 26.6964 21.3883 25.8589 21.4345 25.6031C21.6806 24.241 22.0712 20.5912 22.8092 19.5641C23.1451 19.0964 23.7035 18.7837 24.2711 18.7025C24.6545 18.6476 25.0184 18.7409 25.323 18.982C26.1226 19.6143 26.3474 20.9188 26.4531 21.8707C26.6016 23.2085 26.6121 24.4035 26.0523 25.655C25.9261 25.9369 25.7691 26.2591 25.5597 26.4886C25.4351 26.6253 25.296 26.5986 25.1265 26.6064C23.5115 26.5754 22.7738 26.6079 21.1998 26.9793Z" fill="#FFF7E6"/>
<path d="M25.1385 19.9846C25.8439 20.2539 25.8095 22.771 25.6879 23.4698C25.5901 24.0283 25.2028 24.3258 24.7711 24.6101C24.5597 24.6459 24.5024 24.6327 24.3514 24.4772C24.1928 23.9432 24.6899 23.3327 24.8962 22.7994C25.2517 21.8827 24.7173 20.7979 25.1385 19.9846Z" fill="white"/>
<path d="M23.6326 19.7939C23.8437 19.8218 23.9092 19.8751 23.9949 20.0623C23.9416 20.355 23.7493 20.3601 23.565 20.6273C23.3184 20.9848 23.4539 21.3024 23.108 21.5518C22.8315 21.4159 22.6288 21.347 22.703 20.9864C22.7977 20.5263 23.2606 20.0466 23.6326 19.7939Z" fill="#FCBC6C"/>
<path d="M24.1036 20.8774C24.304 20.9643 24.3653 21.0166 24.4067 21.2338C24.3424 21.4699 24.3882 21.3808 24.2038 21.5709C23.9949 21.505 23.9465 21.4784 23.8892 21.2627C23.9251 21.0686 23.973 21.0371 24.1036 20.8774Z" fill="#FCBC6C"/>
<path d="M24.3484 25.0823C24.5348 25.1404 24.5717 25.1681 24.633 25.3458C24.6016 25.5178 24.5178 25.5876 24.4012 25.7246C24.1953 25.6674 24.1445 25.6437 24.1091 25.4256C24.1724 25.229 24.1883 25.2244 24.3484 25.0823Z" fill="white"/>
<path d="M31.964 26.6281C31.8598 26.5917 31.8264 26.6072 31.8024 26.525C31.6664 25.9647 31.4709 24.6744 31.7516 24.1555C32.3294 23.0869 33.5367 21.7697 34.594 21.2058C35.4166 20.767 35.9854 21.5714 36.1803 22.2559C36.3986 23.022 36.8508 26.0439 36.6175 26.6844C34.9121 25.8467 33.7306 26.2144 31.964 26.6281Z" fill="#FFF7E6"/>
<path d="M32.4201 23.6001C32.5073 23.6267 32.5537 23.6471 32.6384 23.6816C32.7945 23.9441 32.442 24.849 32.4051 25.1841C32.3812 25.403 32.3528 25.6515 32.3104 25.866C31.7965 25.7493 32.1938 23.9182 32.4201 23.6001Z" fill="white"/>
<path d="M34.4395 21.8408C35.11 21.9519 34.9226 22.5062 34.4261 22.7947C34.2217 22.7513 34.1125 22.6939 33.9984 22.53C33.935 22.1478 34.11 22.0153 34.4395 21.8408Z" fill="#FCBC6C"/>
<path d="M33.8393 23.4424C34.123 23.4705 34.2506 23.4885 34.3293 23.7675C34.2885 23.981 34.2286 24.0358 34.1015 24.2104C33.6743 24.0926 33.5367 23.7937 33.8393 23.4424Z" fill="white"/>
<path d="M33.2287 24.4302C33.3234 24.3801 33.4401 24.4091 33.5004 24.4975C33.5607 24.5859 33.5452 24.7055 33.464 24.7752C33.4027 24.8277 33.3169 24.8407 33.2431 24.8084C33.1689 24.7761 33.12 24.7044 33.117 24.6238C33.114 24.5432 33.1574 24.468 33.2287 24.4302Z" fill="white"/>
<path d="M27.5747 26.7889C27.2786 25.4636 27.2347 24.1903 27.2447 22.8274C27.2482 22.4045 27.1868 19.7374 27.8967 19.7673C29.0393 19.8156 29.4206 21.7278 29.3827 22.6043C29.3927 24.1446 29.1106 25.4421 29.4276 26.9C28.8224 26.8913 28.1818 26.8334 27.5747 26.7889Z" fill="#FFF7E6"/>
<path d="M27.8214 23.4617C27.9565 23.4905 27.956 23.4816 28.0637 23.5638C28.121 23.7648 28.1355 25.8688 28.0747 26.0317C27.636 25.6151 27.7162 24.0225 27.8214 23.4617Z" fill="white"/>
<path d="M27.8225 21.03C28.2796 21.1713 28.2118 21.5201 28.0582 21.889C27.9939 21.9035 27.9326 21.9038 27.8658 21.9085L27.7876 21.8318C27.6953 21.5858 27.7322 21.2714 27.8225 21.03Z" fill="#FCBC6C"/>
<path d="M17.1024 27.4992C17.1104 27.3047 17.7144 26.3557 17.8016 25.982C18.5108 22.9431 17.4481 22.5643 20.8676 21.894C20.6456 22.9636 20.6892 23.9199 20.294 25.035C19.9329 26.0536 19.2041 26.4046 19.1573 27.4115C18.4157 27.5047 17.8518 27.5057 17.1024 27.4992Z" fill="#FFF7E6"/>
<path d="M20.2209 22.6304C20.7813 22.938 19.8529 24.9426 19.6206 25.324L19.5414 25.3109L19.5134 25.2252C19.6289 24.7958 20.0762 22.8566 20.2209 22.6304Z" fill="white"/>
<path d="M19.2181 23.0269C19.4121 23.1301 19.4152 23.1795 19.4093 23.3799C19.3151 23.5733 19.2873 23.5792 19.1047 23.7088C18.709 23.5482 19.0422 23.2074 19.2181 23.0269Z" fill="#FCBC6C"/>
<path d="M15.3727 19.7456C17.506 21.7546 15.1011 24.7251 14.3015 26.7721C14.2802 26.8264 14.1869 26.8341 14.1353 26.8473C13.9094 26.4346 15.1662 20.5596 15.3727 19.7456Z" fill="#FFF7E6"/>
<path d="M15.4455 21.0305C15.5838 21.0443 15.7387 21.0438 15.765 21.2178C15.8759 21.9514 15.5612 22.7819 15.2396 23.4227L15.1303 23.4654L15.0862 23.3672C15.1177 22.9137 15.2366 21.3516 15.4455 21.0305Z" fill="white"/>
<path d="M34.5013 27.0239C35.3692 27.0291 35.595 27.1388 36.3807 27.508C37.1997 27.9638 37.8777 28.1657 38.7924 28.3385C39.1793 29.4606 39.925 30.2207 38.2087 30.6179C36.7635 30.9522 35.2321 31.0128 33.764 31.2132C33.3682 31.2596 32.0946 31.3952 31.7461 31.3817C30.3329 31.5389 28.2526 31.6307 26.8364 31.6293C25.0158 31.6688 23.1945 31.6389 21.3763 31.5395C20.3085 31.4813 19.2446 31.3647 18.1715 31.3279C17.8871 31.349 17.4234 31.3376 17.1388 31.3169C15.9854 31.2333 14.1501 31.2951 13.469 30.196C13.6885 29.4976 13.9643 28.5773 13.9101 27.8287L13.9941 27.7297C14.2864 27.7282 15.4675 28.1154 15.8486 28.2133C17.0527 28.5227 19.682 28.355 20.8444 27.9218C21.7703 27.7105 22.6132 27.5142 23.5638 27.4644C25.8209 27.346 28.138 27.839 30.3837 27.7417C31.7336 27.6832 33.0846 27.1241 34.5013 27.0239Z" fill="#C55B2B"/>
<path d="M13.9101 27.8286C14.0754 28.2215 14.3229 28.1549 14.6421 28.4404C14.9085 28.6788 15.3681 29.5121 15.7024 29.6008C16.6087 29.8411 18.0359 29.8802 18.9498 29.6327C19.4294 29.5028 18.8511 28.7593 19.2158 28.588C20.0817 28.2492 20.9212 29.0686 21.5611 29.4699C22.4623 30.035 23.3551 30.4108 24.3857 30.6303C25.3892 30.8622 26.4261 29.7627 27.1903 30.7735C27.3483 30.9825 26.9555 31.4624 26.8364 31.6292C25.0158 31.6688 23.1945 31.6388 21.3763 31.5394C20.3085 31.4812 19.2446 31.3647 18.1715 31.3279C17.8871 31.3489 17.4234 31.3375 17.1388 31.3168C15.9854 31.2332 14.1501 31.295 13.469 30.1959C13.6885 29.4976 13.9643 28.5772 13.9101 27.8286Z" fill="#9B2F30"/>
<path d="M18.1714 31.328C18.2992 31.0447 18.7083 30.9644 18.9414 30.8136C19.5445 30.4238 21.1962 30.8047 21.3763 31.5396C20.3085 31.4814 19.2446 31.3648 18.1714 31.328Z" fill="#C55B2B"/>
<path d="M20.8444 27.9218C21.7704 27.7105 22.6133 27.5142 23.5639 27.4644C25.821 27.346 28.138 27.839 30.3837 27.7417C31.7337 27.6832 33.0846 27.1241 34.5014 27.0239C34.2267 27.9081 33.0642 28.1528 32.4361 28.5699L32.143 28.6719C30.8264 28.4114 29.3429 30.2202 27.9052 29.9812C27.0418 29.8377 26.9416 28.8495 26.2581 28.5465C25.2248 28.0882 23.8008 28.1112 22.6762 28.1481C22.1631 28.165 21.6471 28.2409 21.1353 28.1779C20.9769 28.1591 20.9384 28.0499 20.8444 27.9218Z" fill="#9B2F30"/>
<path d="M36.3807 27.5081C37.1998 27.9638 37.8777 28.1657 38.7925 28.3386C39.1793 29.4607 39.9251 30.2208 38.2087 30.6179C36.7636 30.9522 35.2322 31.0128 33.7641 31.2132C33.3683 31.2597 32.0946 31.3952 31.7462 31.3818C32.4376 29.8081 35.6594 30.2351 36.3458 29.5732C36.9076 29.0312 36.0597 28.4774 36.112 27.8947C36.129 27.7066 36.2426 27.6222 36.3807 27.5081Z" fill="#9B2F30"/>
<path d="M32.436 28.5698C32.622 28.6554 32.6349 28.6564 32.7665 28.8068C32.8817 29.2889 32.0068 29.599 31.6354 29.4406C31.443 29.1381 31.8049 28.8599 32.0487 28.7226C32.0796 28.7051 32.1115 28.6882 32.1429 28.6719L32.436 28.5698Z" fill="white"/>
<path d="M23.0038 28.3195C23.4961 28.3036 24.0587 28.7907 23.7666 29.337C23.2157 29.355 22.6214 28.9032 23.0038 28.3195Z" fill="white"/>
<path d="M28.5153 30.227C28.7437 30.2125 28.9161 30.2339 29.0497 30.4354C29.1225 30.7784 28.9231 30.9138 28.6484 31.0658C28.4421 31.0777 28.3364 31.0418 28.1833 30.9158C28.0492 30.5675 28.2581 30.4255 28.5153 30.227Z" fill="white"/>
<path d="M16.9795 28.4551C17.1499 28.4898 17.2242 28.5696 17.2906 28.7208C17.2796 29.0852 17.0002 29.1795 16.6992 29.2438C16.4481 29.1694 16.3086 29.0865 16.3338 28.8086C16.5328 28.5188 16.6402 28.5229 16.9795 28.4551Z" fill="white"/>
<path d="M34.8588 27.78C35.0392 27.7828 35.1135 27.7769 35.1689 27.9625C35.114 28.1693 35.0662 28.198 34.9166 28.3634C34.7152 28.3513 34.6335 28.3476 34.5776 28.1428C34.6409 27.9397 34.6868 27.9241 34.8588 27.78Z" fill="white"/>
<path d="M34.4784 13.635C34.8004 13.8039 35.0916 13.9477 35.3902 14.1589C36.3174 14.7167 36.8004 14.9862 36.4584 16.1943C36.2436 16.8365 35.8308 17.0972 35.3154 17.5015C34.9844 17.7609 34.6524 18.0002 34.3727 18.3183C33.7167 19.0653 33.5003 20.2624 32.5243 20.702C31.4026 21.3675 30.3952 18.9344 29.5492 18.3826C28.6499 17.7958 28.1095 17.6372 27.0951 17.311C25.5692 17.1998 25.2436 17.0617 23.6203 17.2871C22.9383 17.4994 22.4419 17.6598 21.8868 18.1467C21.3409 18.6115 20.948 19.014 20.2474 19.2078C20.1697 19.1638 19.9571 19.0358 19.8829 19.0123C19.2149 18.5969 19.0863 17.3584 18.2813 16.6625C17.3059 15.8193 16.5524 16.1472 15.38 16.2075L15.3307 16.1127C15.3261 15.7045 15.6246 15.2176 15.8688 14.9037C16.1885 14.5543 16.3765 14.4098 16.7883 14.1836C17.3454 14.4039 17.9357 14.5794 18.5106 14.7466C19.5923 15.0528 20.3463 15.1967 21.4661 14.9831C22.9194 15.7972 25.3932 15.37 27.0467 15.3907C29.0916 15.4162 31.4415 15.7918 33.3184 14.8325C33.8443 14.5637 34.1589 14.1135 34.4784 13.635Z" fill="#F03946"/>
<path d="M34.4784 13.635C34.8004 13.8039 35.0916 13.9477 35.3902 14.1589C34.2326 15.2657 33.8523 15.8367 31.9669 15.8444C31.5681 15.846 30.8663 15.7695 30.4939 15.7881C28.3608 15.8946 26.2407 15.8579 24.1061 15.8872C23.5563 15.8948 22.6209 15.7059 22.0219 15.6687C21.3164 15.6249 20.5174 15.67 19.843 15.5467C19.4781 15.4801 18.8446 15.1562 18.4628 15.0162L18.5106 14.7466C19.5923 15.0529 20.3463 15.1967 21.4662 14.9831C22.9194 15.7972 25.3932 15.37 27.0467 15.3907C29.0916 15.4162 31.4415 15.7918 33.3184 14.8325C33.8443 14.5637 34.1589 14.1135 34.4784 13.635Z" fill="#9B2F30"/>
<path d="M32.8388 19.971C31.8927 20.6527 30.8971 19.6564 31.2406 19.125C31.62 18.9018 32.0487 19.4475 32.3597 19.3211C32.8528 19.1206 33.0462 18.0446 33.3712 17.6219C33.923 16.9045 34.7949 16.7682 35.2391 16.0033C35.4445 15.6492 35.2605 15.2617 35.1369 14.9242L35.1922 14.8887C35.4918 14.9817 35.6813 15.4001 35.6304 15.7011C35.5337 16.2782 35.1548 16.6539 34.7241 17.0055C35.1489 16.9595 36.0831 16.4394 36.4584 16.1945C36.2436 16.8367 35.8308 17.0975 35.3154 17.5017C34.9844 17.7611 34.6524 18.0004 34.3727 18.3185C33.7167 19.0655 33.5003 20.2626 32.5243 20.7022C32.5691 20.3569 32.76 20.3402 32.8388 19.971Z" fill="url(#paint0_linear_456_1251)"/>
<path d="M34.7242 17.0053C35.1489 16.9593 36.0831 16.4392 36.4585 16.1943C36.2436 16.8365 35.8309 17.0973 35.3154 17.5015C34.9844 17.761 34.6524 18.0002 34.3727 18.3183C33.7167 19.0654 33.5004 20.2625 32.5243 20.702C32.5692 20.3567 32.7601 20.34 32.8388 19.9709C33.8264 18.8742 32.9814 18.1378 34.7242 17.0053Z" fill="#9B2F30"/>
<path d="M23.7969 16.858C24.7726 16.2945 25.7242 16.3795 26.64 16.9616C26.8125 17.0714 26.9451 17.2147 27.0951 17.311C25.5692 17.1998 25.2437 17.0617 23.6203 17.2871C23.6559 17.1579 23.7392 16.9822 23.7969 16.858Z" fill="#9B2F30"/>
<path d="M16.7883 14.1836C17.3454 14.4039 17.9357 14.5794 18.5106 14.7466L18.4628 15.0162C17.2304 14.7662 16.91 14.9965 15.8688 14.9037C16.1885 14.5543 16.3765 14.4098 16.7883 14.1836Z" fill="#9B2F30"/>
<path d="M21.396 18.2499C21.5926 18.2608 21.7003 18.2088 21.8869 18.1467C21.3409 18.6115 20.948 19.014 20.2474 19.2078C20.1698 19.1638 19.9572 19.0358 19.8829 19.0123C20.504 18.7706 20.8186 18.5745 21.396 18.2499Z" fill="#9B2F30"/>
<path d="M21.396 18.25C21.8259 17.7979 23.1278 17.2444 23.6351 16.9512L23.7969 16.8582C23.7393 16.9823 23.656 17.1581 23.6203 17.2873C22.9383 17.4995 22.4419 17.6599 21.8869 18.1468C21.7003 18.2089 21.5927 18.2609 21.396 18.25Z" fill="#D1272F"/>
<path d="M17.0051 15.1353C18.7489 14.9871 19.27 16.7041 20.5142 17.1265C20.9848 17.2862 22.2773 16.1412 23.0065 16.3153C23.2369 16.3703 23.587 16.434 23.7265 16.6317C23.5043 16.858 23.2226 16.6886 22.9411 16.7505C22.8238 16.7764 22.6419 16.8815 22.5334 16.9423C21.9468 17.2989 21.1609 18.0597 20.4647 17.9564C18.7979 17.7091 18.7336 14.8679 16.6556 15.4909C16.4746 15.5451 16.2464 15.6593 16.0568 15.6423L16.0436 15.5595C16.2506 15.3391 16.7166 15.2194 17.0051 15.1353Z" fill="url(#paint1_linear_456_1251)"/>
<path d="M26.9406 16.6412C27.8947 16.5257 29.6095 17.3529 29.9834 18.2329C29.4719 18.223 28.462 17.2297 27.8847 17.0692C27.7252 17.0247 27.0278 16.758 26.9406 16.6412Z" fill="white"/>
<path d="M22.1135 12.5899C22.5747 11.1613 23.2256 9.89453 24.6235 9.19536C26.8299 8.092 29.3927 8.81122 31.2177 10.3101C31.9959 10.9494 33.107 11.7898 33.2371 12.8523C32.8822 14.6381 28.6285 13.9698 27.3289 13.9634C26.8917 13.9612 26.0986 14.0084 25.7078 13.9664L25.0243 13.984C24.3613 14.115 23.3754 14.1102 22.7059 14.0252C21.83 13.914 21.9917 13.2461 22.1135 12.5899Z" fill="#F03946"/>
<path d="M25.7078 13.9664C25.8299 13.8995 26.5911 13.8784 26.789 13.8587C27.462 13.7917 28.3523 13.5944 29.0123 13.5876C30.3473 13.5738 31.5043 13.9806 32.7282 13.1692C32.9141 13.0461 33.0327 13.0225 33.2371 12.8523C32.8822 14.6381 28.6285 13.9699 27.3289 13.9634C26.8917 13.9613 26.0986 14.0085 25.7078 13.9664Z" fill="#9B2F30"/>
<path d="M22.1135 12.5898C22.6459 13.3893 24.0936 14.0073 25.0243 13.9839C24.3613 14.1149 23.3754 14.1102 22.7059 14.0252C21.83 13.9139 21.9917 13.246 22.1135 12.5898Z" fill="#9B2F30"/>
<path d="M22.8902 12.1721L22.8128 12.1344C22.7848 12.0251 22.7671 12.0443 22.8376 11.9398C23.2304 11.3573 24.3982 12.0574 23.8653 12.6171C23.7894 12.8057 23.641 12.9692 23.475 13.0846C22.986 13.1505 22.9525 12.4873 22.8902 12.1721Z" fill="#9B2F30"/>
<path d="M22.8902 12.1721L22.8128 12.1344C22.7848 12.0251 22.7671 12.0443 22.8376 11.9398C23.2304 11.3573 24.3982 12.0574 23.8653 12.6171C23.6873 12.3734 23.6711 12.1844 23.3604 12.0545C23.1353 12.0429 23.1038 12.0739 22.8902 12.1721Z" fill="white"/>
<path d="M26.1011 9.72872C25.9924 9.59583 26.0218 9.65736 26.0173 9.461C26.2825 8.86445 27.1365 9.11805 27.2416 9.74372L27.1908 9.8258L27.0761 9.81752C26.6649 10.4559 26.4106 10.3364 26.1011 9.72872Z" fill="#9B2F30"/>
<path d="M26.1011 9.72872C25.9924 9.59583 26.0218 9.65736 26.0173 9.461C26.2825 8.86445 27.1365 9.11805 27.2416 9.74372L27.1908 9.8258L27.0761 9.81752C26.8583 9.58317 26.7531 9.50917 26.4924 9.31935C26.3653 9.44066 26.2237 9.59897 26.1011 9.72872Z" fill="white"/>
<path d="M24.9256 11.0275L24.7925 10.9687C24.8075 10.5886 25.5458 10.5571 25.8459 10.8212C25.9042 10.9311 25.9221 11.1453 25.8464 11.2494C25.6659 11.5111 25.4715 11.9147 25.1141 11.8021C24.8409 11.5057 24.9351 11.4055 24.9256 11.0275Z" fill="#9B2F30"/>
<path d="M24.9256 11.0275L24.7925 10.9687C24.8075 10.5886 25.5458 10.5571 25.8459 10.8212C25.9042 10.9311 25.9221 11.1453 25.8464 11.2494C25.5044 10.983 25.3414 10.7786 24.9256 11.0275Z" fill="white"/>
<path d="M29.5338 12.7653C29.3414 12.7185 29.3907 12.7608 29.2975 12.6268C29.7242 11.8394 30.8139 12.1515 30.4156 12.8883L30.4809 12.9304C30.4495 13.0707 30.3962 13.1273 30.276 13.2147C29.946 13.4551 29.6604 12.9416 29.5338 12.7653Z" fill="#9B2F30"/>
<path d="M29.5338 12.7653C29.3414 12.7185 29.3907 12.7608 29.2975 12.6268C29.7242 11.8394 30.8139 12.1515 30.4156 12.8883C30.2077 12.7113 30.118 12.5176 29.8668 12.482C29.6848 12.5395 29.6589 12.6058 29.5338 12.7653Z" fill="white"/>
<path d="M26.9405 12.4526L26.8992 12.3562C27.1499 12.0175 27.7018 12.1069 27.9286 12.4648L27.9206 12.55L27.7815 12.5986C27.7307 12.9257 27.7112 13.1109 27.3892 13.257C26.8698 13.2479 26.9007 12.8433 26.9405 12.4526Z" fill="#9B2F30"/>
<path d="M26.9405 12.4526L26.8992 12.3562C27.1499 12.0175 27.7018 12.1069 27.9286 12.4648L27.9206 12.55L27.7815 12.5986C27.4156 12.4365 27.3204 12.411 26.9405 12.4526Z" fill="white"/>
<path d="M28.294 10.4093L28.2083 10.3106C28.3129 9.88741 28.9196 9.90551 29.1878 10.2069C29.2252 10.3486 29.2397 10.5127 29.1335 10.6296C28.7157 11.1979 28.4445 10.9832 28.294 10.4093Z" fill="#9B2F30"/>
<path d="M28.294 10.4093L28.2083 10.3106C28.3129 9.88741 28.9196 9.90551 29.1878 10.2069C29.2252 10.3486 29.2397 10.5127 29.1335 10.6296C28.9809 10.4552 28.9037 10.3088 28.6888 10.2393C28.4939 10.243 28.4625 10.2887 28.294 10.4093Z" fill="white"/>
<path d="M31.0821 11.8965L31.0093 11.8517C31.1694 11.3938 31.96 11.563 31.7177 12.124C31.7506 12.1515 31.7297 12.1292 31.7391 12.2131L31.6469 12.323C31.4565 12.3928 31.5372 12.3834 31.3294 12.3334C31.1708 12.218 31.1504 12.0866 31.0821 11.8965Z" fill="white"/>
<path d="M31.0822 11.8965C31.4097 11.9291 31.4411 11.9827 31.7177 12.1241C31.7506 12.1515 31.7297 12.1292 31.7392 12.2131L31.647 12.3231C31.4565 12.3928 31.5373 12.3834 31.3294 12.3334C31.1709 12.218 31.1504 12.0867 31.0822 11.8965Z" fill="#9B2F30"/>
<path d="M17.9173 12.5853C17.9849 12.5412 18.0538 12.4993 18.124 12.4595C19.2474 11.8228 19.7088 11.5278 20.9479 11.8659C20.8753 12.0913 20.8225 12.3165 20.7656 12.5462C20.7191 12.9387 20.6532 13.3747 20.6642 13.7661C20.1598 13.7305 17.8187 13.2495 17.5058 12.9696C17.5529 12.8117 17.7747 12.669 17.9173 12.5853Z" fill="#03673B"/>
<path d="M17.9172 12.5853C17.9848 12.5412 18.0538 12.4993 18.124 12.4595C19.2474 11.8228 19.7087 11.5278 20.9479 11.8659C20.8752 12.0913 20.8225 12.3165 20.7656 12.5462C20.3512 12.6103 18.192 12.6928 17.9172 12.5853Z" fill="#138542"/>
<path d="M21.4241 10.6754C21.2768 10.2697 20.8714 8.01778 20.8902 7.61031L20.9614 7.55371C21.1385 7.57161 21.2124 7.65015 21.3598 7.7589C21.8527 8.09362 22.2995 8.49062 22.7392 8.89147C22.4554 9.16477 22.3235 9.32238 22.0771 9.63347C21.866 9.94681 21.6274 10.3501 21.4241 10.6754Z" fill="#03673B"/>
<path d="M21.3598 7.75903C21.8528 8.09376 22.2996 8.49076 22.7393 8.89161C22.4554 9.1649 22.3235 9.32252 22.0771 9.63361C21.9421 9.42244 21.3131 7.94926 21.3598 7.75903Z" fill="#138542"/>
<path d="M24.2058 0.493674C27.6973 0.352663 31.2406 1.05094 34.2471 2.87944C37.9001 5.09392 40.5292 8.66381 41.5606 12.8101C42.4754 16.5935 41.8483 20.3102 39.8333 23.6197C39.4166 21.61 38.8737 19.6285 38.2082 17.6869C38.2481 17.6081 38.287 17.5288 38.3249 17.449C38.79 16.461 38.8582 15.2484 38.4973 14.2679C37.9619 12.8125 36.4634 12.3302 35.276 11.5725C34.9779 11.3822 34.5696 10.5076 34.277 10.1891C31.4949 7.16146 28.0253 5.55929 23.9496 7.07934C23.5 6.65257 23.149 6.35659 22.6515 5.99464C21.5625 5.2459 19.983 4.75306 19.1223 6.10718C18.485 7.10981 18.7833 8.51518 19.0303 9.60946C18.1523 10.0123 17.3609 10.3407 16.5495 10.885C15.5892 11.5293 15.3045 12.5246 14.4162 13.2851C13.6943 13.903 13.0595 15.3247 13.1346 16.2693C13.1744 16.7692 13.3523 17.1937 13.6448 17.6232C13.4587 18.5991 13.1666 19.6047 12.9621 20.5843C12.5738 22.4446 12.1708 24.4625 11.9636 26.3473C11.3218 25.5828 10.6968 24.9633 10.1335 24.1063C8.82503 22.1153 8.23694 19.2461 8.14567 16.901C7.97812 12.5986 9.29746 8.39645 12.2182 5.19425C15.3151 1.79892 19.7241 0.641815 24.2058 0.493674Z" fill="#FFF7E6"/>
<path fill-rule="evenodd" clip-rule="evenodd" d="M21.7143 35.6341C21.7332 35.631 21.7525 35.6311 21.7717 35.6312C21.7798 35.6313 21.7879 35.6313 21.7959 35.6312C23.495 35.5914 25.4256 36.7042 25.462 38.5855C25.4759 39.3045 24.925 39.9268 24.3791 40.5435C23.9288 41.0521 23.482 41.5568 23.3581 42.1088C23.2211 42.7192 24.2262 43.2276 24.8513 43.2451C25.0434 43.2505 25.0648 43.0107 25.0866 42.7676C25.098 42.6392 25.1096 42.5099 25.1465 42.4154C25.4073 41.7464 25.7921 41.0932 26.4829 40.7974C26.8379 40.6454 27.4622 40.5682 27.8174 40.7241C27.9941 40.8016 28.1289 40.9503 28.1898 41.134C28.307 41.4874 27.995 42.0993 27.6798 42.7175C27.3276 43.4083 26.9713 44.1069 27.2053 44.4618C27.5041 44.915 27.8493 45.218 28.1328 45.4668C28.7491 46.0078 29.0739 46.2929 27.9964 47.3084C27.2997 47.965 26.7405 47.7523 26.0643 47.4952C25.6838 47.3505 25.2664 47.1918 24.7666 47.1658C24.0785 47.13 23.5706 47.4356 23.0476 47.7503C22.5747 48.0349 22.0895 48.3268 21.4476 48.3805C20.0369 48.4983 18.4395 47.9098 18.4088 46.2643C18.3929 45.4149 18.9817 44.6188 19.5617 43.8346C19.9803 43.2685 20.3943 42.7087 20.5729 42.1397C20.7119 41.697 20.361 41.2112 20.0212 40.7407C19.8333 40.4806 19.6488 40.2251 19.5524 39.9841C18.7215 37.9084 19.3131 36.0346 21.7143 35.6341ZM22.9618 45.8598C23.0754 45.8099 23.1063 45.6683 23.0302 45.5704L22.1406 44.4266C22.0612 44.3246 21.9089 44.3243 21.8359 44.431C21.5886 44.7927 21.1511 45.5431 21.4745 45.9281C21.7927 46.3069 22.5801 46.0274 22.9618 45.8598ZM22.3253 40.9936C21.9643 41.1139 21.4745 39.4622 21.4745 38.7816C21.4745 38.2177 22.1313 37.8066 22.3253 37.7606C22.5193 37.7147 22.6924 37.7215 22.8357 37.7606C23.1299 37.8409 23.2176 38.0844 23.3186 38.365C23.3276 38.3902 23.3368 38.4156 23.3462 38.4413C23.4608 38.7531 23.3462 39.4622 23.3462 39.4622C23.2571 40.1754 22.8357 40.8234 22.3253 40.9936Z" fill="#3E0D2C"/>
<path d="M11.5919 35.8829C12.9732 35.7882 13.0474 37.0033 13.0097 38.0185C12.9734 38.8432 12.9788 39.7861 12.8304 40.6009C12.5083 42.3715 12.776 43.7861 13.0351 45.5407C13.7196 45.0481 14.5657 44.4517 15.4153 44.5599C16.9686 44.7584 16.7888 46.3879 16.0134 47.3103C15.5658 47.8434 15.2869 48.1136 14.7566 48.5275C12.2019 50.4382 10.1339 49.5158 9.73824 46.3724C9.47962 44.3176 8.99124 36.6159 11.5919 35.8829Z" fill="#3E0D2C"/>
<path d="M38.3214 35.5784C40.4006 35.4957 40.2421 37.9664 40.1753 39.3465C39.9679 43.6192 38.129 50.3536 32.4176 47.3779C31.3807 46.7501 30.613 45.2916 31.2441 44.1553C32.2282 42.3852 34.3483 45.2612 35.7003 44.7277C36.8757 44.2176 36.7456 42.9062 36.8373 41.8327C36.9929 40.0132 36.8493 37.9424 37.5293 36.2217C37.6793 35.8422 37.9674 35.6926 38.3214 35.5784Z" fill="#3E0D2C"/>
<path d="M8.98545 31.2499C11.0269 31.1591 9.85733 33.0813 8.14338 33.2656C7.42579 33.2527 6.60086 32.869 7.23237 32.0426C7.63152 31.5202 8.36322 31.3434 8.98545 31.2499Z" fill="#3E0D2C"/>
<path d="M39.0706 32.4484C39.4734 32.4263 41.1419 32.3339 40.6364 33.346C40.4729 33.6732 39.6738 33.8761 39.2949 33.9357C36.9141 33.987 36.6948 32.6647 39.0706 32.4484Z" fill="#3E0D2C"/>
<path d="M10.9926 32.0407C12.0578 31.9976 14.2888 32.6048 12.2214 33.4721C10.4632 34.0205 9.53094 32.4175 10.9926 32.0407Z" fill="#3E0D2C"/>
<path d="M41.4031 31.0412C41.441 31.0389 41.4784 31.0373 41.5162 31.0363C41.9759 31.0254 43.0073 31.2219 43.0093 31.7947C42.8682 32.057 42.6543 32.0966 42.3757 32.1939C40.9943 32.4974 40.091 31.473 41.4031 31.0412Z" fill="#3E0D2C"/>
<path d="M10.5055 29.9661C11.1813 29.9488 11.1643 30.617 10.7766 31.047C10.117 31.0297 10.1122 30.3872 10.5055 29.9661Z" fill="#3E0D2C"/>
<path d="M26.981 33.7431C27.127 33.6901 27.29 33.7217 27.4062 33.8253C27.5218 33.9288 27.5717 34.0879 27.5353 34.2389C27.4989 34.39 27.3827 34.5092 27.2327 34.5486C27.0143 34.6064 26.789 34.4823 26.7217 34.2664C26.6539 34.0505 26.7681 33.8201 26.981 33.7431Z" fill="#3E0D2C"/>
<path d="M41.607 32.7115C41.8253 32.6549 42.0487 32.7849 42.107 33.0028C42.1653 33.2206 42.0372 33.4448 41.8199 33.505C41.6 33.5659 41.3727 33.4359 41.3139 33.2154C41.2546 32.9951 41.3867 32.7687 41.607 32.7115Z" fill="#3E0D2C"/>
<path d="M28.0971 33.9017C28.1654 33.8461 28.2586 33.8333 28.3389 33.8685C28.4196 33.9036 28.4735 33.9809 28.4789 34.0684C28.4844 34.1562 28.4406 34.2394 28.3648 34.2843C28.2596 34.3471 28.1235 34.3177 28.0532 34.2175C27.9834 34.1168 28.0024 33.9792 28.0971 33.9017Z" fill="#3E0D2C"/>
<defs>
<linearGradient id="paint0_linear_456_1251" x1="33.6269" y1="14.853" x2="33.0801" y2="20.1761" gradientUnits="userSpaceOnUse">
<stop stop-color="#FFEBF3"/>
<stop offset="1" stop-color="white"/>
</linearGradient>
<linearGradient id="paint1_linear_456_1251" x1="19.4842" y1="14.6894" x2="20.1656" y2="17.9436" gradientUnits="userSpaceOnUse">
<stop stop-color="#FFE7F3"/>
<stop offset="1" stop-color="white"/>
</linearGradient>
</defs>
</svg>
